<svg xmlns="http://www.w3.org/2000/svg" id="canvas" viewBox="-3 -2 6 5"><defs>
<marker id="arrow" markerWidth="6" markerHeight="6" refX="5" refY="3" orient="auto" markerUnits="strokeWidth">
<path d="M0,0 L0,6 L6,3 z" fill="#9a2b17"/>
</marker>
</defs><g/><g><line x1="-3" y1="-2" x2="-3.1762945331070034" y2="-2.1316063736928563" stroke="#9a2b17" stroke-width="0.008" marker-end="url(#arrow)"/><line x1="-3" y1="-1.7" x2="-3.185828563362731" y2="-1.8177613902709349" stroke="#9a2b17" stroke-width="0.008" marker-end="url(#arrow)"/><line x1="-3" y1="-1.4" x2="-3.1956450007584287" y2="-1.5006132877816567" stroke="#9a2b17" stroke-width="0.008" marker-end="url(#arrow)"/><line x1="-3" y1="-1.0999999999999999" x2="-3.20514983873411" y2="-1.17945781061273" stroke="#9a2b17" stroke-width="0.008" marker-end="url(#arrow)"/><line x1="-3" y1="-0.7999999999999998" x2="-3.2133278287611167" y2="-0.8537702285290625" stroke="#9a2b17" stroke-width="0.008" marker-end="url(#arrow)"/><line x1="-3" y1="-0.49999999999999983" x2="-3.218739886756261" y2="-0.5235130164346921" stroke="#9a2b17" stroke-width="0.008" marker-end="url(#arrow)"/><line x1="-3" y1="-0.19999999999999984" x2="-3.219747035992908" y2="-0.18945295433159298" stroke="#9a2b17" stroke-width="0.008" marker-end="url(#arrow)"/><line x1="-3" y1="0.10000000000000014" x2="-3.214978114146238" y2="0.14673767685847344" stroke="#9a2b17" stroke-width="0.008" marker-end="url(#arrow)"/><line x1="-3" y1="0.40000000000000013" x2="-3.2038319936354975" y2="0.4827799394212063" stroke="#9a2b17" stroke-width="0.008" marker-end="url(#arrow)"/><line x1="-3" y1="0.7000000000000002" x2="-3.1866973759285684" y2="0.816379078108511" stroke="#9a2b17" stroke-width="0.008" marker-end="url(#arrow)"/><line x1="-3" y1="1.0000000000000002" x2="-3.164792639973301" y2="1.1457511091231558" stroke="#9a2b17" stroke-width="0.008" marker-end="url(#arrow)"/><line x1="-3" y1="1.3000000000000003" x2="-3.1398252698855216" y2="1.4698496214344945" stroke="#9a2b17" stroke-width="0.008" marker-end="url(#arrow)"/><line x1="-3" y1="1.6000000000000003" x2="-3.1136860096579397" y2="1.7883493860039235" stroke="#9a2b17" stroke-width="0.008" marker-end="url(#arrow)"/><line x1="-3" y1="1.9000000000000004" x2="-3.0882198098515063" y2="2.1015372549921336" stroke="#9a2b17" stroke-width="0.008" marker-end="url(#arrow)"/><line x1="-3" y1="2.2" x2="-3.0650322571022453" y2="2.4101685169957374" stroke="#9a2b17" stroke-width="0.008" marker-end="url(#arrow)"/><line x1="-3" y1="2.5" x2="-3.045329821739141" y2="2.715279370263613" stroke="#9a2b17" stroke-width="0.008" marker-end="url(#arrow)"/><line x1="-3" y1="2.8" x2="-3.0298306672635253" y2="3.0179681887125107" stroke="#9a2b17" stroke-width="0.008" marker-end="url(#arrow)"/><line x1="-2.7" y1="-2" x2="-2.865340874865991" y2="-2.145128891329565" stroke="#9a2b17" stroke-width="0.008" marker-end="url(#arrow)"/><line x1="-2.7" y1="-1.7" x2="-2.8756240286309604" y2="-1.832499813461875" stroke="#9a2b17" stroke-width="0.008" marker-end="url(#arrow)"/><line x1="-2.7" y1="-1.4" x2="-2.886793328139743" y2="-1.5162250083350326" stroke="#9a2b17" stroke-width="0.008" marker-end="url(#arrow)"/><line x1="-2.7" y1="-1.0999999999999999" x2="-2.8983520957381605" y2="-1.1951653619563316" stroke="#9a2b17" stroke-width="0.008" marker-end="url(#arrow)"/><line x1="-2.7" y1="-0.7999999999999998" x2="-2.9091527143057836" y2="-0.8682286017629219" stroke="#9a2b17" stroke-width="0.008" marker-end="url(#arrow)"/><line x1="-2.7" y1="-0.49999999999999983" x2="-2.9172172203131206" y2="-0.5348809288787048" stroke="#9a2b17" stroke-width="0.008" marker-end="url(#arrow)"/><line x1="-2.7" y1="-0.19999999999999984" x2="-2.919960871347265" y2="-0.1958508945359352" stroke="#9a2b17" stroke-width="0.008" marker-end="url(#arrow)"/><line x1="-2.7" y1="0.10000000000000014" x2="-2.9150367355837306" y2="0.14646721800896637" stroke="#9a2b17" stroke-width="0.008" marker-end="url(#arrow)"/><line x1="-2.7" y1="0.40000000000000013" x2="-2.901405894129776" y2="0.48851929625672363" stroke="#9a2b17" stroke-width="0.008" marker-end="url(#arrow)"/><line x1="-2.7" y1="0.7000000000000002" x2="-2.879757965130633" y2="0.826834829491328" stroke="#9a2b17" stroke-width="0.008" marker-end="url(#arrow)"/><line x1="-2.7" y1="1.0000000000000002" x2="-2.852036783212556" y2="1.1590120012778227" stroke="#9a2b17" stroke-width="0.008" marker-end="url(#arrow)"/><line x1="-2.7" y1="1.3000000000000003" x2="-2.820734921314472" y2="1.48391051839193" stroke="#9a2b17" stroke-width="0.008" marker-end="url(#arrow)"/><line x1="-2.7" y1="1.6000000000000003" x2="-2.7884668238627017" y2="1.8014289479584447" stroke="#9a2b17" stroke-width="0.008" marker-end="url(#arrow)"/><line x1="-2.7" y1="1.9000000000000004" x2="-2.7577222605091385" y2="2.1122925826347103" stroke="#9a2b17" stroke-width="0.008" marker-end="url(#arrow)"/><line x1="-2.7" y1="2.2" x2="-2.730603416194302" y2="2.417861035794009" stroke="#9a2b17" stroke-width="0.008" marker-end="url(#arrow)"/><line x1="-2.7" y1="2.5" x2="-2.7085807314467347" y2="2.7198325977825832" stroke="#9a2b17" stroke-width="0.008" marker-end="url(#arrow)"/><line x1="-2.7" y1="2.8" x2="-2.6923929851086457" y2="3.0198684454951246" stroke="#9a2b17" stroke-width="0.008" marker-end="url(#arrow)"/><line x1="-2.4000000000000004" y1="-2" x2="-2.551577151120661" y2="-2.1594502030671157" stroke="#9a2b17" stroke-width="0.008" marker-end="url(#arrow)"/><line x1="-2.4000000000000004" y1="-1.7" x2="-2.5621215948431226" y2="-1.848716470121915" stroke="#9a2b17" stroke-width="0.008" marker-end="url(#arrow)"/><line x1="-2.4000000000000004" y1="-1.4" x2="-2.57430707285137" y2="-1.5342275841769761" stroke="#9a2b17" stroke-width="0.008" marker-end="url(#arrow)"/><line x1="-2.4000000000000004" y1="-1.0999999999999999" x2="-2.587982709449986" y2="-1.2142912986532322" stroke="#9a2b17" stroke-width="0.008" marker-end="url(#arrow)"/><line x1="-2.4000000000000004" y1="-0.7999999999999998" x2="-2.6021189303136434" y2="-0.8868788697490284" stroke="#9a2b17" stroke-width="0.008" marker-end="url(#arrow)"/><line x1="-2.4000000000000004" y1="-0.49999999999999983" x2="-2.614162600783362" y2="-0.5503426303018276" stroke="#9a2b17" stroke-width="0.008" marker-end="url(#arrow)"/><line x1="-2.4000000000000004" y1="-0.19999999999999984" x2="-2.619944871040902" y2="-0.2049248048490551" stroke="#9a2b17" stroke-width="0.008" marker-end="url(#arrow)"/><line x1="-2.4000000000000004" y1="0.10000000000000014" x2="-2.615171425846692" y2="0.14583947533623956" stroke="#9a2b17" stroke-width="0.008" marker-end="url(#arrow)"/><line x1="-2.4000000000000004" y1="0.40000000000000013" x2="-2.597989614239444" y2="0.49591721771046343" stroke="#9a2b17" stroke-width="0.008" marker-end="url(#arrow)"/><line x1="-2.4000000000000004" y1="0.7000000000000002" x2="-2.5698933304114617" y2="0.839772158464059" stroke="#9a2b17" stroke-width="0.008" marker-end="url(#arrow)"/><line x1="-2.4000000000000004" y1="1.0000000000000002" x2="-2.5341973236349102" y2="1.174330371218636" stroke="#9a2b17" stroke-width="0.008" marker-end="url(#arrow)"/><line x1="-2.4000000000000004" y1="1.3000000000000003" x2="-2.4945277574715545" y2="1.498656746845908" stroke="#9a2b17" stroke-width="0.008" marker-end="url(#arrow)"/><line x1="-2.4000000000000004" y1="1.6000000000000003" x2="-2.454456772711932" y2="1.8131536063635827" stroke="#9a2b17" stroke-width="0.008" marker-end="url(#arrow)"/><line x1="-2.4000000000000004" y1="1.9000000000000004" x2="-2.417364997294097" y2="2.1193136039304816" stroke="#9a2b17" stroke-width="0.008" marker-end="url(#arrow)"/><line x1="-2.4000000000000004" y1="2.2" x2="-2.3859809240490066" y2="2.419552876340713" stroke="#9a2b17" stroke-width="0.008" marker-end="url(#arrow)"/><line x1="-2.4000000000000004" y1="2.5" x2="-2.3619487499565484" y2="2.716684338082222" stroke="#9a2b17" stroke-width="0.008" marker-end="url(#arrow)"/><line x1="-2.4000000000000004" y1="2.8" x2="-2.3458018306620927" y2="3.0132195076451014" stroke="#9a2b17" stroke-width="0.008" marker-end="url(#arrow)"/><line x1="-2.1000000000000005" y1="-2" x2="-2.2346267151119203" y2="-2.1739989872906564" stroke="#9a2b17" stroke-width="0.008" marker-end="url(#arrow)"/><line x1="-2.1000000000000005" y1="-1.7" x2="-2.2445272148022593" y2="-1.8658670678028093" stroke="#9a2b17" stroke-width="0.008" marker-end="url(#arrow)"/><line x1="-2.1000000000000005" y1="-1.4" x2="-2.2567976935884535" y2="-1.5543194196637014" stroke="#9a2b17" stroke-width="0.008" marker-end="url(#arrow)"/><line x1="-2.1000000000000005" y1="-1.0999999999999999" x2="-2.27202327812201" y2="-1.237142231949745" stroke="#9a2b17" stroke-width="0.008" marker-end="url(#arrow)"/><line x1="-2.1000000000000005" y1="-0.7999999999999998" x2="-2.289953319678133" y2="-0.9109852978698404" stroke="#9a2b17" stroke-width="0.008" marker-end="url(#arrow)"/><line x1="-2.1000000000000005" y1="-0.49999999999999983" x2="-2.30792390768188" y2="-0.5718863590279631" stroke="#9a2b17" stroke-width="0.008" marker-end="url(#arrow)"/><line x1="-2.1000000000000005" y1="-0.19999999999999984" x2="-2.3192548938774347" y2="-0.21809119981634806" stroke="#9a2b17" stroke-width="0.008" marker-end="url(#arrow)"/><line x1="-2.1000000000000005" y1="0.10000000000000014" x2="-2.3153047522244754" y2="0.1452091104707615" stroke="#9a2b17" stroke-width="0.008" marker-end="url(#arrow)"/><line x1="-2.1000000000000005" y1="0.40000000000000013" x2="-2.2925383516047324" y2="0.5064376961481817" stroke="#9a2b17" stroke-width="0.008" marker-end="url(#arrow)"/><line x1="-2.1000000000000005" y1="0.7000000000000002" x2="-2.254911173838706" y2="0.8562130859432541" stroke="#9a2b17" stroke-width="0.008" marker-end="url(#arrow)"/><line x1="-2.1000000000000005" y1="1.0000000000000002" x2="-2.2084043161573197" y2="1.191437990583019" stroke="#9a2b17" stroke-width="0.008" marker-end="url(#arrow)"/><line x1="-2.1000000000000005" y1="1.3000000000000003" x2="-2.1580029090568735" y2="1.512216075123776" stroke="#9a2b17" stroke-width="0.008" marker-end="url(#arrow)"/><line x1="-2.1000000000000005" y1="1.6000000000000003" x2="-2.108511228699465" y2="1.8198352996814333" stroke="#9a2b17" stroke-width="0.008" marker-end="url(#arrow)"/><line x1="-2.1000000000000005" y1="1.9000000000000004" x2="-2.064640010765094" y2="2.117139750302213" stroke="#9a2b17" stroke-width="0.008" marker-end="url(#arrow)"/><line x1="-2.1000000000000005" y1="2.2" x2="-2.029753562421105" y2="2.408483663646518" stroke="#9a2b17" stroke-width="0.008" marker-end="url(#arrow)"/><line x1="-2.1000000000000005" y1="2.5" x2="-2.0051261404417042" y2="2.698491689429338" stroke="#9a2b17" stroke-width="0.008" marker-end="url(#arrow)"/><line x1="-2.1000000000000005" y1="2.8" x2="-1.9904295598750423" y2="2.990772950521878" stroke="#9a2b17" stroke-width="0.008" marker-end="url(#arrow)"/><line x1="-1.8000000000000005" y1="-2" x2="-1.9144420148578547" y2="-2.187890992959414" stroke="#9a2b17" stroke-width="0.008" marker-end="url(#arrow)"/><line x1="-1.8000000000000005" y1="-1.7" x2="-1.922313823142606" y2="-1.8828642356182297" stroke="#9a2b17" stroke-width="0.008" marker-end="url(#arrow)"/><line x1="-1.8000000000000005" y1="-1.4" x2="-1.9328116620107219" y2="-1.5753883189780606" stroke="#9a2b17" stroke-width="0.008" marker-end="url(#arrow)"/><line x1="-1.8000000000000005" y1="-1.0999999999999999" x2="-1.9475955843394435" y2="-1.263142708949859" stroke="#9a2b17" stroke-width="0.008" marker-end="url(#arrow)"/><line x1="-1.8000000000000005" y1="-0.7999999999999998" x2="-1.9683843051583674" y2="-0.941586460427309" stroke="#9a2b17" stroke-width="0.008" marker-end="url(#arrow)"/><line x1="-1.8000000000000005" y1="-0.49999999999999983" x2="-1.9945037415598927" y2="-0.6028022106727408" stroke="#9a2b17" stroke-width="0.008" marker-end="url(#arrow)"/><line x1="-1.8000000000000005" y1="-0.19999999999999984" x2="-2.01664367099537" y2="-0.23828210832294963" stroke="#9a2b17" stroke-width="0.008" marker-end="url(#arrow)"/><line x1="-1.8000000000000005" y1="0.10000000000000014" x2="-2.015139613078433" y2="0.14598855166737118" stroke="#9a2b17" stroke-width="0.008" marker-end="url(#arrow)"/><line x1="-1.8000000000000005" y1="0.40000000000000013" x2="-1.9821664821393499" y2="0.5233506091795828" stroke="#9a2b17" stroke-width="0.008" marker-end="url(#arrow)"/><line x1="-1.8000000000000005" y1="0.7000000000000002" x2="-1.9303414003679276" y2="0.8772318237510628" stroke="#9a2b17" stroke-width="0.008" marker-end="url(#arrow)"/><line x1="-1.8000000000000005" y1="1.0000000000000002" x2="-1.8701904213876681" y2="1.2085025293501779" stroke="#9a2b17" stroke-width="0.008" marker-end="url(#arrow)"/><line x1="-1.8000000000000005" y1="1.3000000000000003" x2="-1.8072185385582396" y2="1.5198815424292893" stroke="#9a2b17" stroke-width="0.008" marker-end="url(#arrow)"/><line x1="-1.8000000000000005" y1="1.6000000000000003" x2="-1.7481546234332659" y2="1.8138037813712695" stroke="#9a2b17" stroke-width="0.008" marker-end="url(#arrow)"/><line x1="-1.8000000000000005" y1="1.9000000000000004" x2="-1.6998256635182172" y2="2.0958701159197966" stroke="#9a2b17" stroke-width="0.008" marker-end="url(#arrow)"/><line x1="-1.8000000000000005" y1="2.2" x2="-1.66534516159492" y2="2.3739772240671226" stroke="#9a2b17" stroke-width="0.008" marker-end="url(#arrow)"/><line x1="-1.8000000000000005" y1="2.5" x2="-1.6438319367064362" y2="2.6549565616782242" stroke="#9a2b17" stroke-width="0.008" marker-end="url(#arrow)"/><line x1="-1.8000000000000005" y1="2.8" x2="-1.632811497413959" y2="2.942996519548684" stroke="#9a2b17" stroke-width="0.008" marker-end="url(#arrow)"/><line x1="-1.5000000000000004" y1="-2" x2="-1.5916164763756588" y2="-2.2000160524970642" stroke="#9a2b17" stroke-width="0.008" marker-end="url(#arrow)"/><line x1="-1.5000000000000004" y1="-1.7" x2="-1.595794438557793" y2="-1.8980490483223722" stroke="#9a2b17" stroke-width="0.008" marker-end="url(#arrow)"/><line x1="-1.5000000000000004" y1="-1.4" x2="-1.6016775149007354" y2="-1.595094036207186" stroke="#9a2b17" stroke-width="0.008" marker-end="url(#arrow)"/><line x1="-1.5000000000000004" y1="-1.0999999999999999" x2="-1.611662752249239" y2="-1.2895558750345795" stroke="#9a2b17" stroke-width="0.008" marker-end="url(#arrow)"/><line x1="-1.5000000000000004" y1="-0.7999999999999998" x2="-1.6301584072484698" y2="-0.9773662567190884" stroke="#9a2b17" stroke-width="0.008" marker-end="url(#arrow)"/><line x1="-1.5000000000000004" y1="-0.49999999999999983" x2="-1.6631974434263865" y2="-0.6475350617958033" stroke="#9a2b17" stroke-width="0.008" marker-end="url(#arrow)"/><line x1="-1.5000000000000004" y1="-0.19999999999999984" x2="-1.7073221894037707" y2="-0.27360373482933587" stroke="#9a2b17" stroke-width="0.008" marker-end="url(#arrow)"/><line x1="-1.5000000000000004" y1="0.10000000000000014" x2="-1.713334793010863" y2="0.15374259103367094" stroke="#9a2b17" stroke-width="0.008" marker-end="url(#arrow)"/><line x1="-1.5000000000000004" y1="0.40000000000000013" x2="-1.6574451862071646" y2="0.55365875614553" stroke="#9a2b17" stroke-width="0.008" marker-end="url(#arrow)"/><line x1="-1.5000000000000004" y1="0.7000000000000002" x2="-1.5875002160323026" y2="0.9018507175966944" stroke="#9a2b17" stroke-width="0.008" marker-end="url(#arrow)"/><line x1="-1.5000000000000004" y1="1.0000000000000002" x2="-1.514109383863642" y2="1.2195470912742605" stroke="#9a2b17" stroke-width="0.008" marker-end="url(#arrow)"/><line x1="-1.5000000000000004" y1="1.3000000000000003" x2="-1.4399198606274304" y2="1.511637371116192" stroke="#9a2b17" stroke-width="0.008" marker-end="url(#arrow)"/><line x1="-1.5000000000000004" y1="1.6000000000000003" x2="-1.3765915405266738" y2="1.782127296500059" stroke="#9a2b17" stroke-width="0.008" marker-end="url(#arrow)"/><line x1="-1.5000000000000004" y1="1.9000000000000004" x2="-1.3328797968094392" y2="2.0430763351695367" stroke="#9a2b17" stroke-width="0.008" marker-end="url(#arrow)"/><line x1="-1.5000000000000004" y1="2.2" x2="-1.3077058960309476" y2="2.3068783307258265" stroke="#9a2b17" stroke-width="0.008" marker-end="url(#arrow)"/><line x1="-1.5000000000000004" y1="2.5" x2="-1.295186872768749" y2="2.580321746207084" stroke="#9a2b17" stroke-width="0.008" marker-end="url(#arrow)"/><line x1="-1.5000000000000004" y1="2.8" x2="-1.2900810879344349" y2="2.8658335048224637" stroke="#9a2b17" stroke-width="0.008" marker-end="url(#arrow)"/><line x1="-1.2000000000000004" y1="-2" x2="-1.2676455800001991" y2="-2.209342006072448" stroke="#9a2b17" stroke-width="0.008" marker-end="url(#arrow)"/><line x1="-1.2000000000000004" y1="-1.7" x2="-1.2668543484544093" y2="-1.9095960307179896" stroke="#9a2b17" stroke-width="0.008" marker-end="url(#arrow)"/><line x1="-1.2000000000000004" y1="-1.4" x2="-1.2651755845549153" y2="-1.6101241137469118" stroke="#9a2b17" stroke-width="0.008" marker-end="url(#arrow)"/><line x1="-1.2000000000000004" y1="-1.0999999999999999" x2="-1.2641244939012057" y2="-1.3104472600960018" stroke="#9a2b17" stroke-width="0.008" marker-end="url(#arrow)"/><line x1="-1.2000000000000004" y1="-0.7999999999999998" x2="-1.2681238355074562" y2="-1.0091868615275659" stroke="#9a2b17" stroke-width="0.008" marker-end="url(#arrow)"/><line x1="-1.2000000000000004" y1="-0.49999999999999983" x2="-1.2882814092692614" y2="-0.7015102795825394" stroke="#9a2b17" stroke-width="0.008" marker-end="url(#arrow)"/><line x1="-1.2000000000000004" y1="-0.19999999999999984" x2="-1.4295027969946004" y2="-0.42386535997882435" stroke="#9a2b17" stroke-width="0.008" marker-end="url(#arrow)"/><line x1="-1.2000000000000004" y1="0.10000000000000014" x2="-1.6619443210348916" y2="0.3387623175118103" stroke="#9a2b17" stroke-width="0.008" marker-end="url(#arrow)"/><line x1="-1.2000000000000004" y1="0.40000000000000013" x2="-1.2861807170606747" y2="0.6024175980662454" stroke="#9a2b17" stroke-width="0.008" marker-end="url(#arrow)"/><line x1="-1.2000000000000004" y1="0.7000000000000002" x2="-1.215780773545367" y2="0.9194332864136842" stroke="#9a2b17" stroke-width="0.008" marker-end="url(#arrow)"/><line x1="-1.2000000000000004" y1="1.0000000000000002" x2="-1.1394479813253848" y2="1.2115028440339022" stroke="#9a2b17" stroke-width="0.008" marker-end="url(#arrow)"/><line x1="-1.2000000000000004" y1="1.3000000000000003" x2="-1.0636404548549778" y2="1.4726443582855884" stroke="#9a2b17" stroke-width="0.008" marker-end="url(#arrow)"/><line x1="-1.2000000000000004" y1="1.6000000000000003" x2="-1.011719538980874" y2="1.7138001230158617" stroke="#9a2b17" stroke-width="0.008" marker-end="url(#arrow)"/><line x1="-1.2000000000000004" y1="1.9000000000000004" x2="-0.9875784226895139" y2="1.957245729036541" stroke="#9a2b17" stroke-width="0.008" marker-end="url(#arrow)"/><line x1="-1.2000000000000004" y1="2.2" x2="-0.9804788888079881" y2="2.2145079888690384" stroke="#9a2b17" stroke-width="0.008" marker-end="url(#arrow)"/><line x1="-1.2000000000000004" y1="2.5" x2="-0.9803881599169693" y2="2.486937087026809" stroke="#9a2b17" stroke-width="0.008" marker-end="url(#arrow)"/><line x1="-1.2000000000000004" y1="2.8" x2="-0.9816632656878325" y2="2.772998695403781" stroke="#9a2b17" stroke-width="0.008" marker-end="url(#arrow)"/><line x1="-0.9000000000000004" y1="-2" x2="-0.9448409122456961" y2="-2.2153817368974766" stroke="#9a2b17" stroke-width="0.008" marker-end="url(#arrow)"/><line x1="-0.9000000000000004" y1="-1.7" x2="-0.9392635963702206" y2="-1.9164679421994777" stroke="#9a2b17" stroke-width="0.008" marker-end="url(#arrow)"/><line x1="-0.9000000000000004" y1="-1.4" x2="-0.9291161757076709" y2="-1.618064780081883" stroke="#9a2b17" stroke-width="0.008" marker-end="url(#arrow)"/><line x1="-0.9000000000000004" y1="-1.0999999999999999" x2="-0.9130469440675366" y2="-1.319612789360043" stroke="#9a2b17" stroke-width="0.008" marker-end="url(#arrow)"/><line x1="-0.9000000000000004" y1="-0.7999999999999998" x2="-0.8908766644577438" y2="-1.0198107475729594" stroke="#9a2b17" stroke-width="0.008" marker-end="url(#arrow)"/><line x1="-0.9000000000000004" y1="-0.49999999999999983" x2="-0.8620489720807636" y2="-0.7167019138814266" stroke="#9a2b17" stroke-width="0.008" marker-end="url(#arrow)"/><line x1="-0.9000000000000004" y1="-0.19999999999999984" x2="-0.6700947468576498" y2="-0.6566862204234121" stroke="#9a2b17" stroke-width="0.008" marker-end="url(#arrow)"/><line x1="-0.9000000000000004" y1="0.40000000000000013" x2="-0.8425486621979812" y2="0.6123660608118875" stroke="#9a2b17" stroke-width="0.008" marker-end="url(#arrow)"/><line x1="-0.9000000000000004" y1="0.7000000000000002" x2="-0.8276293084596088" y2="0.9077558254441149" stroke="#9a2b17" stroke-width="0.008" marker-end="url(#arrow)"/><line x1="-0.9000000000000004" y1="1.0000000000000002" x2="-0.7639964502599699" y2="1.172924938797477" stroke="#9a2b17" stroke-width="0.008" marker-end="url(#arrow)"/><line x1="-0.9000000000000004" y1="1.3000000000000003" x2="-0.7037741048343995" y2="1.399475615436441" stroke="#9a2b17" stroke-width="0.008" marker-end="url(#arrow)"/><line x1="-0.9000000000000004" y1="1.6000000000000003" x2="-0.6808450410559194" y2="1.6192640590275826" stroke="#9a2b17" stroke-width="0.008" marker-end="url(#arrow)"/><line x1="-0.9000000000000004" y1="1.9000000000000004" x2="-0.6837872499037447" y2="1.8593546227005568" stroke="#9a2b17" stroke-width="0.008" marker-end="url(#arrow)"/><line x1="-0.9000000000000004" y1="2.2" x2="-0.694463743942105" y2="2.1215471641959116" stroke="#9a2b17" stroke-width="0.008" marker-end="url(#arrow)"/><line x1="-0.9000000000000004" y1="2.5" x2="-0.7042165608766395" y2="2.399656365597865" stroke="#9a2b17" stroke-width="0.008" marker-end="url(#arrow)"/><line x1="-0.9000000000000004" y1="2.8" x2="-0.7100863030319418" y2="2.68894691492838" stroke="#9a2b17" stroke-width="0.008" marker-end="url(#arrow)"/><line x1="-0.6000000000000003" y1="-2" x2="-0.6255998836785699" y2="-2.2185054826672403" stroke="#9a2b17" stroke-width="0.008" marker-end="url(#arrow)"/><line x1="-0.6000000000000003" y1="-1.7" x2="-0.617716028381699" y2="-1.9192855269696996" stroke="#9a2b17" stroke-width="0.008" marker-end="url(#arrow)"/><line x1="-0.6000000000000003" y1="-1.4" x2="-0.6025369838929108" y2="-1.619985371588038" stroke="#9a2b17" stroke-width="0.008" marker-end="url(#arrow)"/><line x1="-0.6000000000000003" y1="-1.0999999999999999" x2="-0.5751671069191403" y2="-1.3185939784651777" stroke="#9a2b17" stroke-width="0.008" marker-end="url(#arrow)"/><line x1="-0.6000000000000003" y1="-0.7999999999999998" x2="-0.5305421907905574" y2="-1.0087477251129329" stroke="#9a2b17" stroke-width="0.008" marker-end="url(#arrow)"/><line x1="-0.6000000000000003" y1="-0.49999999999999983" x2="-0.46826467941115074" y2="-0.6761981989390158" stroke="#9a2b17" stroke-width="0.008" marker-end="url(#arrow)"/><line x1="-0.6000000000000003" y1="-0.19999999999999984" x2="-0.3988587560705814" y2="-0.28911902148546054" stroke="#9a2b17" stroke-width="0.008" marker-end="url(#arrow)"/><line x1="-0.6000000000000003" y1="0.10000000000000014" x2="-0.39283747513466016" y2="0.17405192969408273" stroke="#9a2b17" stroke-width="0.008" marker-end="url(#arrow)"/><line x1="-0.6000000000000003" y1="0.40000000000000013" x2="-0.4634535079114441" y2="0.572496537641513" stroke="#9a2b17" stroke-width="0.008" marker-end="url(#arrow)"/><line x1="-0.6000000000000003" y1="0.7000000000000002" x2="-0.47575150844335745" y2="0.8815552597582865" stroke="#9a2b17" stroke-width="0.008" marker-end="url(#arrow)"/><line x1="-0.6000000000000003" y1="1.0000000000000002" x2="-0.4205381002631894" y2="1.1272533950150443" stroke="#9a2b17" stroke-width="0.008" marker-end="url(#arrow)"/><line x1="-0.6000000000000003" y1="1.3000000000000003" x2="-0.3807633736214866" y2="1.3183112439273799" stroke="#9a2b17" stroke-width="0.008" marker-end="url(#arrow)"/><line x1="-0.6000000000000003" y1="1.6000000000000003" x2="-0.39358503747006757" y2="1.5238891384639064" stroke="#9a2b17" stroke-width="0.008" marker-end="url(#arrow)"/><line x1="-0.6000000000000003" y1="1.9000000000000004" x2="-0.42078498121163666" y2="1.7723991495299252" stroke="#9a2b17" stroke-width="0.008" marker-end="url(#arrow)"/><line x1="-0.6000000000000003" y1="2.2" x2="-0.4420586418871333" y2="2.046851289925566" stroke="#9a2b17" stroke-width="0.008" marker-end="url(#arrow)"/><line x1="-0.6000000000000003" y1="2.5" x2="-0.45572351459796767" y2="2.3339147936749423" stroke="#9a2b17" stroke-width="0.008" marker-end="url(#arrow)"/><line x1="-0.6000000000000003" y1="2.8" x2="-0.463054392919859" y2="2.6278201501294314" stroke="#9a2b17" stroke-width="0.008" marker-end="url(#arrow)"/><line x1="-0.3000000000000003" y1="-2" x2="-0.31107875583557637" y2="-2.2197208710367216" stroke="#9a2b17" stroke-width="0.008" marker-end="url(#arrow)"/><line x1="-0.3000000000000003" y1="-1.7" x2="-0.3052502236261601" y2="-1.9199373436955973" stroke="#9a2b17" stroke-width="0.008" marker-end="url(#arrow)"/><line x1="-0.3000000000000003" y1="-1.4" x2="-0.2932879983494391" y2="-1.6198975876035089" stroke="#9a2b17" stroke-width="0.008" marker-end="url(#arrow)"/><line x1="-0.3000000000000003" y1="-1.0999999999999999" x2="-0.26879637973366716" y2="-1.3177758803960495" stroke="#9a2b17" stroke-width="0.008" marker-end="url(#arrow)"/><line x1="-0.3000000000000003" y1="-0.7999999999999998" x2="-0.2199724869964841" y2="-1.0049282732140004" stroke="#9a2b17" stroke-width="0.008" marker-end="url(#arrow)"/><line x1="-0.3000000000000003" y1="-0.49999999999999983" x2="-0.14014971254684766" y2="-0.6511551706067127" stroke="#9a2b17" stroke-width="0.008" marker-end="url(#arrow)"/><line x1="-0.3000000000000003" y1="-0.19999999999999984" x2="-0.08100882718106361" y2="-0.2210443870755743" stroke="#9a2b17" stroke-width="0.008" marker-end="url(#arrow)"/><line x1="-0.3000000000000003" y1="0.10000000000000014" x2="-0.11727838310754271" y2="0.22252677552358097" stroke="#9a2b17" stroke-width="0.008" marker-end="url(#arrow)"/><line x1="-0.3000000000000003" y1="0.40000000000000013" x2="-0.18825684600126857" y2="0.5895084893465614" stroke="#9a2b17" stroke-width="0.008" marker-end="url(#arrow)"/><line x1="-0.3000000000000003" y1="0.7000000000000002" x2="-0.1971282292708697" y2="0.8944669606566967" stroke="#9a2b17" stroke-width="0.008" marker-end="url(#arrow)"/><line x1="-0.3000000000000003" y1="1.0000000000000002" x2="-0.1262796811865672" y2="1.1349861134760135" stroke="#9a2b17" stroke-width="0.008" marker-end="url(#arrow)"/><line x1="-0.3000000000000003" y1="1.3000000000000003" x2="-0.05380974224552465" y2="1.2339043336236628" stroke="#9a2b17" stroke-width="0.008" marker-end="url(#arrow)"/><line x1="-0.3000000000000003" y1="1.6000000000000003" x2="-0.15493389338607833" y2="1.434604036591342" stroke="#9a2b17" stroke-width="0.008" marker-end="url(#arrow)"/><line x1="-0.3000000000000003" y1="1.9000000000000004" x2="-0.19436538445312884" y2="1.7070198766756937" stroke="#9a2b17" stroke-width="0.008" marker-end="url(#arrow)"/><line x1="-0.3000000000000003" y1="2.2" x2="-0.21360114448361978" y2="1.9976754148269185" stroke="#9a2b17" stroke-width="0.008" marker-end="url(#arrow)"/><line x1="-0.3000000000000003" y1="2.5" x2="-0.2237262379824253" y2="2.2936451763886136" stroke="#9a2b17" stroke-width="0.008" marker-end="url(#arrow)"/><line x1="-0.3000000000000003" y1="2.8" x2="-0.22880274673074802" y2="2.5918391220067662" stroke="#9a2b17" stroke-width="0.008" marker-end="url(#arrow)"/><line x1="-3.3306690738754696e-16" y1="-2" x2="-3.479451928121282e-16" y2="-2.22" stroke="#9a2b17" stroke-width="0.008" marker-end="url(#arrow)"/><line x1="-3.3306690738754696e-16" y1="-1.7" x2="-3.2380110212515633e-16" y2="-1.92" stroke="#9a2b17" stroke-width="0.008" marker-end="url(#arrow)"/><line x1="-3.3306690738754696e-16" y1="-1.4" x2="-3.0749965138886563e-16" y2="-1.6199999999999999" stroke="#9a2b17" stroke-width="0.008" marker-end="url(#arrow)"/><line x1="-3.3306690738754696e-16" y1="-1.0999999999999999" x2="-2.4430205886487754e-16" y2="-1.3199999999999998" stroke="#9a2b17" stroke-width="0.008" marker-end="url(#arrow)"/><line x1="-3.3306690738754696e-16" y1="-0.7999999999999998" x2="-1.7200727790612663e-16" y2="-1.0199999999999998" stroke="#9a2b17" stroke-width="0.008" marker-end="url(#arrow)"/><line x1="-3.3306690738754696e-16" y1="-0.49999999999999983" x2="1.6998651986236217e-16" y2="-0.7199999999999999" stroke="#9a2b17" stroke-width="0.008" marker-end="url(#arrow)"/><line x1="-3.3306690738754696e-16" y1="-0.19999999999999984" x2="2.2539873036585514e-15" y2="0.020000000000000157" stroke="#9a2b17" stroke-width="0.008" marker-end="url(#arrow)"/><line x1="-3.3306690738754696e-16" y1="0.10000000000000014" x2="7.096184122698867e-18" y2="0.3200000000000002" stroke="#9a2b17" stroke-width="0.008" marker-end="url(#arrow)"/><line x1="-3.3306690738754696e-16" y1="0.40000000000000013" x2="-1.6830655311161522e-16" y2="0.6200000000000001" stroke="#9a2b17" stroke-width="0.008" marker-end="url(#arrow)"/><line x1="-3.3306690738754696e-16" y1="0.7000000000000002" x2="-1.8968462242562078e-16" y2="0.9200000000000002" stroke="#9a2b17" stroke-width="0.008" marker-end="url(#arrow)"/><line x1="-3.3306690738754696e-16" y1="1.6000000000000003" x2="-1.3582221325107975e-16" y2="1.3800000000000003" stroke="#9a2b17" stroke-width="0.008" marker-end="url(#arrow)"/><line x1="-3.3306690738754696e-16" y1="1.9000000000000004" x2="-2.059769710062276e-16" y2="1.6800000000000004" stroke="#9a2b17" stroke-width="0.008" marker-end="url(#arrow)"/><line x1="-3.3306690738754696e-16" y1="2.2" x2="-2.399071812270493e-16" y2="1.9800000000000002" stroke="#9a2b17" stroke-width="0.008" marker-end="url(#arrow)"/><line x1="-3.3306690738754696e-16" y1="2.5" x2="-2.4277948387580647e-16" y2="2.28" stroke="#9a2b17" stroke-width="0.008" marker-end="url(#arrow)"/><line x1="-3.3306690738754696e-16" y1="2.8" x2="-2.4091401910236915e-16" y2="2.5799999999999996" stroke="#9a2b17" stroke-width="0.008" marker-end="url(#arrow)"/><line x1="0.29999999999999966" y1="-2" x2="0.31107875583557565" y2="-2.2197208710367216" stroke="#9a2b17" stroke-width="0.008" marker-end="url(#arrow)"/><line x1="0.29999999999999966" y1="-1.7" x2="0.3052502236261594" y2="-1.9199373436955973" stroke="#9a2b17" stroke-width="0.008" marker-end="url(#arrow)"/><line x1="0.29999999999999966" y1="-1.4" x2="0.2932879983494384" y2="-1.6198975876035089" stroke="#9a2b17" stroke-width="0.008" marker-end="url(#arrow)"/><line x1="0.29999999999999966" y1="-1.0999999999999999" x2="0.26879637973366655" y2="-1.3177758803960495" stroke="#9a2b17" stroke-width="0.008" marker-end="url(#arrow)"/><line x1="0.29999999999999966" y1="-0.7999999999999998" x2="0.21997248699648347" y2="-1.0049282732140004" stroke="#9a2b17" stroke-width="0.008" marker-end="url(#arrow)"/><line x1="0.29999999999999966" y1="-0.49999999999999983" x2="0.14014971254684702" y2="-0.6511551706067127" stroke="#9a2b17" stroke-width="0.008" marker-end="url(#arrow)"/><line x1="0.29999999999999966" y1="-0.19999999999999984" x2="0.08100882718106295" y2="-0.22104438707557414" stroke="#9a2b17" stroke-width="0.008" marker-end="url(#arrow)"/><line x1="0.29999999999999966" y1="0.10000000000000014" x2="0.11727838310754221" y2="0.22252677552358113" stroke="#9a2b17" stroke-width="0.008" marker-end="url(#arrow)"/><line x1="0.29999999999999966" y1="0.40000000000000013" x2="0.1882568460012681" y2="0.5895084893465615" stroke="#9a2b17" stroke-width="0.008" marker-end="url(#arrow)"/><line x1="0.29999999999999966" y1="0.7000000000000002" x2="0.19712822927086915" y2="0.8944669606566968" stroke="#9a2b17" stroke-width="0.008" marker-end="url(#arrow)"/><line x1="0.29999999999999966" y1="1.0000000000000002" x2="0.1262796811865666" y2="1.1349861134760137" stroke="#9a2b17" stroke-width="0.008" marker-end="url(#arrow)"/><line x1="0.29999999999999966" y1="1.3000000000000003" x2="0.05380974224552301" y2="1.2339043336236624" stroke="#9a2b17" stroke-width="0.008" marker-end="url(#arrow)"/><line x1="0.29999999999999966" y1="1.6000000000000003" x2="0.15493389338607788" y2="1.434604036591342" stroke="#9a2b17" stroke-width="0.008" marker-end="url(#arrow)"/><line x1="0.29999999999999966" y1="1.9000000000000004" x2="0.1943653844531284" y2="1.7070198766756934" stroke="#9a2b17" stroke-width="0.008" marker-end="url(#arrow)"/><line x1="0.29999999999999966" y1="2.2" x2="0.21360114448361928" y2="1.9976754148269182" stroke="#9a2b17" stroke-width="0.008" marker-end="url(#arrow)"/><line x1="0.29999999999999966" y1="2.5" x2="0.2237262379824248" y2="2.2936451763886136" stroke="#9a2b17" stroke-width="0.008" marker-end="url(#arrow)"/><line x1="0.29999999999999966" y1="2.8" x2="0.22880274673074752" y2="2.591839122006766" stroke="#9a2b17" stroke-width="0.008" marker-end="url(#arrow)"/><line x1="0.5999999999999996" y1="-2" x2="0.6255998836785691" y2="-2.2185054826672403" stroke="#9a2b17" stroke-width="0.008" marker-end="url(#arrow)"/><line x1="0.5999999999999996" y1="-1.7" x2="0.6177160283816983" y2="-1.9192855269696996" stroke="#9a2b17" stroke-width="0.008" marker-end="url(#arrow)"/><line x1="0.5999999999999996" y1="-1.4" x2="0.6025369838929101" y2="-1.619985371588038" stroke="#9a2b17" stroke-width="0.008" marker-end="url(#arrow)"/><line x1="0.5999999999999996" y1="-1.0999999999999999" x2="0.5751671069191396" y2="-1.3185939784651777" stroke="#9a2b17" stroke-width="0.008" marker-end="url(#arrow)"/><line x1="0.5999999999999996" y1="-0.7999999999999998" x2="0.5305421907905566" y2="-1.0087477251129329" stroke="#9a2b17" stroke-width="0.008" marker-end="url(#arrow)"/><line x1="0.5999999999999996" y1="-0.49999999999999983" x2="0.4682646794111499" y2="-0.6761981989390156" stroke="#9a2b17" stroke-width="0.008" marker-end="url(#arrow)"/><line x1="0.5999999999999996" y1="-0.19999999999999984" x2="0.39885875607058063" y2="-0.2891190214854603" stroke="#9a2b17" stroke-width="0.008" marker-end="url(#arrow)"/><line x1="0.5999999999999996" y1="0.10000000000000014" x2="0.39283747513465955" y2="0.17405192969408273" stroke="#9a2b17" stroke-width="0.008" marker-end="url(#arrow)"/><line x1="0.5999999999999996" y1="0.40000000000000013" x2="0.46345350791144335" y2="0.5724965376415129" stroke="#9a2b17" stroke-width="0.008" marker-end="url(#arrow)"/><line x1="0.5999999999999996" y1="0.7000000000000002" x2="0.47575150844335673" y2="0.8815552597582865" stroke="#9a2b17" stroke-width="0.008" marker-end="url(#arrow)"/><line x1="0.5999999999999996" y1="1.0000000000000002" x2="0.4205381002631887" y2="1.1272533950150443" stroke="#9a2b17" stroke-width="0.008" marker-end="url(#arrow)"/><line x1="0.5999999999999996" y1="1.3000000000000003" x2="0.38076337362148593" y2="1.3183112439273796" stroke="#9a2b17" stroke-width="0.008" marker-end="url(#arrow)"/><line x1="0.5999999999999996" y1="1.6000000000000003" x2="0.39358503747006696" y2="1.5238891384639062" stroke="#9a2b17" stroke-width="0.008" marker-end="url(#arrow)"/><line x1="0.5999999999999996" y1="1.9000000000000004" x2="0.42078498121163616" y2="1.772399149529925" stroke="#9a2b17" stroke-width="0.008" marker-end="url(#arrow)"/><line x1="0.5999999999999996" y1="2.2" x2="0.44205864188713273" y2="2.046851289925566" stroke="#9a2b17" stroke-width="0.008" marker-end="url(#arrow)"/><line x1="0.5999999999999996" y1="2.5" x2="0.45572351459796706" y2="2.333914793674942" stroke="#9a2b17" stroke-width="0.008" marker-end="url(#arrow)"/><line x1="0.5999999999999996" y1="2.8" x2="0.4630543929198585" y2="2.627820150129431" stroke="#9a2b17" stroke-width="0.008" marker-end="url(#arrow)"/><line x1="0.8999999999999997" y1="-2" x2="0.9448409122456954" y2="-2.2153817368974766" stroke="#9a2b17" stroke-width="0.008" marker-end="url(#arrow)"/><line x1="0.8999999999999997" y1="-1.7" x2="0.9392635963702199" y2="-1.9164679421994777" stroke="#9a2b17" stroke-width="0.008" marker-end="url(#arrow)"/><line x1="0.8999999999999997" y1="-1.4" x2="0.9291161757076701" y2="-1.618064780081883" stroke="#9a2b17" stroke-width="0.008" marker-end="url(#arrow)"/><line x1="0.8999999999999997" y1="-1.0999999999999999" x2="0.9130469440675358" y2="-1.319612789360043" stroke="#9a2b17" stroke-width="0.008" marker-end="url(#arrow)"/><line x1="0.8999999999999997" y1="-0.7999999999999998" x2="0.8908766644577429" y2="-1.0198107475729594" stroke="#9a2b17" stroke-width="0.008" marker-end="url(#arrow)"/><line x1="0.8999999999999997" y1="-0.49999999999999983" x2="0.8620489720807627" y2="-0.7167019138814266" stroke="#9a2b17" stroke-width="0.008" marker-end="url(#arrow)"/><line x1="0.8999999999999997" y1="-0.19999999999999984" x2="0.6700947468576486" y2="-0.6566862204234102" stroke="#9a2b17" stroke-width="0.008" marker-end="url(#arrow)"/><line x1="0.8999999999999997" y1="0.40000000000000013" x2="0.8425486621979802" y2="0.6123660608118875" stroke="#9a2b17" stroke-width="0.008" marker-end="url(#arrow)"/><line x1="0.8999999999999997" y1="0.7000000000000002" x2="0.827629308459608" y2="0.9077558254441149" stroke="#9a2b17" stroke-width="0.008" marker-end="url(#arrow)"/><line x1="0.8999999999999997" y1="1.0000000000000002" x2="0.7639964502599691" y2="1.1729249387974767" stroke="#9a2b17" stroke-width="0.008" marker-end="url(#arrow)"/><line x1="0.8999999999999997" y1="1.3000000000000003" x2="0.7037741048343987" y2="1.3994756154364407" stroke="#9a2b17" stroke-width="0.008" marker-end="url(#arrow)"/><line x1="0.8999999999999997" y1="1.6000000000000003" x2="0.6808450410559187" y2="1.6192640590275824" stroke="#9a2b17" stroke-width="0.008" marker-end="url(#arrow)"/><line x1="0.8999999999999997" y1="1.9000000000000004" x2="0.6837872499037441" y2="1.8593546227005566" stroke="#9a2b17" stroke-width="0.008" marker-end="url(#arrow)"/><line x1="0.8999999999999997" y1="2.2" x2="0.6944637439421043" y2="2.1215471641959116" stroke="#9a2b17" stroke-width="0.008" marker-end="url(#arrow)"/><line x1="0.8999999999999997" y1="2.5" x2="0.704216560876639" y2="2.399656365597865" stroke="#9a2b17" stroke-width="0.008" marker-end="url(#arrow)"/><line x1="0.8999999999999997" y1="2.8" x2="0.7100863030319412" y2="2.68894691492838" stroke="#9a2b17" stroke-width="0.008" marker-end="url(#arrow)"/><line x1="1.1999999999999997" y1="-2" x2="1.2676455800001984" y2="-2.209342006072448" stroke="#9a2b17" stroke-width="0.008" marker-end="url(#arrow)"/><line x1="1.1999999999999997" y1="-1.7" x2="1.2668543484544086" y2="-1.9095960307179896" stroke="#9a2b17" stroke-width="0.008" marker-end="url(#arrow)"/><line x1="1.1999999999999997" y1="-1.4" x2="1.2651755845549144" y2="-1.6101241137469118" stroke="#9a2b17" stroke-width="0.008" marker-end="url(#arrow)"/><line x1="1.1999999999999997" y1="-1.0999999999999999" x2="1.2641244939012048" y2="-1.3104472600960018" stroke="#9a2b17" stroke-width="0.008" marker-end="url(#arrow)"/><line x1="1.1999999999999997" y1="-0.7999999999999998" x2="1.2681238355074553" y2="-1.0091868615275659" stroke="#9a2b17" stroke-width="0.008" marker-end="url(#arrow)"/><line x1="1.1999999999999997" y1="-0.49999999999999983" x2="1.2882814092692605" y2="-0.7015102795825394" stroke="#9a2b17" stroke-width="0.008" marker-end="url(#arrow)"/><line x1="1.1999999999999997" y1="-0.19999999999999984" x2="1.4295027969946001" y2="-0.42386535997882546" stroke="#9a2b17" stroke-width="0.008" marker-end="url(#arrow)"/><line x1="1.1999999999999997" y1="0.10000000000000014" x2="1.661944321034893" y2="0.3387623175118122" stroke="#9a2b17" stroke-width="0.008" marker-end="url(#arrow)"/><line x1="1.1999999999999997" y1="0.40000000000000013" x2="1.2861807170606738" y2="0.6024175980662455" stroke="#9a2b17" stroke-width="0.008" marker-end="url(#arrow)"/><line x1="1.1999999999999997" y1="0.7000000000000002" x2="1.215780773545366" y2="0.9194332864136842" stroke="#9a2b17" stroke-width="0.008" marker-end="url(#arrow)"/><line x1="1.1999999999999997" y1="1.0000000000000002" x2="1.139447981325384" y2="1.211502844033902" stroke="#9a2b17" stroke-width="0.008" marker-end="url(#arrow)"/><line x1="1.1999999999999997" y1="1.3000000000000003" x2="1.063640454854977" y2="1.4726443582855884" stroke="#9a2b17" stroke-width="0.008" marker-end="url(#arrow)"/><line x1="1.1999999999999997" y1="1.6000000000000003" x2="1.011719538980873" y2="1.7138001230158615" stroke="#9a2b17" stroke-width="0.008" marker-end="url(#arrow)"/><line x1="1.1999999999999997" y1="1.9000000000000004" x2="0.9875784226895132" y2="1.9572457290365408" stroke="#9a2b17" stroke-width="0.008" marker-end="url(#arrow)"/><line x1="1.1999999999999997" y1="2.2" x2="0.9804788888079874" y2="2.214507988869038" stroke="#9a2b17" stroke-width="0.008" marker-end="url(#arrow)"/><line x1="1.1999999999999997" y1="2.5" x2="0.9803881599169686" y2="2.486937087026809" stroke="#9a2b17" stroke-width="0.008" marker-end="url(#arrow)"/><line x1="1.1999999999999997" y1="2.8" x2="0.9816632656878318" y2="2.772998695403781" stroke="#9a2b17" stroke-width="0.008" marker-end="url(#arrow)"/><line x1="1.4999999999999998" y1="-2" x2="1.5916164763756582" y2="-2.2000160524970642" stroke="#9a2b17" stroke-width="0.008" marker-end="url(#arrow)"/><line x1="1.4999999999999998" y1="-1.7" x2="1.595794438557792" y2="-1.8980490483223722" stroke="#9a2b17" stroke-width="0.008" marker-end="url(#arrow)"/><line x1="1.4999999999999998" y1="-1.4" x2="1.6016775149007347" y2="-1.595094036207186" stroke="#9a2b17" stroke-width="0.008" marker-end="url(#arrow)"/><line x1="1.4999999999999998" y1="-1.0999999999999999" x2="1.6116627522492382" y2="-1.2895558750345795" stroke="#9a2b17" stroke-width="0.008" marker-end="url(#arrow)"/><line x1="1.4999999999999998" y1="-0.7999999999999998" x2="1.630158407248469" y2="-0.9773662567190884" stroke="#9a2b17" stroke-width="0.008" marker-end="url(#arrow)"/><line x1="1.4999999999999998" y1="-0.49999999999999983" x2="1.6631974434263856" y2="-0.6475350617958034" stroke="#9a2b17" stroke-width="0.008" marker-end="url(#arrow)"/><line x1="1.4999999999999998" y1="-0.19999999999999984" x2="1.70732218940377" y2="-0.273603734829336" stroke="#9a2b17" stroke-width="0.008" marker-end="url(#arrow)"/><line x1="1.4999999999999998" y1="0.10000000000000014" x2="1.7133347930108624" y2="0.15374259103367097" stroke="#9a2b17" stroke-width="0.008" marker-end="url(#arrow)"/><line x1="1.4999999999999998" y1="0.40000000000000013" x2="1.657445186207164" y2="0.55365875614553" stroke="#9a2b17" stroke-width="0.008" marker-end="url(#arrow)"/><line x1="1.4999999999999998" y1="0.7000000000000002" x2="1.587500216032302" y2="0.9018507175966946" stroke="#9a2b17" stroke-width="0.008" marker-end="url(#arrow)"/><line x1="1.4999999999999998" y1="1.0000000000000002" x2="1.5141093838636412" y2="1.2195470912742605" stroke="#9a2b17" stroke-width="0.008" marker-end="url(#arrow)"/><line x1="1.4999999999999998" y1="1.3000000000000003" x2="1.4399198606274297" y2="1.5116373711161917" stroke="#9a2b17" stroke-width="0.008" marker-end="url(#arrow)"/><line x1="1.4999999999999998" y1="1.6000000000000003" x2="1.3765915405266729" y2="1.782127296500059" stroke="#9a2b17" stroke-width="0.008" marker-end="url(#arrow)"/><line x1="1.4999999999999998" y1="1.9000000000000004" x2="1.3328797968094384" y2="2.0430763351695367" stroke="#9a2b17" stroke-width="0.008" marker-end="url(#arrow)"/><line x1="1.4999999999999998" y1="2.2" x2="1.307705896030947" y2="2.3068783307258265" stroke="#9a2b17" stroke-width="0.008" marker-end="url(#arrow)"/><line x1="1.4999999999999998" y1="2.5" x2="1.2951868727687483" y2="2.580321746207084" stroke="#9a2b17" stroke-width="0.008" marker-end="url(#arrow)"/><line x1="1.4999999999999998" y1="2.8" x2="1.2900810879344342" y2="2.8658335048224637" stroke="#9a2b17" stroke-width="0.008" marker-end="url(#arrow)"/><line x1="1.7999999999999998" y1="-2" x2="1.9144420148578538" y2="-2.1878909929594146" stroke="#9a2b17" stroke-width="0.008" marker-end="url(#arrow)"/><line x1="1.7999999999999998" y1="-1.7" x2="1.9223138231426053" y2="-1.8828642356182297" stroke="#9a2b17" stroke-width="0.008" marker-end="url(#arrow)"/><line x1="1.7999999999999998" y1="-1.4" x2="1.932811662010721" y2="-1.5753883189780606" stroke="#9a2b17" stroke-width="0.008" marker-end="url(#arrow)"/><line x1="1.7999999999999998" y1="-1.0999999999999999" x2="1.9475955843394426" y2="-1.263142708949859" stroke="#9a2b17" stroke-width="0.008" marker-end="url(#arrow)"/><line x1="1.7999999999999998" y1="-0.7999999999999998" x2="1.9683843051583667" y2="-0.941586460427309" stroke="#9a2b17" stroke-width="0.008" marker-end="url(#arrow)"/><line x1="1.7999999999999998" y1="-0.49999999999999983" x2="1.994503741559892" y2="-0.6028022106727408" stroke="#9a2b17" stroke-width="0.008" marker-end="url(#arrow)"/><line x1="1.7999999999999998" y1="-0.19999999999999984" x2="2.0166436709953692" y2="-0.2382821083229497" stroke="#9a2b17" stroke-width="0.008" marker-end="url(#arrow)"/><line x1="1.7999999999999998" y1="0.10000000000000014" x2="2.015139613078432" y2="0.14598855166737118" stroke="#9a2b17" stroke-width="0.008" marker-end="url(#arrow)"/><line x1="1.7999999999999998" y1="0.40000000000000013" x2="1.9821664821393492" y2="0.5233506091795829" stroke="#9a2b17" stroke-width="0.008" marker-end="url(#arrow)"/><line x1="1.7999999999999998" y1="0.7000000000000002" x2="1.930341400367927" y2="0.8772318237510628" stroke="#9a2b17" stroke-width="0.008" marker-end="url(#arrow)"/><line x1="1.7999999999999998" y1="1.0000000000000002" x2="1.8701904213876674" y2="1.2085025293501777" stroke="#9a2b17" stroke-width="0.008" marker-end="url(#arrow)"/><line x1="1.7999999999999998" y1="1.3000000000000003" x2="1.8072185385582389" y2="1.5198815424292893" stroke="#9a2b17" stroke-width="0.008" marker-end="url(#arrow)"/><line x1="1.7999999999999998" y1="1.6000000000000003" x2="1.7481546234332652" y2="1.8138037813712695" stroke="#9a2b17" stroke-width="0.008" marker-end="url(#arrow)"/><line x1="1.7999999999999998" y1="1.9000000000000004" x2="1.6998256635182165" y2="2.0958701159197966" stroke="#9a2b17" stroke-width="0.008" marker-end="url(#arrow)"/><line x1="1.7999999999999998" y1="2.2" x2="1.6653451615949193" y2="2.373977224067122" stroke="#9a2b17" stroke-width="0.008" marker-end="url(#arrow)"/><line x1="1.7999999999999998" y1="2.5" x2="1.6438319367064356" y2="2.6549565616782242" stroke="#9a2b17" stroke-width="0.008" marker-end="url(#arrow)"/><line x1="1.7999999999999998" y1="2.8" x2="1.632811497413958" y2="2.9429965195486836" stroke="#9a2b17" stroke-width="0.008" marker-end="url(#arrow)"/><line x1="2.0999999999999996" y1="-2" x2="2.2346267151119195" y2="-2.1739989872906564" stroke="#9a2b17" stroke-width="0.008" marker-end="url(#arrow)"/><line x1="2.0999999999999996" y1="-1.7" x2="2.2445272148022584" y2="-1.8658670678028093" stroke="#9a2b17" stroke-width="0.008" marker-end="url(#arrow)"/><line x1="2.0999999999999996" y1="-1.4" x2="2.2567976935884526" y2="-1.5543194196637014" stroke="#9a2b17" stroke-width="0.008" marker-end="url(#arrow)"/><line x1="2.0999999999999996" y1="-1.0999999999999999" x2="2.2720232781220093" y2="-1.2371422319497452" stroke="#9a2b17" stroke-width="0.008" marker-end="url(#arrow)"/><line x1="2.0999999999999996" y1="-0.7999999999999998" x2="2.289953319678132" y2="-0.9109852978698405" stroke="#9a2b17" stroke-width="0.008" marker-end="url(#arrow)"/><line x1="2.0999999999999996" y1="-0.49999999999999983" x2="2.307923907681879" y2="-0.5718863590279633" stroke="#9a2b17" stroke-width="0.008" marker-end="url(#arrow)"/><line x1="2.0999999999999996" y1="-0.19999999999999984" x2="2.3192548938774338" y2="-0.21809119981634809" stroke="#9a2b17" stroke-width="0.008" marker-end="url(#arrow)"/><line x1="2.0999999999999996" y1="0.10000000000000014" x2="2.3153047522244745" y2="0.1452091104707615" stroke="#9a2b17" stroke-width="0.008" marker-end="url(#arrow)"/><line x1="2.0999999999999996" y1="0.40000000000000013" x2="2.2925383516047315" y2="0.5064376961481818" stroke="#9a2b17" stroke-width="0.008" marker-end="url(#arrow)"/><line x1="2.0999999999999996" y1="0.7000000000000002" x2="2.254911173838705" y2="0.8562130859432542" stroke="#9a2b17" stroke-width="0.008" marker-end="url(#arrow)"/><line x1="2.0999999999999996" y1="1.0000000000000002" x2="2.208404316157319" y2="1.191437990583019" stroke="#9a2b17" stroke-width="0.008" marker-end="url(#arrow)"/><line x1="2.0999999999999996" y1="1.3000000000000003" x2="2.1580029090568726" y2="1.5122160751237763" stroke="#9a2b17" stroke-width="0.008" marker-end="url(#arrow)"/><line x1="2.0999999999999996" y1="1.6000000000000003" x2="2.1085112286994643" y2="1.8198352996814333" stroke="#9a2b17" stroke-width="0.008" marker-end="url(#arrow)"/><line x1="2.0999999999999996" y1="1.9000000000000004" x2="2.0646400107650926" y2="2.117139750302213" stroke="#9a2b17" stroke-width="0.008" marker-end="url(#arrow)"/><line x1="2.0999999999999996" y1="2.2" x2="2.029753562421104" y2="2.4084836636465177" stroke="#9a2b17" stroke-width="0.008" marker-end="url(#arrow)"/><line x1="2.0999999999999996" y1="2.5" x2="2.0051261404417033" y2="2.698491689429338" stroke="#9a2b17" stroke-width="0.008" marker-end="url(#arrow)"/><line x1="2.0999999999999996" y1="2.8" x2="1.9904295598750414" y2="2.990772950521878" stroke="#9a2b17" stroke-width="0.008" marker-end="url(#arrow)"/><line x1="2.3999999999999995" y1="-2" x2="2.55157715112066" y2="-2.1594502030671157" stroke="#9a2b17" stroke-width="0.008" marker-end="url(#arrow)"/><line x1="2.3999999999999995" y1="-1.7" x2="2.5621215948431217" y2="-1.848716470121915" stroke="#9a2b17" stroke-width="0.008" marker-end="url(#arrow)"/><line x1="2.3999999999999995" y1="-1.4" x2="2.574307072851369" y2="-1.5342275841769764" stroke="#9a2b17" stroke-width="0.008" marker-end="url(#arrow)"/><line x1="2.3999999999999995" y1="-1.0999999999999999" x2="2.5879827094499848" y2="-1.2142912986532322" stroke="#9a2b17" stroke-width="0.008" marker-end="url(#arrow)"/><line x1="2.3999999999999995" y1="-0.7999999999999998" x2="2.6021189303136425" y2="-0.8868788697490284" stroke="#9a2b17" stroke-width="0.008" marker-end="url(#arrow)"/><line x1="2.3999999999999995" y1="-0.49999999999999983" x2="2.614162600783361" y2="-0.5503426303018276" stroke="#9a2b17" stroke-width="0.008" marker-end="url(#arrow)"/><line x1="2.3999999999999995" y1="-0.19999999999999984" x2="2.619944871040901" y2="-0.20492480484905512" stroke="#9a2b17" stroke-width="0.008" marker-end="url(#arrow)"/><line x1="2.3999999999999995" y1="0.10000000000000014" x2="2.615171425846691" y2="0.14583947533623956" stroke="#9a2b17" stroke-width="0.008" marker-end="url(#arrow)"/><line x1="2.3999999999999995" y1="0.40000000000000013" x2="2.597989614239443" y2="0.49591721771046343" stroke="#9a2b17" stroke-width="0.008" marker-end="url(#arrow)"/><line x1="2.3999999999999995" y1="0.7000000000000002" x2="2.569893330411461" y2="0.839772158464059" stroke="#9a2b17" stroke-width="0.008" marker-end="url(#arrow)"/><line x1="2.3999999999999995" y1="1.0000000000000002" x2="2.534197323634909" y2="1.174330371218636" stroke="#9a2b17" stroke-width="0.008" marker-end="url(#arrow)"/><line x1="2.3999999999999995" y1="1.3000000000000003" x2="2.4945277574715536" y2="1.498656746845908" stroke="#9a2b17" stroke-width="0.008" marker-end="url(#arrow)"/><line x1="2.3999999999999995" y1="1.6000000000000003" x2="2.4544567727119313" y2="1.8131536063635827" stroke="#9a2b17" stroke-width="0.008" marker-end="url(#arrow)"/><line x1="2.3999999999999995" y1="1.9000000000000004" x2="2.4173649972940963" y2="2.1193136039304816" stroke="#9a2b17" stroke-width="0.008" marker-end="url(#arrow)"/><line x1="2.3999999999999995" y1="2.2" x2="2.3859809240490053" y2="2.419552876340713" stroke="#9a2b17" stroke-width="0.008" marker-end="url(#arrow)"/><line x1="2.3999999999999995" y1="2.5" x2="2.361948749956547" y2="2.716684338082222" stroke="#9a2b17" stroke-width="0.008" marker-end="url(#arrow)"/><line x1="2.3999999999999995" y1="2.8" x2="2.345801830662092" y2="3.0132195076451014" stroke="#9a2b17" stroke-width="0.008" marker-end="url(#arrow)"/><line x1="2.6999999999999993" y1="-2" x2="2.86534087486599" y2="-2.145128891329565" stroke="#9a2b17" stroke-width="0.008" marker-end="url(#arrow)"/><line x1="2.6999999999999993" y1="-1.7" x2="2.875624028630959" y2="-1.832499813461875" stroke="#9a2b17" stroke-width="0.008" marker-end="url(#arrow)"/><line x1="2.6999999999999993" y1="-1.4" x2="2.886793328139742" y2="-1.5162250083350326" stroke="#9a2b17" stroke-width="0.008" marker-end="url(#arrow)"/><line x1="2.6999999999999993" y1="-1.0999999999999999" x2="2.8983520957381597" y2="-1.1951653619563316" stroke="#9a2b17" stroke-width="0.008" marker-end="url(#arrow)"/><line x1="2.6999999999999993" y1="-0.7999999999999998" x2="2.9091527143057823" y2="-0.8682286017629219" stroke="#9a2b17" stroke-width="0.008" marker-end="url(#arrow)"/><line x1="2.6999999999999993" y1="-0.49999999999999983" x2="2.9172172203131197" y2="-0.5348809288787049" stroke="#9a2b17" stroke-width="0.008" marker-end="url(#arrow)"/><line x1="2.6999999999999993" y1="-0.19999999999999984" x2="2.9199608713472642" y2="-0.19585089453593524" stroke="#9a2b17" stroke-width="0.008" marker-end="url(#arrow)"/><line x1="2.6999999999999993" y1="0.10000000000000014" x2="2.9150367355837297" y2="0.14646721800896637" stroke="#9a2b17" stroke-width="0.008" marker-end="url(#arrow)"/><line x1="2.6999999999999993" y1="0.40000000000000013" x2="2.901405894129775" y2="0.48851929625672363" stroke="#9a2b17" stroke-width="0.008" marker-end="url(#arrow)"/><line x1="2.6999999999999993" y1="0.7000000000000002" x2="2.879757965130632" y2="0.826834829491328" stroke="#9a2b17" stroke-width="0.008" marker-end="url(#arrow)"/><line x1="2.6999999999999993" y1="1.0000000000000002" x2="2.8520367832125553" y2="1.1590120012778227" stroke="#9a2b17" stroke-width="0.008" marker-end="url(#arrow)"/><line x1="2.6999999999999993" y1="1.3000000000000003" x2="2.8207349213144712" y2="1.48391051839193" stroke="#9a2b17" stroke-width="0.008" marker-end="url(#arrow)"/><line x1="2.6999999999999993" y1="1.6000000000000003" x2="2.788466823862701" y2="1.8014289479584449" stroke="#9a2b17" stroke-width="0.008" marker-end="url(#arrow)"/><line x1="2.6999999999999993" y1="1.9000000000000004" x2="2.7577222605091376" y2="2.1122925826347103" stroke="#9a2b17" stroke-width="0.008" marker-end="url(#arrow)"/><line x1="2.6999999999999993" y1="2.2" x2="2.730603416194301" y2="2.417861035794009" stroke="#9a2b17" stroke-width="0.008" marker-end="url(#arrow)"/><line x1="2.6999999999999993" y1="2.5" x2="2.7085807314467334" y2="2.7198325977825832" stroke="#9a2b17" stroke-width="0.008" marker-end="url(#arrow)"/><line x1="2.6999999999999993" y1="2.8" x2="2.6923929851086448" y2="3.0198684454951246" stroke="#9a2b17" stroke-width="0.008" marker-end="url(#arrow)"/><line x1="2.999999999999999" y1="-2" x2="3.1762945331070025" y2="-2.1316063736928563" stroke="#9a2b17" stroke-width="0.008" marker-end="url(#arrow)"/><line x1="2.999999999999999" y1="-1.7" x2="3.18582856336273" y2="-1.817761390270935" stroke="#9a2b17" stroke-width="0.008" marker-end="url(#arrow)"/><line x1="2.999999999999999" y1="-1.4" x2="3.195645000758428" y2="-1.5006132877816567" stroke="#9a2b17" stroke-width="0.008" marker-end="url(#arrow)"/><line x1="2.999999999999999" y1="-1.0999999999999999" x2="3.2051498387341093" y2="-1.17945781061273" stroke="#9a2b17" stroke-width="0.008" marker-end="url(#arrow)"/><line x1="2.999999999999999" y1="-0.7999999999999998" x2="3.213327828761116" y2="-0.8537702285290626" stroke="#9a2b17" stroke-width="0.008" marker-end="url(#arrow)"/><line x1="2.999999999999999" y1="-0.49999999999999983" x2="3.21873988675626" y2="-0.5235130164346921" stroke="#9a2b17" stroke-width="0.008" marker-end="url(#arrow)"/><line x1="2.999999999999999" y1="-0.19999999999999984" x2="3.2197470359929072" y2="-0.189452954331593" stroke="#9a2b17" stroke-width="0.008" marker-end="url(#arrow)"/><line x1="2.999999999999999" y1="0.10000000000000014" x2="3.2149781141462372" y2="0.14673767685847344" stroke="#9a2b17" stroke-width="0.008" marker-end="url(#arrow)"/><line x1="2.999999999999999" y1="0.40000000000000013" x2="3.2038319936354966" y2="0.48277993942120634" stroke="#9a2b17" stroke-width="0.008" marker-end="url(#arrow)"/><line x1="2.999999999999999" y1="0.7000000000000002" x2="3.1866973759285675" y2="0.816379078108511" stroke="#9a2b17" stroke-width="0.008" marker-end="url(#arrow)"/><line x1="2.999999999999999" y1="1.0000000000000002" x2="3.1647926399733" y2="1.1457511091231558" stroke="#9a2b17" stroke-width="0.008" marker-end="url(#arrow)"/><line x1="2.999999999999999" y1="1.3000000000000003" x2="3.1398252698855207" y2="1.4698496214344945" stroke="#9a2b17" stroke-width="0.008" marker-end="url(#arrow)"/><line x1="2.999999999999999" y1="1.6000000000000003" x2="3.113686009657939" y2="1.7883493860039235" stroke="#9a2b17" stroke-width="0.008" marker-end="url(#arrow)"/><line x1="2.999999999999999" y1="1.9000000000000004" x2="3.0882198098515055" y2="2.1015372549921336" stroke="#9a2b17" stroke-width="0.008" marker-end="url(#arrow)"/><line x1="2.999999999999999" y1="2.2" x2="3.0650322571022444" y2="2.4101685169957374" stroke="#9a2b17" stroke-width="0.008" marker-end="url(#arrow)"/><line x1="2.999999999999999" y1="2.5" x2="3.0453298217391396" y2="2.715279370263613" stroke="#9a2b17" stroke-width="0.008" marker-end="url(#arrow)"/><line x1="2.999999999999999" y1="2.8" x2="3.0298306672635245" y2="3.0179681887125107" stroke="#9a2b17" stroke-width="0.008" marker-end="url(#arrow)"/></g><g><circle cx="-1" cy="0" r="0.08" fill="#9a2b17" cursor="grab"/><circle cx="1" cy="0" r="0.08" fill="#9a2b17" cursor="grab"/><circle cx="0" cy="1.2" r="0.08" fill="#9a2b17" cursor="grab"/></g><g id="textGroup"/></svg>