<svg xmlns="http://www.w3.org/2000/svg" id="canvas" viewBox="-3 -2 6 5"><defs>
<marker id="arrow" markerWidth="6" markerHeight="6" refX="5" refY="3" orient="auto" markerUnits="strokeWidth">
<path d="M0,0 L0,6 L6,3 z" fill="#9a2b17"/>
</marker>
</defs><g><path d="M-1.0268456375838926,-0.26172934455717906 L-1.0585416408889687,-0.25503355704697994 L-1.0671140939597314,-0.2534831433593831 L-1.1073825503355705,-0.23964572320412253 L-1.1395671193470285,-0.2214765100671141 L-1.1476510067114094,-0.21669132036020933 L-1.1832707414873243,-0.18791946308724827 L-1.1879194630872483,-0.18336904849286306 L-1.2138837458265919,-0.15436241610738266 L-1.2281879194630871,-0.13197034348529618 L-1.2353929905450667,-0.12080536912751683 L-1.2516200616485451,-0.08724832214765099 L-1.2617127630240454,-0.05369127516778516 L-1.2671528220157895,-0.020134228187919545 L-1.2684563758389262,0.005504080011288843 L-1.2689909266482644,0.013422818791946511 L-1.2684563758389262,0.021435539434942 L-1.2671224445831342,0.0469798657718119 L-1.2616575608043523,0.08053691275167774 L-1.2516735177477925,0.11409395973154357 L-1.2360520894071039,0.1476510067114094 L-1.2281879194630871,0.1607150391008167 L-1.215430799976365,0.18120805369127524 L-1.1879194630872483,0.2139990044438817 L-1.18716425348389,0.21476510067114107 L-1.1492206436134753,0.2483221476510069 L-1.1476510067114094,0.24960378338876232 L-1.1073825503355705,0.27519041492778723 L-1.0911368346575692,0.2818791946308723 L-1.0671140939597314,0.29281028270324505 L-1.0268456375838926,0.30393470257063426 L-0.9865771812080535,0.30888834085280326 L-0.9463087248322148,0.30847095663408197 L-0.9060402684563758,0.3023539845166903 L-0.8657718120805371,0.2889768370750996 L-0.8518412212957852,0.2818791946308723 L-0.825503355704698,0.26790685981298434 L-0.8000242795966859,0.2483221476510069 L-0.7852348993288589,0.2349948904122725 L-0.7669102871594801,0.21476510067114107 L-0.7449664429530203,0.1819843695325593 L-0.7444847679051488,0.18120805369127524 L-0.7270941709758073,0.1476510067114094 L-0.7158291560913789,0.11409395973154357 L-0.7092761775605458,0.08053691275167774 L-0.7065055025422406,0.0469798657718119 L-0.7070421630123483,0.013422818791946511 L-0.7108886475739223,-0.020134228187919545 L-0.7185567955625733,-0.05369127516778516 L-0.731082199847961,-0.08724832214765099 L-0.7449664429530203,-0.11264025610053192 L-0.7489609391307,-0.12080536912751683 L-0.7717225416039675,-0.15436241610738266 L-0.7852348993288589,-0.16938947183584466 L-0.8032326765599408,-0.18791946308724827 L-0.825503355704698,-0.20645205761580723 L-0.8483260310292514,-0.2214765100671141 L-0.8657718120805371,-0.231966545289406 L-0.9060402684563758,-0.2490273501115236 L-0.9309286068219456,-0.25503355704697994 L-0.9463087248322148,-0.25914242697225987 L-0.9865771812080535,-0.26362744894411516 L-1.0268456375838926,-0.26172934455717906" fill="none" stroke="#444" stroke-width="0.01"/><path d="M-0.261744966442953,0.6133253148647814 L-0.27519005018289255,0.6174496644295302 L-0.30201342281879207,0.6257683683751202 L-0.3422818791946307,0.6419548273341871 L-0.36065701807433526,0.651006711409396 L-0.3825503355704698,0.6623694571864308 L-0.41755918243584056,0.6845637583892619 L-0.4228187919463089,0.6881703903068572 L-0.4604969956199701,0.7181208053691277 L-0.46308724832214754,0.7204122364289435 L-0.49488735568303927,0.7516778523489931 L-0.5033557046979866,0.7612307530312165 L-0.5231850690040439,0.7852348993288589 L-0.5436241610738257,0.8145672324302622 L-0.546449717328863,0.8187919463087248 L-0.5666619975347085,0.8523489932885906 L-0.5830814157812939,0.8859060402684564 L-0.5838926174496644,0.88779100408096 L-0.5977306675932481,0.9194630872483223 L-0.6096915130650243,0.9530201342281881 L-0.6192467475012964,0.9865771812080535 L-0.6241610738255035,1.0082984790026457 L-0.6270072010083559,1.0201342281879193 L-0.6333074656573091,1.0536912751677852 L-0.637709016064153,1.087248322147651 L-0.6403216197271823,1.1208053691275168 L-0.6412111345997668,1.1543624161073827 L-0.6404004967786724,1.1879194630872485 L-0.6378699549158146,1.2214765100671139 L-0.6335570308560977,1.2550335570469797 L-0.6273565166160912,1.2885906040268456 L-0.6241610738255035,1.3018004749525076 L-0.619714823962977,1.3221476510067114 L-0.6104262676949106,1.3557046979865772 L-0.5988502900724626,1.389261744966443 L-0.5846882786354612,1.422818791946309 L-0.5838926174496644,1.4244694052176132 L-0.5692554819056784,1.4563758389261743 L-0.5506737983491015,1.4899328859060401 L-0.5436241610738257,1.501110553092618 L-0.5297324829839963,1.523489932885906 L-0.5052238673301086,1.5570469798657718 L-0.5033557046979866,1.5593759303389603 L-0.4777543279044088,1.5906040268456376 L-0.46308724832214754,1.6063818162305128 L-0.4457206898221785,1.6241610738255035 L-0.4228187919463089,1.6453552892925665 L-0.4083409466326083,1.6577181208053693 L-0.3825503355704698,1.678145008686465 L-0.3639659246865651,1.6912751677852347 L-0.3422818791946307,1.705856842769418 L-0.3094695753794872,1.7248322147651005 L-0.30201342281879207,1.7290399512220476 L-0.261744966442953,1.7487165082226321 L-0.2372546836430083,1.7583892617449663 L-0.22147651006711389,1.7647131978151946 L-0.18120805369127524,1.7777793436413174 L-0.14093959731543615,1.787481700469594 L-0.11450996967460511,1.7919463087248322 L-0.1006711409395975,1.7944480457900907 L-0.06040268456375841,1.798922101831437 L-0.020134228187919323,1.8005638754324524 L0.020134228187919323,1.7994233518982097 L0.06040268456375841,1.7954456722343186 L0.08087366959296809,1.7919463087248322 L0.1006711409395975,1.7888270558126733 L0.14093959731543615,1.7795829195572828 L0.18120805369127524,1.7669294054111029 L0.20261358893986428,1.7583892617449663 L0.22147651006711389,1.7510747476266724 L0.261744966442953,1.731628643375981 L0.273598649238231,1.7248322147651005 L0.30201342281879207,1.708314651025904 L0.3267988916013935,1.6912751677852347 L0.3422818791946307,1.6801830841625633 L0.3697758859183504,1.6577181208053693 L0.3825503355704698,1.6465115136022925 L0.4056738148984652,1.6241610738255035 L0.4228187919463089,1.6057996936258097 L0.4361211505197629,1.5906040268456376 L0.4619226118160994,1.5570469798657718 L0.46308724832214754,1.5553636498949006 L0.48467039726658967,1.523489932885906 L0.5033557046979866,1.489992907606139 L0.5033893568548659,1.4899328859060401 L0.5202073237757601,1.4563758389261743 L0.5338246803307221,1.422818791946309 L0.5436241610738257,1.3925372430198877 L0.5447453262753589,1.389261744966443 L0.5541907469004087,1.3557046979865772 L0.5612288202392081,1.3221476510067114 L0.5660558220965491,1.2885906040268456 L0.5688157810378488,1.2550335570469797 L0.5695970339884033,1.2214765100671139 L0.5684299438549848,1.1879194630872485 L0.5652860950006987,1.1543624161073827 L0.560079272099782,1.1208053691275168 L0.5526685154453512,1.087248322147651 L0.5436241610738257,1.05621474427028 L0.5429549327872427,1.0536912751677852 L0.531934491321955,1.0201342281879193 L0.5181580821722112,0.9865771812080535 L0.5033557046979866,0.9569148054682692 L0.5014990953779206,0.9530201342281881 L0.4830518129549087,0.9194630872483223 L0.46308724832214754,0.8891498891876953 L0.46096280374115395,0.8859060402684564 L0.4363509886180653,0.8523489932885906 L0.4228187919463089,0.8361042274462028 L0.40786869792648983,0.8187919463087248 L0.3825503355704698,0.7924451507560446 L0.37514339962683624,0.7852348993288589 L0.3422818791946307,0.7555991897562767 L0.3374834208854663,0.7516778523489931 L0.30201342281879207,0.7239853539349304 L0.2934604889389487,0.7181208053691277 L0.261744966442953,0.696720032048986 L0.24062664536812892,0.6845637583892619 L0.22147651006711389,0.6734154087563071 L0.18120805369127524,0.6537362130127476 L0.17448076642135235,0.651006711409396 L0.14093959731543615,0.6366487927238296 L0.1006711409395975,0.622906830333112 L0.08013937896636739,0.6174496644295302 L0.06040268456375841,0.6117104899129838 L0.020134228187919323,0.6029010805637113 L-0.020134228187919323,0.5968132714195156 L-0.06040268456375841,0.5932485330091573 L-0.1006711409395975,0.5921040001681472 L-0.14093959731543615,0.5933774436134137 L-0.18120805369127524,0.597172081571569 L-0.22147651006711389,0.6037051099707299 L-0.261744966442953,0.6133253148647814" fill="none" stroke="#444" stroke-width="0.01"/><path d="M-1.0671140939597314,-0.33156606304864267 L-1.099207083708756,-0.3221476510067114 L-1.1073825503355705,-0.31994169950423873 L-1.1476510067114094,-0.30375834044191985 L-1.1743850540386374,-0.28859060402684555 L-1.1879194630872483,-0.2806227553862402 L-1.22183804035561,-0.25503355704697994 L-1.2281879194630871,-0.24963842889047763 L-1.256956653024231,-0.2214765100671141 L-1.2684563758389262,-0.2076848148493991 L-1.284149720748134,-0.18791946308724827 L-1.3049063945813542,-0.15436241610738266 L-1.308724832214765,-0.14641448881671332 L-1.3218808814540628,-0.12080536912751683 L-1.3345269833042723,-0.08724832214765099 L-1.3430886818488823,-0.05369127516778516 L-1.348308400621999,-0.020134228187919545 L-1.348993288590604,-0.010475684168068877 L-1.351090020260709,0.013422818791946511 L-1.35077305500629,0.0469798657718119 L-1.348993288590604,0.0642204196438296 L-1.347559856956058,0.08053691275167774 L-1.3418400073136414,0.11409395973154357 L-1.3328995809596793,0.1476510067114094 L-1.3202835514116489,0.18120805369127524 L-1.308724832214765,0.20518474311447243 L-1.304128002431786,0.21476510067114107 L-1.2847108356379808,0.2483221476510069 L-1.2684563758389262,0.27150101958117084 L-1.26052989062681,0.2818791946308723 L-1.2314691235793913,0.31543624161073813 L-1.2281879194630871,0.31902754273645 L-1.196278647820752,0.34899328859060397 L-1.1879194630872483,0.3566107706774933 L-1.1532593191858236,0.3825503355704698 L-1.1476510067114094,0.3868924898408493 L-1.1073825503355705,0.41219268072130977 L-1.0993219773441087,0.41610738255033564 L-1.0671140939597314,0.4339503149714379 L-1.0304128252907803,0.44966442953020147 L-1.0268456375838926,0.4514874390290418 L-0.9865771812080535,0.46794385877197225 L-0.9463087248322148,0.4814346568032619 L-0.9396671263041813,0.4832214765100673 L-0.9060402684563758,0.49550232714110315 L-0.8657718120805371,0.5096480495360428 L-0.8460850993181362,0.5167785234899327 L-0.825503355704698,0.5286428712035425 L-0.7961251695061066,0.5503355704697985 L-0.7852348993288589,0.567101054438778 L-0.7767738129043202,0.5838926174496644 L-0.7703496045480109,0.6174496644295302 L-0.76988157439193,0.651006711409396 L-0.7724080857062166,0.6845637583892619 L-0.7764759772628748,0.7181208053691277 L-0.7812681211308823,0.7516778523489931 L-0.7852348993288589,0.7776969642490364 L-0.7863471037699912,0.7852348993288589 L-0.7916024341489792,0.8187919463087248 L-0.796568208556351,0.8523489932885906 L-0.8010666545266966,0.8859060402684564 L-0.8049687671459611,0.9194630872483223 L-0.8081791106275334,0.9530201342281881 L-0.8106249489836339,0.9865771812080535 L-0.8122480112079552,1.0201342281879193 L-0.8129979742742933,1.0536912751677852 L-0.812827147031713,1.087248322147651 L-0.811686052776484,1.1208053691275168 L-0.8095197276627418,1.1543624161073827 L-0.8062646199926309,1.1879194630872485 L-0.8018460141797129,1.2214765100671139 L-0.7961759247892283,1.2550335570469797 L-0.7891514173063353,1.2885906040268456 L-0.7852348993288589,1.304177149047917 L-0.7810908198918594,1.3221476510067114 L-0.7719181862774724,1.3557046979865772 L-0.7610904856138216,1.389261744966443 L-0.7484243614730136,1.422818791946309 L-0.7449664429530203,1.4309356438144314 L-0.7347101357119431,1.4563758389261743 L-0.7191241829045475,1.4899328859060401 L-0.7046979865771812,1.517035093497932 L-0.7013826762031747,1.523489932885906 L-0.6821972277249317,1.5570469798657718 L-0.6644295302013421,1.58421289813367 L-0.660303124951503,1.5906040268456376 L-0.6363951934896103,1.6241610738255035 L-0.6241610738255035,1.6395854027418464 L-0.6096017176487117,1.6577181208053693 L-0.5838926174496644,1.686499586072816 L-0.5794956693487344,1.6912751677852347 L-0.545838085805989,1.7248322147651005 L-0.5436241610738257,1.7268951334818192 L-0.5078023376688774,1.7583892617449663 L-0.5033557046979866,1.762053562953287 L-0.46409162968491924,1.7919463087248322 L-0.46308724832214754,1.7926745231991128 L-0.4228187919463089,1.8195993965455322 L-0.412879696811269,1.825503355704698 L-0.3825503355704698,1.8430936708321364 L-0.3506415204686237,1.8590604026845639 L-0.3422818791946307,1.863210619225475 L-0.30201342281879207,1.8807721599979548 L-0.26909831507397003,1.8926174496644297 L-0.261744966442953,1.8953107749540141 L-0.22147651006711389,1.9077668746293557 L-0.18120805369127524,1.9175126604380457 L-0.14093959731543615,1.924781634617663 L-0.12988751088582295,1.9261744966442955 L-0.1006711409395975,1.9300973741303773 L-0.06040268456375841,1.933198936977964 L-0.020134228187919323,1.9340253920621782 L0.020134228187919323,1.9325874370346725 L0.06040268456375841,1.9288378755595665 L0.07798119876899248,1.9261744966442955 L0.1006711409395975,1.92297158668823 L0.14093959731543615,1.914944658777534 L0.18120805369127524,1.904280044963172 L0.2159374888571091,1.8926174496644297 L0.22147651006711389,1.8908245512553907 L0.261744966442953,1.8751691464786475 L0.29569951918919885,1.8590604026845639 L0.30201342281879207,1.8560928046724117 L0.3422818791946307,1.8341520900087493 L0.3560690106164898,1.825503355704698 L0.3825503355704698,1.8085465695456662 L0.4053730567031771,1.7919463087248322 L0.4228187919463089,1.7787418078498272 L0.4470613129141429,1.7583892617449663 L0.46308724832214754,1.744096887755951 L0.4830138963470993,1.7248322147651005 L0.5033557046979866,1.7034832707813954 L0.5143231428782372,1.6912751677852347 L0.5416662565676396,1.6577181208053693 L0.5436241610738257,1.655103992563531 L0.5661183940546823,1.6241610738255035 L0.5838926174496644,1.5959093808620706 L0.5871951373458,1.5906040268456376 L0.6061696774486779,1.5570469798657718 L0.6221621523392342,1.523489932885906 L0.6241610738255035,1.5187278815578023 L0.6365688698317776,1.4899328859060401 L0.6486857994483177,1.4563758389261743 L0.658558656657648,1.422818791946309 L0.6644295302013421,1.3979460091753366 L0.6666056630116957,1.389261744966443 L0.6732622057280042,1.3557046979865772 L0.6780292640740617,1.3221476510067114 L0.6809993368430967,1.2885906040268456 L0.6822330376455161,1.2550335570469797 L0.681757632226267,1.2214765100671139 L0.6795661299863095,1.1879194630872485 L0.6756170750175184,1.1543624161073827 L0.6698351997634077,1.1208053691275168 L0.6644295302013421,1.097205735804377 L0.6623598538092544,1.087248322147651 L0.6535680256648743,1.0536912751677852 L0.6426891875954818,1.0201342281879193 L0.6295185823690007,0.9865771812080535 L0.6241610738255035,0.9748087595653273 L0.6148041938258656,0.9530201342281881 L0.5979511143662126,0.9194630872483223 L0.5838926174496644,0.8952447590540505 L0.5786504464163181,0.8859060402684564 L0.5574261656610369,0.8523489932885906 L0.5436241610738257,0.8330279067169429 L0.533519482888615,0.8187919463087248 L0.5069158058105546,0.7852348993288589 L0.5033557046979866,0.7810653685915808 L0.47774762646787877,0.7516778523489931 L0.46308724832214754,0.7361944291798007 L0.44526825013328714,0.7181208053691277 L0.4228187919463089,0.6967344095879744 L0.40924160501972356,0.6845637583892619 L0.3825503355704698,0.6616164530808636 L0.3691721356340838,0.651006711409396 L0.3422818791946307,0.6301234577130875 L0.3242627710011046,0.6174496644295302 L0.30201342281879207,0.6018154296676171 L0.27339861193866954,0.5838926174496644 L0.261744966442953,0.5764632162239747 L0.22147651006711389,0.5537076255249785 L0.21465512646858811,0.5503355704697985 L0.18120805369127524,0.5330139882323376 L0.14460741075514758,0.5167785234899327 L0.14093959731543615,0.5150496225533097 L0.1006711409395975,0.49855736840188825 L0.06040268456375841,0.4846197381135687 L0.055586960093001576,0.4832214765100673 L0.020134228187919323,0.47190627694614246 L-0.020134228187919323,0.4611468954108794 L-0.06040268456375841,0.4522081909898219 L-0.07460710637708791,0.44966442953020147 L-0.1006711409395975,0.4443936071601915 L-0.14093959731543615,0.437832963593136 L-0.18120805369127524,0.4325455590095125 L-0.22147651006711389,0.42831123448021424 L-0.261744966442953,0.4248967198467062 L-0.30201342281879207,0.4220349254111841 L-0.3422818791946307,0.41939183956024195 L-0.3825503355704698,0.4165078678128051 L-0.387354459317708,0.41610738255033564 L-0.4228187919463089,0.4123707508609912 L-0.46308724832214754,0.4057323657944736 L-0.5033557046979866,0.3935025963925311 L-0.5234467185515772,0.3825503355704698 L-0.5436241610738257,0.36323830707940513 L-0.5524325747645,0.34899328859060397 L-0.5632180392592601,0.31543624161073813 L-0.5679233297482009,0.2818791946308723 L-0.5700439584996677,0.2483221476510069 L-0.5712232231533149,0.21476510067114107 L-0.5723740786144285,0.18120805369127524 L-0.5740796001717174,0.1476510067114094 L-0.5767682042028599,0.11409395973154357 L-0.580805944652971,0.08053691275167774 L-0.5838926174496644,0.06292676359563987 L-0.5860774725278226,0.0469798657718119 L-0.5925135361559282,0.013422818791946511 L-0.6010983886033867,-0.020134228187919545 L-0.6123980777048302,-0.05369127516778516 L-0.6241610738255035,-0.08071206641775909 L-0.6265813338705699,-0.08724832214765099 L-0.6424036681938651,-0.12080536912751683 L-0.663277673636476,-0.15436241610738266 L-0.6644295302013421,-0.15593573167548644 L-0.6868300258526147,-0.18791946308724827 L-0.7046979865771812,-0.20814628902761007 L-0.7167355709422794,-0.2214765100671141 L-0.7449664429530203,-0.247408742002193 L-0.7542062159067227,-0.25503355704697994 L-0.7852348993288589,-0.2776393146654888 L-0.8037591289708002,-0.28859060402684555 L-0.825503355704698,-0.30075047353683115 L-0.8657718120805371,-0.31767474344561714 L-0.8811806085644692,-0.3221476510067114 L-0.9060402684563758,-0.3297752597589532 L-0.9463087248322148,-0.33722893173734697 L-0.9865771812080535,-0.3399347414205046 L-1.0268456375838926,-0.3381254876533137 L-1.0671140939597314,-0.33156606304864267" fill="none" stroke="#444" stroke-width="0.01"/><path d="M-1.0671140939597314,-0.4637176575351333 L-1.100875020190383,-0.4563758389261745 L-1.1073825503355705,-0.45506865830293874 L-1.1476510067114094,-0.4435876339336834 L-1.1879194630872483,-0.42770085065207747 L-1.197954096578322,-0.42281879194630867 L-1.2281879194630871,-0.4080754056833499 L-1.2590677027107406,-0.38926174496644306 L-1.2684563758389262,-0.383309457589651 L-1.305353733631428,-0.3557046979865772 L-1.308724832214765,-0.3529706370818809 L-1.3427086349443378,-0.3221476510067114 L-1.348993288590604,-0.3157069252882346 L-1.3738446322090143,-0.28859060402684555 L-1.389261744966443,-0.2688265237010437 L-1.3998093280769903,-0.25503355704697994 L-1.4217559519570007,-0.2214765100671141 L-1.429530201342282,-0.20720154126824308 L-1.4404212650260433,-0.18791946308724827 L-1.456113317910215,-0.15436241610738266 L-1.4684540283736496,-0.12080536912751683 L-1.4697986577181208,-0.11625889443118419 L-1.479286451203221,-0.08724832214765099 L-1.4876516697835949,-0.05369127516778516 L-1.4936587186293895,-0.020134228187919545 L-1.4975496015593104,0.013422818791946511 L-1.4994941937955957,0.0469798657718119 L-1.4995952328840167,0.08053691275167774 L-1.4978970279389594,0.11409395973154357 L-1.4943976083944326,0.1476510067114094 L-1.489063708702618,0.18120805369127524 L-1.4818476878576623,0.21476510067114107 L-1.4727052306629471,0.2483221476510069 L-1.4697986577181208,0.257526166212243 L-1.4623124421991194,0.2818791946308723 L-1.4501892735680253,0.31543624161073813 L-1.4360781995823904,0.34899328859060397 L-1.429530201342282,0.3633147321812185 L-1.4205843745148747,0.3825503355704698 L-1.403583685750893,0.41610738255033564 L-1.389261744966443,0.44227217369556704 L-1.3850456504613458,0.44966442953020147 L-1.3655140166055504,0.4832214765100673 L-1.348993288590604,0.5104060018363118 L-1.3449108921275632,0.5167785234899327 L-1.3238125886599048,0.5503355704697985 L-1.308724832214765,0.5744102732178962 L-1.3024782584957861,0.5838926174496644 L-1.2814384397400154,0.6174496644295302 L-1.2684563758389262,0.6391416853306906 L-1.261107712713033,0.651006711409396 L-1.2419168910397806,0.6845637583892619 L-1.2281879194630871,0.7105377024042987 L-1.2241364508634982,0.7181208053691277 L-1.2079971218303536,0.7516778523489931 L-1.193439492595103,0.7852348993288589 L-1.1879194630872483,0.7993478854682918 L-1.1804941177418176,0.8187919463087248 L-1.169010433395573,0.8523489932885906 L-1.1586641475664443,0.8859060402684564 L-1.1492225155629927,0.9194630872483223 L-1.1476510067114094,0.9254350445350451 L-1.1407707668795222,0.9530201342281881 L-1.132893451244686,0.9865771812080535 L-1.1253299246347228,1.0201342281879193 L-1.117900096272385,1.0536912751677852 L-1.1104409772491275,1.087248322147651 L-1.1073825503355705,1.1006437569339582 L-1.1030762447945894,1.1208053691275168 L-1.0956157924667964,1.1543624161073827 L-1.087756973058455,1.1879194630872485 L-1.0793803285908734,1.2214765100671139 L-1.0703709629785572,1.2550335570469797 L-1.0671140939597314,1.2662859557492652 L-1.0610517778637796,1.2885906040268456 L-1.0511486045205305,1.3221476510067114 L-1.0403300192263607,1.3557046979865772 L-1.0284798085284697,1.389261744966443 L-1.0268456375838926,1.3935475802017516 L-1.0162486239003894,1.422818791946309 L-1.0029054647644209,1.4563758389261743 L-0.9882033245257685,1.4899328859060401 L-0.9865771812080535,1.493387071130902 L-0.9729588284289409,1.523489932885906 L-0.9562145546428433,1.5570469798657718 L-0.9463087248322148,1.5752945620997325 L-0.9382426154796797,1.5906040268456376 L-0.9190014237728706,1.6241610738255035 L-0.9060402684563758,1.644873492755194 L-0.8981468696015702,1.6577181208053693 L-0.8757900187669554,1.6912751677852347 L-0.8657718120805371,1.7051907501655081 L-0.8516998762582527,1.7248322147651005 L-0.825503355704698,1.7582531529897474 L-0.8253962216905596,1.7583892617449663 L-0.7973987620680207,1.7919463087248322 L-0.7852348993288589,1.8054508658154618 L-0.7668158531453071,1.825503355704698 L-0.7449664429530203,1.8476964725293883 L-0.7334308231178137,1.8590604026845639 L-0.7046979865771812,1.8856869808179941 L-0.6968945139620362,1.8926174496644297 L-0.6644295302013421,1.9199807769013928 L-0.65666352138367,1.9261744966442955 L-0.6241610738255035,1.9510032991109243 L-0.6119212576784454,1.959731543624161 L-0.5838926174496644,1.9790575361088005 L-0.5614632482269023,1.9932885906040267 L-0.5436241610738257,2.0043368935589987 L-0.503524503977135,2.026845637583893 L-0.5033557046979866,2.026938992245333 L-0.46308724832214754,2.047560075937394 L-0.43455249022776554,2.0604026845637584 L-0.4228187919463089,2.065684036330059 L-0.3825503355704698,2.081906146633345 L-0.3476809103015508,2.093959731543624 L-0.3422818791946307,2.095854404352355 L-0.30201342281879207,2.1082587635927195 L-0.261744966442953,2.1185635089356367 L-0.22147651006711389,2.126909187616906 L-0.21780334833980292,2.12751677852349 L-0.18120805369127524,2.1338337361968005 L-0.14093959731543615,2.138958870447691 L-0.1006711409395975,2.1423105632353523 L-0.06040268456375841,2.143932396850036 L-0.020134228187919323,2.1438423022370303 L0.020134228187919323,2.142031191660443 L0.06040268456375841,2.1384618304765985 L0.1006711409395975,2.1330679383817666 L0.1313665397759704,2.12751677852349 L0.14093959731543615,2.1258728610686335 L0.18120805369127524,2.1171296332670515 L0.22147651006711389,2.1062921989754715 L0.2593825897356805,2.093959731543624 L0.261744966442953,2.093214573103697 L0.30201342281879207,2.078529558607833 L0.3422818791946307,2.061139225998659 L0.3438097552133986,2.0604026845637584 L0.3825503355704698,2.0418558678087977 L0.40987017552382704,2.026845637583893 L0.4228187919463089,2.0197074177908774 L0.46308724832214754,1.9947260946202892 L0.4652093583776872,1.9932885906040267 L0.5033557046979866,1.9668666025411883 L0.5127365001270465,1.959731543624161 L0.5436241610738257,1.9354158803028416 L0.5544659078429036,1.9261744966442955 L0.5838926174496644,1.8998768244437234 L0.5914984755340158,1.8926174496644297 L0.6241610738255035,1.8594871915649738 L0.624560320108468,1.8590604026845639 L0.6544668900518913,1.825503355704698 L0.6644295302013421,1.813363075958498 L0.681400337105326,1.7919463087248322 L0.7046979865771812,1.759474949085956 L0.7054595946365231,1.7583892617449663 L0.7275897353806926,1.7248322147651005 L0.7449664429530203,1.6949552469565208 L0.7470955381139854,1.6912751677852347 L0.7650542961726192,1.6577181208053693 L0.7806864298599245,1.6241610738255035 L0.7852348993288589,1.6132414908506674 L0.7948328592878449,1.5906040268456376 L0.8072797127900222,1.5570469798657718 L0.8178519280347958,1.523489932885906 L0.825503355704698,1.4945674080981515 L0.8267789903279403,1.4899328859060401 L0.8346157957342213,1.4563758389261743 L0.8408333561581184,1.422818791946309 L0.8455059654100545,1.389261744966443 L0.8486914416195287,1.3557046979865772 L0.8504299209532725,1.3221476510067114 L0.8507427138306765,1.2885906040268456 L0.849631255491933,1.2550335570469797 L0.8470761882869754,1.2214765100671139 L0.8430366204750588,1.1879194630872485 L0.8374496168520233,1.1543624161073827 L0.830229991861131,1.1208053691275168 L0.825503355704698,1.1030253553574474 L0.8216560242923807,1.087248322147651 L0.8117952791697963,1.0536912751677852 L0.8000610808948937,1.0201342281879193 L0.7862837925607543,0.9865771812080535 L0.7852348993288589,0.9843268530748764 L0.7715616243103044,0.9530201342281881 L0.7546302081365146,0.9194630872483223 L0.7449664429530203,0.9025069316731689 L0.7359827079931253,0.8859060402684564 L0.7155283269044539,0.8523489932885906 L0.7046979865771812,0.836397876579305 L0.6931780771036495,0.8187919463087248 L0.6687412931736033,0.7852348993288589 L0.6644295302013421,0.7797748588930169 L0.6427192529724626,0.7516778523489931 L0.6241610738255035,0.7297141116226524 L0.6144591642880346,0.7181208053691277 L0.5841663015494268,0.6845637583892619 L0.5838926174496644,0.6842751026414722 L0.5521923653089639,0.651006711409396 L0.5436241610738257,0.6424538538456042 L0.5181234945252855,0.6174496644295302 L0.5033557046979866,0.6034759336307057 L0.4820105156883128,0.5838926174496644 L0.46308724832214754,0.5668919407430161 L0.44383782772195773,0.5503355704697985 L0.4228187919463089,0.5323755936417399 L0.40352380273902766,0.5167785234899327 L0.3825503355704698,0.4997002881813874 L0.36092923671680904,0.4832214765100673 L0.3422818791946307,0.4687168515147307 L0.3158771482128799,0.44966442953020147 L0.30201342281879207,0.43933226591098895 L0.26818757245361863,0.41610738255033564 L0.261744966442953,0.41148917734064705 L0.22147651006711389,0.3849723637182552 L0.217442850768849,0.3825503355704698 L0.18120805369127524,0.3594824558874495 L0.16310664511311415,0.34899328859060397 L0.14093959731543615,0.33526838144226484 L0.10590962778917487,0.31543624161073813 L0.1006711409395975,0.31224724261039766 L0.06040268456375841,0.2896867578732541 L0.04532712534768189,0.2818791946308723 L0.020134228187919323,0.2677026424506898 L-0.016510541054738002,0.2483221476510069 L-0.020134228187919323,0.24623342345074484 L-0.06040268456375841,0.22419971804036823 L-0.0781542866661576,0.21476510067114107 L-0.1006711409395975,0.20163820981740918 L-0.13581130878874254,0.18120805369127524 L-0.14093959731543615,0.17794000403634497 L-0.18120805369127524,0.15188025625215876 L-0.1874803454121639,0.1476510067114094 L-0.22147651006711389,0.1225105364477939 L-0.23210736980229418,0.11409395973154357 L-0.261744966442953,0.08855822327310754 L-0.2702787871372201,0.08053691275167774 L-0.30201342281879207,0.04849887693348331 L-0.30337213856761736,0.0469798657718119 L-0.33217020880470755,0.013422818791946511 L-0.3422818791946307,0.0012653907903056854 L-0.35834434108558005,-0.020134228187919545 L-0.3825503355704698,-0.052424549208089505 L-0.3834031789058437,-0.05369127516778516 L-0.4067349314763507,-0.08724832214765099 L-0.4228187919463089,-0.10923712868081348 L-0.4305352156796481,-0.12080536912751683 L-0.4546769074592906,-0.15436241610738266 L-0.46308724832214754,-0.16516023719618128 L-0.4796803577023234,-0.18791946308724827 L-0.5033557046979866,-0.2169238993042697 L-0.5068952909435643,-0.2214765100671141 L-0.5359131354474661,-0.25503355704697994 L-0.5436241610738257,-0.26307680878915396 L-0.5680012107110916,-0.28859060402684555 L-0.5838926174496644,-0.30349261701758895 L-0.6043865223201521,-0.3221476510067114 L-0.6241610738255035,-0.338484094474682 L-0.6465076289052035,-0.3557046979865772 L-0.6644295302013421,-0.36850125471903206 L-0.6970637357252574,-0.38926174496644306 L-0.7046979865771812,-0.393879740802405 L-0.7449664429530203,-0.4153421052460636 L-0.7619746628004522,-0.42281879194630867 L-0.7852348993288589,-0.43299467064233577 L-0.825503355704698,-0.44705301200732245 L-0.8619056656408329,-0.4563758389261745 L-0.8657718120805371,-0.4574130797532929 L-0.9060402684563758,-0.46520008531956797 L-0.9463087248322148,-0.46963310887573906 L-0.9865771812080535,-0.4708732800274352 L-1.0268456375838926,-0.468945293769543 L-1.0671140939597314,-0.4637176575351333" fill="none" stroke="#444" stroke-width="0.01"/><path d="M-1.0671140939597314,-0.7282024577568285 L-1.0900588820672934,-0.7248322147651007 L-1.1073825503355705,-0.7224307414508216 L-1.1476510067114094,-0.7148091935434995 L-1.1879194630872483,-0.7049057340635002 L-1.2281879194630871,-0.6925090392883533 L-1.2316186608525264,-0.6912751677852349 L-1.2684563758389262,-0.6782837044832505 L-1.308724832214765,-0.6611962439714976 L-1.3159668406437688,-0.6577181208053691 L-1.348993288590604,-0.6418136432076181 L-1.380692264193856,-0.6241610738255035 L-1.389261744966443,-0.6193082654211739 L-1.429530201342282,-0.5937880157212824 L-1.4341294324431046,-0.5906040268456376 L-1.4697986577181208,-0.564913907319568 L-1.4798422871959904,-0.5570469798657718 L-1.5100671140939597,-0.5320582184992343 L-1.5197821772910247,-0.523489932885906 L-1.5503355704697988,-0.49464038918092307 L-1.5550944001419647,-0.48993288590604034 L-1.5866851066842473,-0.4563758389261745 L-1.5906040268456376,-0.4518642707325561 L-1.6152790052126909,-0.42281879194630867 L-1.6308724832214765,-0.402436115883829 L-1.6408800645398456,-0.38926174496644306 L-1.6640455622716865,-0.3557046979865772 L-1.6711409395973154,-0.3443318910142825 L-1.6851777934381602,-0.3221476510067114 L-1.704098178215282,-0.28859060402684555 L-1.7114093959731544,-0.2741006131985275 L-1.7213477471984304,-0.25503355704697994 L-1.7369495611420083,-0.2214765100671141 L-1.7505468909344777,-0.18791946308724827 L-1.7516778523489933,-0.18479495122065073 L-1.7633069410883109,-0.15436241610738266 L-1.7744662593217448,-0.12080536912751683 L-1.7840864359304636,-0.08724832214765099 L-1.7919463087248322,-0.05520228912010651 L-1.7923434094151187,-0.05369127516778516 L-1.799921341384784,-0.020134228187919545 L-1.8062339056245338,0.013422818791946511 L-1.8113743384583723,0.0469798657718119 L-1.8154228989196985,0.08053691275167774 L-1.8184479004441725,0.11409395973154357 L-1.820506985540318,0.1476510067114094 L-1.821648601504817,0.18120805369127524 L-1.821913621947235,0.21476510067114107 L-1.8213370477782163,0.2483221476510069 L-1.8199497134184635,0.2818791946308723 L-1.817779920246297,0.31543624161073813 L-1.8148549204792794,0.34899328859060397 L-1.8112021812304822,0.3825503355704698 L-1.8068503704014094,0.41610738255033564 L-1.801830022832988,0.44966442953020147 L-1.7961738656036865,0.4832214765100673 L-1.7919463087248322,0.5060692980140139 L-1.790013457790039,0.5167785234899327 L-1.7834971290685584,0.5503355704697985 L-1.776449939303319,0.5838926174496644 L-1.768910329162486,0.6174496644295302 L-1.760917254075065,0.651006711409396 L-1.7525089202106154,0.6845637583892619 L-1.7516778523489933,0.6877999873687533 L-1.7440130351924639,0.7181208053691277 L-1.7351978973526756,0.7516778523489931 L-1.7260646278497178,0.7852348993288589 L-1.7166406273491204,0.8187919463087248 L-1.7114093959731544,0.8370509385385767 L-1.707096530908979,0.8523489932885906 L-1.697479706305014,0.8859060402684564 L-1.6876256804085155,0.9194630872483223 L-1.6775390423160956,0.9530201342281881 L-1.6711409395973154,0.9739331019674952 L-1.6673487097379527,0.9865771812080535 L-1.6571418899044217,1.0201342281879193 L-1.6466926191077629,1.0536912751677852 L-1.6359809403126109,1.087248322147651 L-1.6308724832214765,1.1029332784515096 L-1.6251909585980382,1.1208053691275168 L-1.6142841815794584,1.1543624161073827 L-1.6030469301873216,1.1879194630872485 L-1.591440498752531,1.2214765100671139 L-1.5906040268456376,1.2238382254885551 L-1.5798501546996795,1.2550335570469797 L-1.567860370862091,1.2885906040268456 L-1.5553906548438239,1.3221476510067114 L-1.5503355704697988,1.3353002117052217 L-1.542708837459149,1.3557046979865772 L-1.5296708406937534,1.389261744966443 L-1.51601724791143,1.422818791946309 L-1.5100671140939597,1.4368793775225523 L-1.5020365695433582,1.4563758389261743 L-1.487592949209627,1.4899328859060401 L-1.4723733780311383,1.523489932885906 L-1.4697986577181208,1.5289527755541008 L-1.4568771369956741,1.5570469798657718 L-1.4405998869735694,1.5906040268456376 L-1.429530201342282,1.6123108831191024 L-1.4236188286843738,1.6241610738255035 L-1.4060911293772378,1.6577181208053693 L-1.389261744966443,1.688101610401142 L-1.3875366132427387,1.6912751677852347 L-1.3685299785361211,1.7248322147651005 L-1.348993288590604,1.7572111959192553 L-1.3482928220923138,1.7583892617449663 L-1.3275319624682016,1.7919463087248322 L-1.308724832214765,1.820500973117801 L-1.3054621729640168,1.825503355704698 L-1.2826127939298633,1.8590604026845639 L-1.2684563758389262,1.8787233742158582 L-1.2584954739637777,1.8926174496644297 L-1.2331509582530409,1.9261744966442955 L-1.2281879194630871,1.9324754602482452 L-1.2066781728898142,1.959731543624161 L-1.1879194630872483,1.982241993940543 L-1.178658297566922,1.9932885906040267 L-1.1490827624724396,2.026845637583893 L-1.1476510067114094,2.0284129942131472 L-1.1180448649631285,2.0604026845637584 L-1.1073825503355705,2.0714017066325843 L-1.0851186711993424,2.093959731543624 L-1.0671140939597314,2.1114326923179223 L-1.0501510761458295,2.12751677852349 L-1.0268456375838926,2.1487574642642233 L-1.0129364835695451,2.1610738255033555 L-0.9865771812080535,2.1835943270123006 L-0.9732018714200711,2.1946308724832218 L-0.9463087248322148,2.2161274764046994 L-0.9305878645751879,2.228187919463087 L-0.9060402684563758,2.2465070192680843 L-0.8846243597163871,2.2617449664429534 L-0.8657718120805371,2.274849759540983 L-0.8346985951314115,2.295302013422819 L-0.825503355704698,2.30124059033584 L-0.7852348993288589,2.325830561466096 L-0.7799851415263116,2.328859060402684 L-0.7449664429530203,2.348817132474634 L-0.719228215280537,2.3624161073825505 L-0.7046979865771812,2.370034997201878 L-0.6644295302013421,2.389698945080092 L-0.6505544833208128,2.395973154362416 L-0.6241610738255035,2.4079041784843493 L-0.5838926174496644,2.424529618373088 L-0.5706905968123193,2.429530201342282 L-0.5436241610738257,2.439855336314528 L-0.5033557046979866,2.4537376724831277 L-0.4730159687241145,2.4630872483221475 L-0.46308724832214754,2.466191499281056 L-0.4228187919463089,2.477535911428623 L-0.3825503355704698,2.4874375868135896 L-0.3422818791946307,2.495961358832672 L-0.3385315453856217,2.496644295302014 L-0.30201342281879207,2.5034844192696424 L-0.261744966442953,2.5097235617004467 L-0.22147651006711389,2.5146865120691224 L-0.18120805369127524,2.5184057355409233 L-0.14093959731543615,2.5209052719617135 L-0.1006711409395975,2.5222002219717896 L-0.06040268456375841,2.5222962709389267 L-0.020134228187919323,2.5211892527585333 L0.020134228187919323,2.518864754319837 L0.06040268456375841,2.5152977601537883 L0.1006711409395975,2.510452335497628 L0.14093959731543615,2.5042813447729717 L0.18120805369127524,2.4967262013204663 L0.1815801349099004,2.496644295302014 L0.22147651006711389,2.4881489961955 L0.261744966442953,2.478098074002061 L0.30201342281879207,2.466472204896984 L0.31244812195805166,2.4630872483221475 L0.3422818791946307,2.4536242927595797 L0.3825503355704698,2.4391803740729094 L0.4066356631262556,2.429530201342282 L0.4228187919463089,2.423138362317407 L0.46308724832214754,2.4055309427922835 L0.48291171919219417,2.395973154362416 L0.5033557046979866,2.386169967667415 L0.5436241610738257,2.3648799377974585 L0.5479506198417531,2.3624161073825505 L0.5838926174496644,2.3418641151669872 L0.6047532869378857,2.328859060402684 L0.6241610738255035,2.3166387591388213 L0.6554825745053038,2.295302013422819 L0.6644295302013421,2.2891075517539807 L0.7012392884440469,2.2617449664429534 L0.7046979865771812,2.2591144715549802 L0.7428589822625573,2.228187919463087 L0.7449664429530203,2.226428165621598 L0.7809705581252703,2.1946308724832218 L0.7852348993288589,2.190721759800598 L0.8160397734984528,2.1610738255033555 L0.825503355704698,2.1515462607155453 L0.8484020635160784,2.12751677852349 L0.8657718120805371,2.108294758084851 L0.878287648981964,2.093959731543624 L0.9058463629400596,2.0604026845637584 L0.9060402684563758,2.060156294090196 L0.9316085521842797,2.026845637583893 L0.9463087248322148,2.006180279888639 L0.9553141728352836,1.9932885906040267 L0.9772925296497188,1.959731543624161 L0.9865771812080535,1.9444789086926786 L0.9976234730087131,1.9261744966442955 L1.0163609475803934,1.8926174496644297 L1.026845637583893,1.8721451416989259 L1.0335524987045954,1.8590604026845639 L1.049464972933389,1.825503355704698 L1.063722949655797,1.7919463087248322 L1.0671140939597317,1.78323770778654 L1.0769231449232206,1.7583892617449663 L1.0887943385105268,1.7248322147651005 L1.0992312150061194,1.6912751677852347 L1.1073825503355703,1.6612178705015461 L1.1083570592441254,1.6577181208053693 L1.1166161519305806,1.6241610738255035 L1.123575344849589,1.5906040268456376 L1.1292767858102308,1.5570469798657718 L1.1337552104328927,1.523489932885906 L1.137037249809606,1.4899328859060401 L1.139140674051474,1.4563758389261743 L1.1400735597531444,1.422818791946309 L1.1398333653544788,1.389261744966443 L1.1384058928769125,1.3557046979865772 L1.1357641070217013,1.3221476510067114 L1.1318667723818567,1.2885906040268456 L1.126656855450795,1.2550335570469797 L1.1200596186213168,1.2214765100671139 L1.1119803061084448,1.1879194630872485 L1.1073825503355703,1.1719479330558928 L1.102699726785803,1.1543624161073827 L1.0921841540193504,1.1208053691275168 L1.0799185215943463,1.087248322147651 L1.0671140939597317,1.0569657473043923 L1.065826912977495,1.0536912751677852 L1.0507943806875728,1.0201342281879193 L1.0335447621327132,0.9865771812080535 L1.026845637583893,0.975045710263374 L1.0148768472942333,0.9530201342281881 L0.9941830463269411,0.9194630872483223 L0.9865771812080535,0.9084755577176018 L0.971904612448148,0.8859060402684564 L0.9472508366891991,0.8523489932885906 L0.9463087248322148,0.8511909947220934 L0.9214636285748499,0.8187919463087248 L0.9060402684563758,0.800796629532124 L0.8934340579920494,0.7852348993288589 L0.8657718120805371,0.7544477873857398 L0.8634113720738407,0.7516778523489931 L0.8321441041188234,0.7181208053691277 L0.825503355704698,0.7115836643442567 L0.7994107339102899,0.6845637583892619 L0.7852348993288589,0.6709801823473894 L0.7653292976591621,0.651006711409396 L0.7449664429530203,0.6318699028406973 L0.7302274584807238,0.6174496644295302 L0.7046979865771812,0.5937444076651194 L0.6944316383940422,0.5838926174496644 L0.6644295302013421,0.5561808262322734 L0.6582515096966249,0.5503355704697985 L0.6241610738255035,0.5188354109500599 L0.6219652855458467,0.5167785234899327 L0.5858099013659653,0.4832214765100673 L0.5838926174496644,0.4814379289079863 L0.5498813452086129,0.44966442953020147 L0.5436241610738257,0.4437214264549851 L0.5142793441078816,0.41610738255033564 L0.5033557046979866,0.4055231545266919 L0.4790974997277546,0.3825503355704698 L0.46308724832214754,0.3667689029055015 L0.4443963361679416,0.34899328859060397 L0.4228187919463089,0.32744489951905975 L0.41020988144926407,0.31543624161073813 L0.3825503355704698,0.2875843797715348 L0.3765510689186279,0.2818791946308723 L0.3433405645475302,0.2483221476510069 L0.3422818791946307,0.24717893217007655 L0.3101807758548858,0.21476510067114107 L0.30201342281879207,0.20593014253513464 L0.27745796033232817,0.18120805369127524 L0.261744966442953,0.1642520680480757 L0.245180948682572,0.1476510067114094 L0.22147651006711389,0.12219883789819186 L0.21335269552005234,0.11409395973154357 L0.18191880825022974,0.08053691275167774 L0.18120805369127524,0.07972511635400734 L0.150412448108056,0.0469798657718119 L0.14093959731543615,0.036250453499246764 L0.11940530030736868,0.013422818791946511 L0.1006711409395975,-0.007644317636088929 L0.08888621120737297,-0.020134228187919545 L0.06040268456375841,-0.05199753953036728 L0.058809339768358365,-0.05369127516778516 L0.02879901038857497,-0.08724832214765099 L0.020134228187919323,-0.09735989059627383 L-0.0008426306682017097,-0.12080536912751683 L-0.020134228187919323,-0.14312235542111254 L-0.03019125538115805,-0.15436241610738266 L-0.05944384493085971,-0.18791946308724827 L-0.06040268456375841,-0.1890467399324793 L-0.08879818107087259,-0.2214765100671141 L-0.1006711409395975,-0.23516763053544387 L-0.11829659646545736,-0.25503355704697994 L-0.14093959731543615,-0.280548772954592 L-0.14820834876193578,-0.28859060402684555 L-0.1787735336117523,-0.3221476510067114 L-0.18120805369127524,-0.32480317962874233 L-0.21014787004549904,-0.3557046979865772 L-0.22147651006711389,-0.3675459843318098 L-0.24271731202388397,-0.38926174496644306 L-0.261744966442953,-0.4081862513601725 L-0.2768371450647403,-0.42281879194630867 L-0.30201342281879207,-0.4464626781329337 L-0.3129060390706665,-0.4563758389261745 L-0.3422818791946307,-0.48221752526363115 L-0.35140954459140633,-0.48993288590604034 L-0.3825503355704698,-0.5153835848556463 L-0.392986460719573,-0.523489932885906 L-0.4228187919463089,-0.5459538108095029 L-0.43852528720827727,-0.5570469798657718 L-0.46308724832214754,-0.5739440186926135 L-0.48930404730457205,-0.5906040268456376 L-0.5033557046979866,-0.5993583085258393 L-0.5436241610738257,-0.6222596003917562 L-0.5472753389691917,-0.6241610738255035 L-0.5838926174496644,-0.6430829816813769 L-0.6162145905698454,-0.6577181208053691 L-0.6241610738255035,-0.6613232046884157 L-0.6644295302013421,-0.6776535810265326 L-0.7042141010181944,-0.6912751677852349 L-0.7046979865771812,-0.6914439499173449 L-0.7449664429530203,-0.7036656355453782 L-0.7852348993288589,-0.713603283711618 L-0.825503355704698,-0.7213950919013552 L-0.8492706867239335,-0.7248322147651007 L-0.8657718120805371,-0.7273475554950202 L-0.9060402684563758,-0.731507810159764 L-0.9463087248322148,-0.7336676500162216 L-0.9865771812080535,-0.7338504710429968 L-1.0268456375838926,-0.7320448816330843 L-1.0671140939597314,-0.7282024577568285" fill="none" stroke="#444" stroke-width="0.01"/><path d="M-1.2684563758389262,-1.3997156854700834 L-1.2877874210793785,-1.395973154362416 L-1.308724832214765,-1.392010140585282 L-1.348993288590604,-1.3832794748428745 L-1.389261744966443,-1.373338047046463 L-1.42854891574311,-1.3624161073825505 L-1.429530201342282,-1.3621474052693097 L-1.4697986577181208,-1.3500651436334088 L-1.5100671140939597,-1.3366364190535627 L-1.531434702854191,-1.3288590604026846 L-1.5503355704697988,-1.3220298676917783 L-1.5906040268456376,-1.3062258784711385 L-1.6162535434358702,-1.2953020134228188 L-1.6308724832214765,-1.2890872902206367 L-1.6711409395973154,-1.270698143192676 L-1.6894318690108296,-1.261744966442953 L-1.7114093959731544,-1.250946952945914 L-1.7516778523489933,-1.2297008106497331 L-1.7544047824030016,-1.2281879194630871 L-1.7919463087248322,-1.2071671935616037 L-1.81298188089055,-1.1946308724832215 L-1.832214765100671,-1.1830230639715058 L-1.8665811703445314,-1.1610738255033557 L-1.8724832214765101,-1.1572430425923714 L-1.912751677852349,-1.129830453806885 L-1.9160131923130845,-1.12751677852349 L-1.9530201342281879,-1.1007012123500624 L-1.961941150420638,-1.0939597315436242 L-1.9932885906040267,-1.0696813662979037 L-2.004832509514868,-1.0604026845637584 L-2.033557046979866,-1.0366617274857797 L-2.045054905065286,-1.0268456375838926 L-2.073825503355705,-1.0015067312029369 L-2.082899780086647,-0.9932885906040267 L-2.1140939597315436,-0.9640526364157904 L-2.1185968585796524,-0.9597315436241611 L-2.1523681183268017,-0.9261744966442953 L-2.1543624161073827,-0.9241237538653606 L-2.1844628391599272,-0.8926174496644295 L-2.1946308724832218,-0.8815126069703351 L-2.2149060581145688,-0.8590604026845639 L-2.2348993288590604,-0.8358955428734364 L-2.243777489856127,-0.825503355704698 L-2.271244714343316,-0.7919463087248322 L-2.2751677852348995,-0.7869614575032894 L-2.2975429649841312,-0.7583892617449663 L-2.315436241610738,-0.7343056647162483 L-2.322461809514762,-0.7248322147651007 L-2.346309791039638,-0.6912751677852349 L-2.3557046979865772,-0.6773991250262617 L-2.3690682423978924,-0.6577181208053691 L-2.390693299063625,-0.6241610738255035 L-2.395973154362416,-0.6155929910515452 L-2.4114837594383354,-0.5906040268456376 L-2.431164989453349,-0.5570469798657718 L-2.436241610738255,-0.5479821698658263 L-2.4501128321856833,-0.523489932885906 L-2.468077883258933,-0.48993288590604034 L-2.476510067114094,-0.4733375485797297 L-2.485256743775351,-0.4563758389261745 L-2.501688954953058,-0.42281879194630867 L-2.5167785234899327,-0.3900200908349502 L-2.5171337223161347,-0.38926174496644306 L-2.5321788204007514,-0.3557046979865772 L-2.546308922269805,-0.3221476510067114 L-2.557046979865772,-0.2950600305851192 L-2.5596687395163213,-0.28859060402684555 L-2.5725977671297553,-0.25503355704697994 L-2.5847244444342827,-0.2214765100671141 L-2.596087684136143,-0.18791946308724827 L-2.597315436241611,-0.18408756928309244 L-2.6070965757681535,-0.15436241610738266 L-2.617440192794224,-0.12080536912751683 L-2.627102491277587,-0.08724832214765099 L-2.6361137166995454,-0.05369127516778516 L-2.6375838926174495,-0.047851025457947394 L-2.644774342536378,-0.020134228187919545 L-2.6528742898500988,0.013422818791946511 L-2.6603804256445827,0.0469798657718119 L-2.667315585163714,0.08053691275167774 L-2.6737009639104636,0.11409395973154357 L-2.6778523489932886,0.13785511527402927 L-2.6796215868246884,0.1476510067114094 L-2.6851690934450114,0.18120805369127524 L-2.6902006085586203,0.21476510067114107 L-2.6947315974058883,0.2483221476510069 L-2.698776214336103,0.2818791946308723 L-2.702347357845743,0.31543624161073813 L-2.7054567272817365,0.34899328859060397 L-2.7081148805010584,0.3825503355704698 L-2.710331291770186,0.41610738255033564 L-2.712114409195582,0.44966442953020147 L-2.7134717109993574,0.4832214765100673 L-2.7144097599920385,0.5167785234899327 L-2.714934255645966,0.5503355704697985 L-2.7150500832366333,0.5838926174496644 L-2.7147613595933833,0.6174496644295302 L-2.714071475083073,0.651006711409396 L-2.712983131537937,0.6845637583892619 L-2.711498375929494,0.7181208053691277 L-2.709618629681036,0.7516778523489931 L-2.7073447135996376,0.7852348993288589 L-2.7046768684921823,0.8187919463087248 L-2.7016147716065637,0.8523489932885906 L-2.698157549107263,0.8859060402684564 L-2.694303784852507,0.9194630872483223 L-2.690051525787348,0.9530201342281881 L-2.6853982843027633,0.9865771812080535 L-2.6803410379352632,1.0201342281879193 L-2.6778523489932886,1.0354801426254456 L-2.6749650071483893,1.0536912751677852 L-2.6692614973248423,1.087248322147651 L-2.663150855891632,1.1208053691275168 L-2.6566278012514504,1.1543624161073827 L-2.6496865014264706,1.1879194630872485 L-2.6423205620025585,1.2214765100671139 L-2.6375838926174495,1.241936036090113 L-2.634610448448887,1.2550335570469797 L-2.6266063015795456,1.2885906040268456 L-2.6181634950045356,1.3221476510067114 L-2.609273248067475,1.3557046979865772 L-2.599926153030641,1.389261744966443 L-2.597315436241611,1.3982594828175474 L-2.590311101307574,1.422818791946309 L-2.580299655801241,1.4563758389261743 L-2.569807711546608,1.4899328859060401 L-2.55882319180514,1.523489932885906 L-2.557046979865772,1.528730242979046 L-2.547594700829227,1.5570469798657718 L-2.5359039096021374,1.5906040268456376 L-2.5236883178298886,1.6241610738255035 L-2.5167785234899327,1.6424473260152814 L-2.511087270921243,1.6577181208053693 L-2.498122907459957,1.6912751677852347 L-2.484594359442328,1.7248322147651005 L-2.476510067114094,1.7441730960594186 L-2.470639991872398,1.7583892617449663 L-2.456304626820617,1.7919463087248322 L-2.4413578089494505,1.825503355704698 L-2.436241610738255,1.8366357735892027 L-2.4260434952843104,1.8590604026845639 L-2.4102143930394626,1.8926174496644297 L-2.395973154362416,1.9216494737252003 L-2.3937739311744903,1.9261744966442955 L-2.3770078859505825,1.959731543624161 L-2.3595339623023883,1.9932885906040267 L-2.3557046979865772,2.000441796978115 L-2.3416729099834996,2.026845637583893 L-2.323151842301487,2.0604026845637584 L-2.315436241610738,2.0739615105104416 L-2.304122528059457,2.093959731543624 L-2.2844730079615596,2.12751677852349 L-2.2751677852348995,2.142918339577663 L-2.2642454535301364,2.1610738255033555 L-2.2433732472908687,2.1946308724832218 L-2.2348993288590604,2.2078542033560606 L-2.22190270724819,2.228187919463087 L-2.19969921500153,2.2617449664429534 L-2.1946308724832218,2.26920778083293 L-2.1769237263173835,2.295302013422819 L-2.1543624161073827,2.327333337848117 L-2.153287443465571,2.328859060402684 L-2.1291019231354142,2.3624161073825505 L-2.1140939597315436,2.3825372694758964 L-2.104049650754366,2.395973154362416 L-2.0781896811079674,2.429530201342282 L-2.073825503355705,2.435058259384469 L-2.051601766107129,2.4630872483221475 L-2.033557046979866,2.4851240874633724 L-2.0240698409048035,2.496644295302014 L-1.995619526234168,2.530201342281879 L-1.9932885906040267,2.5328916614189607 L-1.9663320734619343,2.5637583892617446 L-1.9530201342281879,2.5785655813440753 L-1.9360033286914118,2.597315436241611 L-1.912751677852349,2.6222325819659873 L-1.9045995244588445,2.6308724832214763 L-1.8724832214765101,2.664017787108012 L-1.8720791422461085,2.6644295302013425 L-1.8384772840984942,2.697986577181208 L-1.832214765100671,2.7040921241683664 L-1.8036238776074942,2.731543624161074 L-1.7919463087248322,2.7424998353111283 L-1.7674418516803025,2.7651006711409396 L-1.7516778523489933,2.779327023898028 L-1.7298469713181446,2.798657718120805 L-1.7114093959731544,2.8146540122288553 L-1.690739808577789,2.8322147651006713 L-1.6711409395973154,2.848552274500143 L-1.650003381161525,2.8657718120805367 L-1.6308724832214765,2.881084839260621 L-1.6075003997879227,2.899328859060403 L-1.5906040268456376,2.912306663615116 L-1.5630700462288643,2.9328859060402683 L-1.5503355704697988,2.9422649872845708 L-1.5165241841242514,2.9664429530201346 L-1.5100671140939597,2.9709996728366623 L-1.4697986577181208,2.99856811357314 L-1.4676458111405266,3" fill="none" stroke="#444" stroke-width="0.01"/><path d="M-1.2281879194630871,-1.4064120080059344 L-1.2684563758389262,-1.3997156854700834" fill="none" stroke="#444" stroke-width="0.01"/><path d="M-1.1879194630872483,-1.4119778758425652 L-1.2281879194630871,-1.4064120080059344" fill="none" stroke="#444" stroke-width="0.01"/><path d="M-1.1476510067114094,-1.4164397897857461 L-1.1879194630872483,-1.4119778758425652" fill="none" stroke="#444" stroke-width="0.01"/><path d="M-1.1073825503355705,-1.4198186905461554 L-1.1476510067114094,-1.4164397897857461" fill="none" stroke="#444" stroke-width="0.01"/><path d="M-1.0671140939597314,-1.422129651482501 L-1.1073825503355705,-1.4198186905461554" fill="none" stroke="#444" stroke-width="0.01"/><path d="M-1.0268456375838926,-1.4233815901065152 L-1.0671140939597314,-1.422129651482501" fill="none" stroke="#444" stroke-width="0.01"/><path d="M-0.9865771812080535,-1.4235769953715476 L-1.0268456375838926,-1.4233815901065152" fill="none" stroke="#444" stroke-width="0.01"/><path d="M-0.9463087248322148,-1.422711665300631 L-0.9865771812080535,-1.4235769953715476" fill="none" stroke="#444" stroke-width="0.01"/><path d="M-0.9060402684563758,-1.4207744467086463 L-0.9463087248322148,-1.422711665300631" fill="none" stroke="#444" stroke-width="0.01"/><path d="M-0.8657718120805371,-1.4177469656463644 L-0.9060402684563758,-1.4207744467086463" fill="none" stroke="#444" stroke-width="0.01"/><path d="M-0.825503355704698,-1.4136033337466918 L-0.8657718120805371,-1.4177469656463644" fill="none" stroke="#444" stroke-width="0.01"/><path d="M-0.7852348993288589,-1.408309811878161 L-0.825503355704698,-1.4136033337466918" fill="none" stroke="#444" stroke-width="0.01"/><path d="M-0.7449664429530203,-1.401824408378939 L-0.7852348993288589,-1.408309811878161" fill="none" stroke="#444" stroke-width="0.01"/><path d="M-0.7143947762210965,-1.395973154362416 L-0.7449664429530203,-1.401824408378939" fill="none" stroke="#444" stroke-width="0.01"/><path d="M-0.7143947762210965,-1.395973154362416 L-0.7046979865771812,-1.3941705857130504 L-0.6644295302013421,-1.3854923199409548 L-0.6241610738255035,-1.3754855468851033 L-0.5838926174496644,-1.3640685690571732 L-0.5786554234783889,-1.3624161073825505 L-0.5436241610738257,-1.3515779730947275 L-0.5033557046979866,-1.337583615975574 L-0.4807220003556645,-1.3288590604026846 L-0.46308724832214754,-1.3221584826071262 L-0.4228187919463089,-1.305277250124349 L-0.4012047041202993,-1.2953020134228188 L-0.3825503355704698,-1.2867666504721371 L-0.3422818791946307,-1.2665321477940545 L-0.3335047976182611,-1.261744966442953 L-0.30201342281879207,-1.2446089001802372 L-0.27445141925518785,-1.2281879194630871 L-0.261744966442953,-1.2206075436693864 L-0.22179584027802096,-1.1946308724832215 L-0.22147651006711389,-1.1944221338323642 L-0.18120805369127524,-1.1660630804228704 L-0.17465605272342277,-1.1610738255033557 L-0.14093959731543615,-1.135053218973883 L-0.13188075186696088,-1.12751677852349 L-0.1006711409395975,-1.1010700701046938 L-0.09286411908585351,-1.0939597315436242 L-0.06040268456375841,-1.063677288210002 L-0.057128239520305504,-1.0604026845637584 L-0.02435704528170832,-1.0268456375838926 L-0.020134228187919323,-1.0224062515963617 L0.005761571705940405,-0.9932885906040267 L0.020134228187919323,-0.9764911377092597 L0.03356318738765139,-0.9597315436241611 L0.05926352172011034,-0.9261744966442953 L0.06040268456375841,-0.9246524729135498 L0.08287623245009804,-0.8926174496644295 L0.1006711409395975,-0.8657038673224231 L0.10478956756714639,-0.8590604026845639 L0.12495573147617611,-0.825503355704698 L0.14093959731543615,-0.7971549506255639 L0.14369029700420774,-0.7919463087248322 L0.16091288274839857,-0.7583892617449663 L0.1769601404812876,-0.7248322147651007 L0.18120805369127524,-0.7156615884912558 L0.19174998600163815,-0.6912751677852349 L0.20549308460807936,-0.6577181208053691 L0.21837403892488827,-0.6241610738255035 L0.22147651006711389,-0.6159006161196177 L0.2302869330589154,-0.5906040268456376 L0.24145847494931905,-0.5570469798657718 L0.25207211457187617,-0.523489932885906 L0.261744966442953,-0.49166386557769554 L0.2622282201370449,-0.48993288590604034 L0.27171594701095814,-0.4563758389261745 L0.28094809877614413,-0.42281879194630867 L0.2900467193412366,-0.38926174496644306 L0.29913837593121917,-0.3557046979865772 L0.30201342281879207,-0.34556819629802077 L0.3080125475860757,-0.3221476510067114 L0.316918924285405,-0.28859060402684555 L0.3261392145615865,-0.25503355704697994 L0.33582029244604894,-0.2214765100671141 L0.3422818791946307,-0.2007257336287923 L0.3458358008333506,-0.18791946308724827 L0.35605348839453105,-0.15436241610738266 L0.3671031665591649,-0.12080536912751683 L0.3791770315918444,-0.08724832214765099 L0.3825503355704698,-0.07888509888303945 L0.3915816439502531,-0.05369127516778516 L0.40498458092792516,-0.020134228187919545 L0.41993273475543896,0.013422818791946511 L0.4228187919463089,0.019175822054720845 L0.4353290985969159,0.0469798657718119 L0.45238610583307015,0.08053691275167774 L0.46308724832214754,0.09922169176339653 L0.47082976313621144,0.11409395973154357 L0.49063719190254856,0.1476510067114094 L0.5033557046979866,0.1667758001140133 L0.5122845274249251,0.18120805369127524 L0.5357364588462922,0.21476510067114107 L0.5436241610738257,0.22495063636593982 L0.5609928112694895,0.2483221476510069 L0.5838926174496644,0.27586472413587787 L0.5888055839870945,0.2818791946308723 L0.6188133852796583,0.31543624161073813 L0.6241610738255035,0.32101637557228896 L0.6514440672468809,0.34899328859060397 L0.6644295302013421,0.3615338090082211 L0.6871475688154093,0.3825503355704698 L0.7046979865771812,0.3982026432855459 L0.7261589527816352,0.41610738255033564 L0.7449664429530203,0.4316269423019299 L0.768792693320153,0.44966442953020147 L0.7852348993288589,0.46229607858795535 L0.8153239127859672,0.4832214765100673 L0.825503355704698,0.4905789412926149 L0.8657718120805371,0.5167564186776987 L0.8658101272850858,0.5167785234899327 L0.9060402684563758,0.5417890036358876 L0.9215367527861255,0.5503355704697985 L0.9463087248322148,0.5652891329767237 L0.9806839096319858,0.5838926174496644 L0.9865771812080535,0.5874245029128811 L1.026845637583893,0.6091220093184428 L1.0439308088499013,0.6174496644295302 L1.0671140939597317,0.63018310946775 L1.1073825503355703,0.6505912436545285 L1.1082876629082568,0.651006711409396 L1.147651006711409,0.6715685439228377 L1.1739911612051206,0.6845637583892619 L1.1879194630872485,0.6923901518965131 L1.2281879194630871,0.7137306960674213 L1.236962390995452,0.7181208053691277 L1.2684563758389258,0.7361081001086075 L1.2965617106692588,0.7516778523489931 L1.3087248322147653,0.7593613536232989 L1.348993288590604,0.7840176929506889 L1.3510611799958052,0.7852348993288589 L1.3892617449664426,0.8108489766569211 L1.4013421738629175,0.8187919463087248 L1.4295302013422821,0.8398753749878946 L1.4465662543078242,0.8523489932885906 L1.4697986577181208,0.8716772569612481 L1.4873051845147203,0.8859060402684564 L1.5100671140939594,0.9069073254300919 L1.524025713557372,0.9194630872483223 L1.550335570469799,0.9463087772971398 L1.5570957764907518,0.9530201342281881 L1.5870695145079028,0.9865771812080535 L1.5906040268456376,0.9910247765847437 L1.614542377480644,1.0201342281879193 L1.6308724832214763,1.0426723623708707 L1.6391434571875871,1.0536912751677852 L1.6616249345260117,1.087248322147651 L1.6711409395973158,1.1032287475182088 L1.6820316585570125,1.1208053691275168 L1.700552423368061,1.1543624161073827 L1.7114093959731544,1.176514595826115 L1.7172441929161602,1.1879194630872485 L1.7325987281923927,1.2214765100671139 L1.7461554114879916,1.2550335570469797 L1.751677852348993,1.2704328825421876 L1.7585038547333525,1.2885906040268456 L1.769651837531855,1.3221476510067114 L1.7794065279618083,1.3557046979865772 L1.7878877357774274,1.389261744966443 L1.7919463087248326,1.4078732897261155 L1.7953760477023826,1.422818791946309 L1.801929660602313,1.4563758389261743 L1.8073921022793131,1.4899328859060401 L1.8118243089904167,1.523489932885906 L1.8152763818444884,1.5570469798657718 L1.8177891523362246,1.5906040268456376 L1.8193954571559328,1.6241610738255035 L1.820121184700499,1.6577181208053693 L1.8199861409834515,1.6912751677852347 L1.819004771677009,1.7248322147651005 L1.8171867687816867,1.7583892617449663 L1.8145375841789917,1.7919463087248322 L1.8110588675590245,1.825503355704698 L1.8067488425519433,1.8590604026845639 L1.8016026320570175,1.8926174496644297 L1.7956125415547535,1.9261744966442955 L1.7919463087248326,1.9442850613998597 L1.7888935527047254,1.959731543624161 L1.781476546424881,1.9932885906040267 L1.7731971007198009,2.026845637583893 L1.764036674905363,2.0604026845637584 L1.7539749459462926,2.093959731543624 L1.751677852348993,2.10109209533074 L1.7432936607345026,2.12751677852349 L1.7317596224420446,2.1610738255033555 L1.7192637881572672,2.1946308724832218 L1.7114093959731544,2.214364706682461 L1.7059591351180856,2.228187919463087 L1.6919014736056355,2.2617449664429534 L1.6767992327764374,2.295302013422819 L1.6711409395973158,2.307232657265572 L1.660925712115414,2.328859060402684 L1.644111393270912,2.3624161073825505 L1.6308724832214763,2.387325511596295 L1.6262770372231952,2.395973154362416 L1.6076236243825768,2.429530201342282 L1.5906040268456376,2.4583750149605494 L1.5878131902951098,2.4630872483221475 L1.567162079943082,2.496644295302014 L1.550335570469799,2.5225253160895074 L1.5453070717229715,2.530201342281879 L1.5224678108164589,2.5637583892617446 L1.5100671140939594,2.5811745402640085 L1.4984434109870943,2.597315436241611 L1.4731931266240677,2.6308724832214763 L1.4697986577181208,2.6352474490912003 L1.4468142389961114,2.6644295302013425 L1.4295302013422821,2.6854670001754597 L1.4190606598102387,2.697986577181208 L1.3899131794238713,2.731543624161074 L1.3892617449664426,2.732275637124677 L1.3594223498374483,2.7651006711409396 L1.348993288590604,2.776194989401204 L1.3273656136717402,2.798657718120805 L1.3087248322147653,2.8174394675507655 L1.293664083254678,2.8322147651006713 L1.2684563758389258,2.8562793282858645 L1.258216254717591,2.8657718120805367 L1.2281879194630871,2.8929396019379445 L1.2208951686014242,2.899328859060403 L1.1879194630872485,2.927607124829181 L1.1815450733633601,2.9328859060402683 L1.147651006711409,2.960436318467534 L1.1399774913748517,2.9664429530201346 L1.1073825503355703,2.9915539740759414 L1.0959665613885683,3" fill="none" stroke="#444" stroke-width="0.01"/><path d="M1.0671140939597317,-0.7321100975034521 L1.0440541568191493,-0.7248322147651007 L1.026845637583893,-0.7200648631818816 L0.9865771812080535,-0.7054928193773007 L0.9558527410076681,-0.6912751677852349 L0.9463087248322148,-0.6873093126883301 L0.9060402684563758,-0.6662821154085284 L0.8927755345972905,-0.6577181208053691 L0.8657718120805371,-0.6415512227474826 L0.8422468052382853,-0.6241610738255035 L0.825503355704698,-0.6124452987570774 L0.7998846490975623,-0.5906040268456376 L0.7852348993288589,-0.5784753179999623 L0.7636291801874179,-0.5570469798657718 L0.7449664429530203,-0.5384965064892309 L0.7321052003516206,-0.523489932885906 L0.7046979865771812,-0.49017652271403966 L0.7045232444113713,-0.48993288590604034 L0.6805191728750026,-0.4563758389261745 L0.6644295302013421,-0.43142391355818394 L0.659448453197677,-0.42281879194630867 L0.6410262977708696,-0.38926174496644306 L0.6253345761368894,-0.3557046979865772 L0.6241610738255035,-0.3529893019905783 L0.6115863248848677,-0.3221476510067114 L0.6001771143081134,-0.28859060402684555 L0.5910805585757616,-0.25503355704697994 L0.5841840448205533,-0.2214765100671141 L0.5838926174496644,-0.21961978236132668 L0.57878259795099,-0.18791946308724827 L0.5754271881678107,-0.15436241610738266 L0.5741262892658041,-0.12080536912751683 L0.574894547398189,-0.08724832214765099 L0.5778010635675681,-0.05369127516778516 L0.5829819072951957,-0.020134228187919545 L0.5838926174496644,-0.016179263594280797 L0.5896376070591025,0.013422818791946511 L0.598574403549712,0.0469798657718119 L0.6103437521766162,0.08053691275167774 L0.6241610738255035,0.11137906230781983 L0.6252457207456075,0.11409395973154357 L0.6417320550047735,0.1476510067114094 L0.6626029112860705,0.18120805369127524 L0.6644295302013421,0.18377368883951178 L0.6860416104224947,0.21476510067114107 L0.7046979865771812,0.23710783039547573 L0.7143494209363976,0.2483221476510069 L0.7449664429530203,0.2792973211437329 L0.7477561128067768,0.2818791946308723 L0.7852348993288589,0.3137251678405465 L0.7875712981708362,0.31543624161073813 L0.825503355704698,0.34242126669150275 L0.8367880983088828,0.34899328859060397 L0.8657718120805371,0.3662670820421107 L0.900345046319461,0.3825503355704698 L0.9060402684563758,0.3854147410291241 L0.9463087248322148,0.4016632622559007 L0.9865771812080535,0.4138150277626692 L0.9972085770420586,0.41610738255033564 L1.026845637583893,0.42353955992089165 L1.0671140939597317,0.4303373531073514 L1.1073825503355703,0.4342369422259862 L1.147651006711409,0.43545098768958557 L1.1879194630872485,0.434061023756522 L1.2281879194630871,0.430046816429061 L1.2684563758389258,0.42332081032016383 L1.2996989556998038,0.41610738255033564 L1.3087248322147653,0.41390736767374176 L1.348993288590604,0.40200041549001786 L1.3892617449664426,0.38688766175958206 L1.399733211711885,0.3825503355704698 L1.4295302013422821,0.3687966225436441 L1.4668255646643196,0.34899328859060397 L1.4697986577181208,0.34719067231025785 L1.5100671140939594,0.3218545216491865 L1.5198570377971565,0.31543624161073813 L1.550335570469799,0.29212939937897964 L1.5636421550870867,0.2818791946308723 L1.5906040268456376,0.25728956568879213 L1.600706377342057,0.2483221476510069 L1.6308724832214763,0.21625093334723464 L1.6323473164507705,0.21476510067114107 L1.6608610448789092,0.18120805369127524 L1.6711409395973158,0.1664266018469736 L1.6854428237894215,0.1476510067114094 L1.706487801663963,0.11409395973154357 L1.7114093959731544,0.10463485938412362 L1.725516016833167,0.08053691275167774 L1.741572262213262,0.0469798657718119 L1.751677852348993,0.02091661353889518 L1.7550095665338024,0.013422818791946511 L1.7671551179323313,-0.020134228187919545 L1.776711361038359,-0.05369127516778516 L1.784009653997494,-0.08724832214765099 L1.7892814587396635,-0.12080536912751683 L1.7919463087248326,-0.14727732548384093 L1.792790236321487,-0.15436241610738266 L1.7946272519638051,-0.18791946308724827 L1.7944055681060802,-0.2214765100671141 L1.7921025044456134,-0.25503355704697994 L1.7919463087248326,-0.25626361876181053 L1.7881593194304957,-0.28859060402684555 L1.7821646435989975,-0.3221476510067114 L1.773885582400422,-0.3557046979865772 L1.7630420908291742,-0.38926174496644306 L1.751677852348993,-0.4173360651208586 L1.7495233620993562,-0.42281879194630867 L1.7340485902642484,-0.4563758389261745 L1.7148351694114798,-0.48993288590604034 L1.7114093959731544,-0.49522839828410076 L1.6928677662210192,-0.523489932885906 L1.6711409395973158,-0.551215495870977 L1.6663949447496722,-0.5570469798657718 L1.6353853550658701,-0.5906040268456376 L1.6308724832214763,-0.5949882109758455 L1.5983771248683782,-0.6241610738255035 L1.5906040268456376,-0.6304649006620787 L1.5530060957547263,-0.6577181208053691 L1.550335570469799,-0.6595101238662461 L1.5100671140939594,-0.6836975516817837 L1.495077347979323,-0.6912751677852349 L1.4697986577181208,-0.703528278315258 L1.4295302013422821,-0.719401884018142 L1.4123402334465862,-0.7248322147651007 L1.3892617449664426,-0.732064401765171 L1.348993288590604,-0.7417221273926538 L1.3087248322147653,-0.7482915342492693 L1.2684563758389258,-0.7520629301550239 L1.2281879194630871,-0.7532283700745612 L1.1879194630872485,-0.7518822950098333 L1.147651006711409,-0.7480166829272898 L1.1073825503355703,-0.741510204311856 L1.0671140939597317,-0.7321100975034521" fill="none" stroke="#444" stroke-width="0.01"/><path d="M0.9865771812080535,-0.39211834270960405 L0.9745196197185949,-0.38926174496644306 L0.9463087248322148,-0.3835424857100872 L0.9060402684563758,-0.36988747023346974 L0.8780659272557775,-0.3557046979865772 L0.8657718120805371,-0.34985555457083284 L0.825503355704698,-0.32271429008158264 L0.8248343278646858,-0.3221476510067114 L0.7871274902527601,-0.28859060402684555 L0.7852348993288589,-0.28674726922841653 L0.7580147426493196,-0.25503355704697994 L0.7449664429530203,-0.23648174711902908 L0.7353790100067851,-0.2214765100671141 L0.7176473064718716,-0.18791946308724827 L0.7049735396995079,-0.15436241610738266 L0.7046979865771812,-0.15339996774929995 L0.694827753314148,-0.12080536912751683 L0.6884704483564643,-0.08724832214765099 L0.6855862728358195,-0.05369127516778516 L0.6859894379432727,-0.020134228187919545 L0.689725905816548,0.013422818791946511 L0.6971003155644057,0.0469798657718119 L0.7046979865771812,0.06940002975605604 L0.7078879107841245,0.08053691275167774 L0.7215908513432024,0.11409395973154357 L0.7410305376384441,0.1476510067114094 L0.7449664429530203,0.15324444437576984 L0.7646482608850133,0.18120805369127524 L0.7852348993288589,0.2041415545669684 L0.7957522131195608,0.21476510067114107 L0.825503355704698,0.24062139659596163 L0.836427337481579,0.2483221476510069 L0.8657718120805371,0.2679951142621074 L0.8941830083405109,0.2818791946308723 L0.9060402684563758,0.28789967007396 L0.9463087248322148,0.3026185652310672 L0.9865771812080535,0.3115044336625591 L1.0243310110683204,0.31543624161073813 L1.026845637583893,0.3157576824564652 L1.0671140939597317,0.3158179917568576 L1.07050930097489,0.31543624161073813 L1.1073825503355703,0.31159040691809015 L1.147651006711409,0.30262027761847826 L1.1879194630872485,0.2879085375771614 L1.2006642759802246,0.2818791946308723 L1.2281879194630871,0.2676241251989468 L1.2574936248261968,0.2483221476510069 L1.2684563758389258,0.23981864917253234 L1.2973352162233263,0.21476510067114107 L1.3087248322147653,0.20228861443296065 L1.3276693482036293,0.18120805369127524 L1.348993288590604,0.14939208151571648 L1.350226387308436,0.1476510067114094 L1.369376463593971,0.11409395973154357 L1.3827617950795512,0.08053691275167774 L1.3892617449664426,0.05671438682667273 L1.3924232677589043,0.0469798657718119 L1.3994799619866396,0.013422818791946511 L1.402888300534772,-0.020134228187919545 L1.4029351805971575,-0.05369127516778516 L1.399644027214629,-0.08724832214765099 L1.3927973813875583,-0.12080536912751683 L1.3892617449664426,-0.13235991613198025 L1.383206424015415,-0.15436241610738266 L1.3700221495606855,-0.18791946308724827 L1.3515675464979262,-0.2214765100671141 L1.348993288590604,-0.22539869738107157 L1.3292435451744156,-0.25503355704697994 L1.3087248322147653,-0.2790170459547139 L1.2998151130359417,-0.28859060402684555 L1.2684563758389258,-0.3169512399737742 L1.261663109489448,-0.3221476510067114 L1.2281879194630871,-0.3453239225392708 L1.2085775478483052,-0.3557046979865772 L1.1879194630872485,-0.36628204670340914 L1.147651006711409,-0.38123889011108764 L1.1128966081386553,-0.38926174496644306 L1.1073825503355703,-0.39062059370924845 L1.0671140939597317,-0.3960002534729868 L1.026845637583893,-0.3964951205780714 L0.9865771812080535,-0.39211834270960405" fill="none" stroke="#444" stroke-width="0.01"/><path d="M0.9060402684563758,-0.25933393928817294 L0.8984868521703723,-0.25503355704697994 L0.8657718120805371,-0.23668206427503174 L0.8469577351178912,-0.2214765100671141 L0.825503355704698,-0.20192871828687461 L0.8130579949403356,-0.18791946308724827 L0.789422709694042,-0.15436241610738266 L0.7852348993288589,-0.14640155340666375 L0.7718922867997821,-0.12080536912751683 L0.7601633471764095,-0.08724832214765099 L0.7536989748871201,-0.05369127516778516 L0.7515639449029039,-0.020134228187919545 L0.7533751269661031,0.013422818791946511 L0.7594208827176742,0.0469798657718119 L0.7706675922957417,0.08053691275167774 L0.7852348993288589,0.10842413126196113 L0.7879333651066563,0.11409395973154357 L0.8103898191402886,0.1476510067114094 L0.825503355704698,0.16445265969015643 L0.842825076319479,0.18120805369127524 L0.8657718120805371,0.19984613169048293 L0.8910324199546458,0.21476510067114107 L0.9060402684563758,0.22343599411980333 L0.9463087248322148,0.23897366804082298 L0.9865771812080535,0.24677531014371507 L1.0188620246844602,0.2483221476510069 L1.026845637583893,0.2488223929401983 L1.0317387186885436,0.2483221476510069 L1.0671140939597317,0.2452113766353081 L1.1073825503355703,0.23530528382291346 L1.147651006711409,0.21697528511196285 L1.151409972001094,0.21476510067114107 L1.1879194630872485,0.1901983635601477 L1.1986799613064316,0.18120805369127524 L1.2281879194630871,0.1492518837440387 L1.229589829083214,0.1476510067114094 L1.253044476410669,0.11409395973154357 L1.2677237213406911,0.08053691275167774 L1.2684563758389258,0.07796006500236573 L1.279224614537758,0.0469798657718119 L1.285433157848992,0.013422818791946511 L1.2869883720058553,-0.020134228187919545 L1.2841309803599479,-0.05369127516778516 L1.2765117503258374,-0.08724832214765099 L1.2684563758389258,-0.10854621634048724 L1.264353186833971,-0.12080536912751683 L1.2475942449456612,-0.15436241610738266 L1.2281879194630871,-0.180933742871687 L1.2227899145920138,-0.18791946308724827 L1.1886782798785103,-0.2214765100671141 L1.1879194630872485,-0.22211946577985087 L1.147651006711409,-0.24994374180019813 L1.1367316176875455,-0.25503355704697994 L1.1073825503355703,-0.2686290847323311 L1.0671140939597317,-0.2795289365262107 L1.026845637583893,-0.2837632465208103 L0.9865771812080535,-0.2822732481520892 L0.9463087248322148,-0.2747161085867897 L0.9060402684563758,-0.25933393928817294" fill="none" stroke="#444" stroke-width="0.01"/><path d="M0.9865771812080535,-0.22148068634659568 L0.9865586246665912,-0.2214765100671141 L0.9463087248322148,-0.21417688938583973 L0.9060402684563758,-0.19700438575469165 L0.8926207478168848,-0.18791946308724827 L0.8657718120805371,-0.16812458476812803 L0.8520732137689246,-0.15436241610738266 L0.8270706011438623,-0.12080536912751683 L0.825503355704698,-0.11781769478973085 L0.8092421076482782,-0.08724832214765099 L0.7990365918922986,-0.05369127516778516 L0.7949126518685169,-0.020134228187919545 L0.795884382941473,0.013422818791946511 L0.8021840877878825,0.0469798657718119 L0.8152903693338743,0.08053691275167774 L0.825503355704698,0.09747131777687448 L0.8351194323297577,0.11409395973154357 L0.8656024728691211,0.1476510067114094 L0.8657718120805371,0.14780839646939964 L0.9060402684563758,0.17742339546733427 L0.9147440052013875,0.18120805369127524 L0.9463087248322148,0.19565159254825784 L0.9865771812080535,0.20431631034883574 L1.026845637583893,0.2050984408914428 L1.0671140939597317,0.19824533844158634 L1.1073825503355703,0.18166424197486267 L1.1081774532759454,0.18120805369127524 L1.147651006711409,0.15544700374071996 L1.1566500409275844,0.1476510067114094 L1.1855858567953281,0.11409395973154357 L1.1879194630872485,0.11004260068321678 L1.2060847607807568,0.08053691275167774 L1.2180107655971992,0.0469798657718119 L1.2235336924768323,0.013422818791946511 L1.224155971543165,-0.020134228187919545 L1.2200399558570474,-0.05369127516778516 L1.210084462646085,-0.08724832214765099 L1.1920484035137897,-0.12080536912751683 L1.1879194630872485,-0.12656382362003538 L1.166751539942901,-0.15436241610738266 L1.147651006711409,-0.17243182594003237 L1.125883589497474,-0.18791946308724827 L1.1073825503355703,-0.1996070787811369 L1.0671140939597317,-0.2153876068061143 L1.0294599801268696,-0.2214765100671141 L1.026845637583893,-0.22198152237368415 L0.9865771812080535,-0.2214806863465957" fill="none" stroke="#444" stroke-width="0.01"/><path d="M0.9463087248322148,-0.17539854347922376 L0.9068255015292321,-0.15436241610738266 L0.9060402684563758,-0.1539424858847617 L0.8688372008617791,-0.12080536912751683 L0.8657718120805371,-0.11688551719497721 L0.8451115550896725,-0.08724832214765099 L0.8323166938442207,-0.05369127516778516 L0.8272154552064569,-0.020134228187919545 L0.8276077566267832,0.013422818791946511 L0.8336173240933547,0.0469798657718119 L0.8477827139134536,0.08053691275167774 L0.8657718120805371,0.10514341225833736 L0.8728571951791342,0.11409395973154357 L0.9060402684563758,0.1429919145780093 L0.9147184377129498,0.1476510067114094 L0.9463087248322148,0.1642978383373559 L0.9865771812080535,0.17345129581591961 L1.026845637583893,0.17339091972520462 L1.0671140939597317,0.164059107511014 L1.098488754844926,0.1476510067114094 L1.1073825503355703,0.142563559195474 L1.139983276672765,0.11409395973154357 L1.147651006711409,0.1039029955132121 L1.1646454698174278,0.08053691275167774 L1.1786356112499687,0.0469798657718119 L1.1845284966162655,0.013422818791946511 L1.184730751134502,-0.020134228187919545 L1.179309763418424,-0.05369127516778516 L1.166113461679345,-0.08724832214765099 L1.147651006711409,-0.1136943925946485 L1.1423671530947548,-0.12080536912751683 L1.1073825503355703,-0.15229740553684967 L1.1038358685860827,-0.15436241610738266 L1.0671140939597317,-0.17432196161195995 L1.026845637583893,-0.18350902102699881 L0.9865771812080535,-0.18380777752163402 L0.9463087248322148,-0.17539854347922376" fill="none" stroke="#444" stroke-width="0.01"/><path d="M0.9865771812080535,-0.15648790172362853 L0.9788978221975724,-0.15436241610738266 L0.9463087248322148,-0.1472413289610798 L0.9060402684563758,-0.12241994393835051 L0.9042275840196453,-0.12080536912751683 L0.8737078452953292,-0.08724832214765099 L0.8657718120805371,-0.07067350740109377 L0.85703246502797,-0.05369127516778516 L0.8485284814585479,-0.020134228187919545 L0.8485986521212007,0.013422818791946511 L0.8573150768982315,0.0469798657718119 L0.8657718120805371,0.0629345818953255 L0.8740530917974448,0.08053691275167774 L0.9049851669448064,0.11409395973154357 L0.9060402684563758,0.11501281000152992 L0.9463087248322148,0.1401508763711983 L0.9798139077765876,0.1476510067114094 L0.9865771812080535,0.14955102941379686 L1.026845637583893,0.14873926536944065 L1.0304399380661597,0.1476510067114094 L1.0671140939597317,0.137971880418699 L1.103216826424054,0.11409395973154357 L1.1073825503355703,0.11052605924132233 L1.1343780878232712,0.08053691275167774 L1.147651006711409,0.050328703171531416 L1.14937007811234,0.0469798657718119 L1.1583402513516454,0.013422818791946511 L1.1582346703135886,-0.020134228187919545 L1.1490972461794218,-0.05369127516778516 L1.147651006711409,-0.056563522094370655 L1.1338925610810333,-0.08724832214765099 L1.1073825503355703,-0.11689067564838194 L1.1026834268426673,-0.12080536912751683 L1.0671140939597317,-0.14450963321055532 L1.0302612672159779,-0.15436241610738266 L1.026845637583893,-0.15542799278357564 L0.9865771812080535,-0.15648790172362853" fill="none" stroke="#444" stroke-width="0.01"/><path d="M0.9463087248322148,-0.12567285142360282 L0.9385710032380171,-0.12080536912751683 L0.9060402684563758,-0.09730514364599141 L0.8967034454757262,-0.08724832214765099 L0.8757803421755135,-0.05369127516778516 L0.8680401970755101,-0.020134228187919545 L0.8678740392198742,0.013422818791946511 L0.8750643576896905,0.0469798657718119 L0.8950870394838978,0.08053691275167774 L0.9060402684563758,0.09228132771474236 L0.935204380839197,0.11409395973154357 L0.9463087248322148,0.12110689646091571 L0.9865771812080535,0.13356928909591315 L1.026845637583893,0.13230985048775407 L1.0671140939597317,0.11648346705578239 L1.070726960623408,0.11409395973154357 L1.1073825503355703,0.08269881706694793 L1.1093286467010621,0.08053691275167774 L1.1307306574862626,0.0469798657718119 L1.1388285268200575,0.013422818791946511 L1.1385049664999707,-0.020134228187919545 L1.129563958787126,-0.05369127516778516 L1.1073825503355703,-0.0868328259470664 L1.1070881726621524,-0.08724832214765099 L1.0671140939597317,-0.12055416640094996 L1.0664353176779064,-0.12080536912751683 L1.026845637583893,-0.13678373405100083 L0.9865771812080535,-0.13822489869120475 L0.9463087248322148,-0.12567285142360282" fill="none" stroke="#444" stroke-width="0.01"/></g><g/><g><circle cx="-1" cy="0" r="0.08" fill="#9a2b17" cursor="grab"/><circle cx="1" cy="0" r="0.08" fill="#9a2b17" cursor="grab"/><circle cx="0" cy="1.2" r="0.24" fill="#9a2b17" cursor="grab"/></g><g id="textGroup"><text x="-0.9" y="-0.1" font-size="0.15" fill="none" stroke="white" stroke-width="0.02" style="user-select: none;">-1q</text><text x="-0.9" y="-0.1" font-size="0.15" fill="#9a2b17" stroke="none" style="user-select: none;">-1q</text><text x="1.1" y="-0.1" font-size="0.15" fill="none" stroke="white" stroke-width="0.02" style="user-select: none;">+q</text><text x="1.1" y="-0.1" font-size="0.15" fill="#9a2b17" stroke="none" style="user-select: none;">+q</text><text x="0.1" y="1.0999999999999999" font-size="0.15" fill="none" stroke="white" stroke-width="0.02" style="user-select: none;">-3q</text><text x="0.1" y="1.0999999999999999" font-size="0.15" fill="#9a2b17" stroke="none" style="user-select: none;">-3q</text></g></svg>