<svg xmlns="http://www.w3.org/2000/svg" id="canvas" viewBox="-3 -2 6 5"><defs>
<marker id="arrow" markerWidth="6" markerHeight="6" refX="5" refY="3" orient="auto" markerUnits="strokeWidth">
<path d="M0,0 L0,6 L6,3 z" fill="#9a2b17"/>
</marker>
</defs><g/><g><line x1="-3" y1="-2" x2="-2.9436578593963088" y2="-1.9432059581276886" stroke="#9a2b17" stroke-width="0.008" marker-end="url(#arrow)"/><line x1="-3" y1="-1.7" x2="-2.9363005791305636" y2="-1.651601820479501" stroke="#9a2b17" stroke-width="0.008" marker-end="url(#arrow)"/><line x1="-3" y1="-1.4" x2="-2.929393408479619" y2="-1.3623873793272245" stroke="#9a2b17" stroke-width="0.008" marker-end="url(#arrow)"/><line x1="-3" y1="-1.0999999999999999" x2="-2.92365767101921" y2="-1.076086639596476" stroke="#9a2b17" stroke-width="0.008" marker-end="url(#arrow)"/><line x1="-3" y1="-0.7999999999999998" x2="-2.920296231339987" y2="-0.7931218271764092" stroke="#9a2b17" stroke-width="0.008" marker-end="url(#arrow)"/><line x1="-3" y1="-0.49999999999999983" x2="-2.9211502663190947" y2="-0.513517377646951" stroke="#9a2b17" stroke-width="0.008" marker-end="url(#arrow)"/><line x1="-3" y1="-0.19999999999999984" x2="-2.9287556525223404" y2="-0.2363901491132214" stroke="#9a2b17" stroke-width="0.008" marker-end="url(#arrow)"/><line x1="-3" y1="0.10000000000000014" x2="-2.9460391411071636" y2="0.040938796934473345" stroke="#9a2b17" stroke-width="0.008" marker-end="url(#arrow)"/><line x1="-3" y1="0.40000000000000013" x2="-2.9745838906378395" y2="0.32414473396730664" stroke="#9a2b17" stroke-width="0.008" marker-end="url(#arrow)"/><line x1="-3" y1="0.7000000000000002" x2="-3.0104151517886977" y2="0.6206808685548161" stroke="#9a2b17" stroke-width="0.008" marker-end="url(#arrow)"/><line x1="-3" y1="1.0000000000000002" x2="-3.0432689327205784" y2="0.93271107475058" stroke="#9a2b17" stroke-width="0.008" marker-end="url(#arrow)"/><line x1="-3" y1="1.3000000000000003" x2="-3.0654610026866016" y2="1.2540124242075672" stroke="#9a2b17" stroke-width="0.008" marker-end="url(#arrow)"/><line x1="-3" y1="1.6000000000000003" x2="-3.0766915917773576" y2="1.577231606322467" stroke="#9a2b17" stroke-width="0.008" marker-end="url(#arrow)"/><line x1="-3" y1="1.9000000000000004" x2="-3.079984907175233" y2="1.8984460938994405" stroke="#9a2b17" stroke-width="0.008" marker-end="url(#arrow)"/><line x1="-3" y1="2.2" x2="-3.078306941400282" y2="2.2163714058202957" stroke="#9a2b17" stroke-width="0.008" marker-end="url(#arrow)"/><line x1="-3" y1="2.5" x2="-3.073772424414735" y2="2.530945587665647" stroke="#9a2b17" stroke-width="0.008" marker-end="url(#arrow)"/><line x1="-3" y1="2.8" x2="-3.0677353067124673" y2="2.8425667502232432" stroke="#9a2b17" stroke-width="0.008" marker-end="url(#arrow)"/><line x1="-2.7" y1="-2" x2="-2.652267960638511" y2="-1.9357999032836144" stroke="#9a2b17" stroke-width="0.008" marker-end="url(#arrow)"/><line x1="-2.7" y1="-1.7" x2="-2.64386290088397" y2="-1.6430032798940413" stroke="#9a2b17" stroke-width="0.008" marker-end="url(#arrow)"/><line x1="-2.7" y1="-1.4" x2="-2.635448173294165" y2="-1.35274471808422" stroke="#9a2b17" stroke-width="0.008" marker-end="url(#arrow)"/><line x1="-2.7" y1="-1.0999999999999999" x2="-2.6276711217327278" y2="-1.0658161826502932" stroke="#9a2b17" stroke-width="0.008" marker-end="url(#arrow)"/><line x1="-2.7" y1="-0.7999999999999998" x2="-2.6218217958991934" y2="-0.7830244763387807" stroke="#9a2b17" stroke-width="0.008" marker-end="url(#arrow)"/><line x1="-2.7" y1="-0.49999999999999983" x2="-2.6201407596626494" y2="-0.5047435991336972" stroke="#9a2b17" stroke-width="0.008" marker-end="url(#arrow)"/><line x1="-2.7" y1="-0.19999999999999984" x2="-2.6258907581749367" y2="-0.23013005602574" stroke="#9a2b17" stroke-width="0.008" marker-end="url(#arrow)"/><line x1="-2.7" y1="0.10000000000000014" x2="-2.6429298613226324" y2="0.04393754133695157" stroke="#9a2b17" stroke-width="0.008" marker-end="url(#arrow)"/><line x1="-2.7" y1="0.40000000000000013" x2="-2.6737661750005466" y2="0.32442363844496075" stroke="#9a2b17" stroke-width="0.008" marker-end="url(#arrow)"/><line x1="-2.7" y1="0.7000000000000002" x2="-2.713626896281246" y2="0.621169119643758" stroke="#9a2b17" stroke-width="0.008" marker-end="url(#arrow)"/><line x1="-2.7" y1="1.0000000000000002" x2="-2.7487717406513466" y2="0.9365861425724805" stroke="#9a2b17" stroke-width="0.008" marker-end="url(#arrow)"/><line x1="-2.7" y1="1.3000000000000003" x2="-2.770190122761855" y2="1.2616158018622798" stroke="#9a2b17" stroke-width="0.008" marker-end="url(#arrow)"/><line x1="-2.7" y1="1.6000000000000003" x2="-2.7789835627632287" y2="1.5872879264780615" stroke="#9a2b17" stroke-width="0.008" marker-end="url(#arrow)"/><line x1="-2.7" y1="1.9000000000000004" x2="-2.7794241518814484" y2="1.9095814455022517" stroke="#9a2b17" stroke-width="0.008" marker-end="url(#arrow)"/><line x1="-2.7" y1="2.2" x2="-2.775121218964885" y2="2.2275100429158123" stroke="#9a2b17" stroke-width="0.008" marker-end="url(#arrow)"/><line x1="-2.7" y1="2.5" x2="-2.768460655844078" y2="2.5413900785382046" stroke="#9a2b17" stroke-width="0.008" marker-end="url(#arrow)"/><line x1="-2.7" y1="2.8" x2="-2.7608322967302605" y2="2.851956055224791" stroke="#9a2b17" stroke-width="0.008" marker-end="url(#arrow)"/><line x1="-2.4000000000000004" y1="-2" x2="-2.3632489362595233" y2="-1.9289411559765894" stroke="#9a2b17" stroke-width="0.008" marker-end="url(#arrow)"/><line x1="-2.4000000000000004" y1="-1.7" x2="-2.3540449426653245" y2="-1.6345161645490534" stroke="#9a2b17" stroke-width="0.008" marker-end="url(#arrow)"/><line x1="-2.4000000000000004" y1="-1.4" x2="-2.3442664356115026" y2="-1.3426086260788852" stroke="#9a2b17" stroke-width="0.008" marker-end="url(#arrow)"/><line x1="-2.4000000000000004" y1="-1.0999999999999999" x2="-2.334312272346086" y2="-1.0543368591130091" stroke="#9a2b17" stroke-width="0.008" marker-end="url(#arrow)"/><line x1="-2.4000000000000004" y1="-0.7999999999999998" x2="-2.3253752735029525" y2="-0.771170324399314" stroke="#9a2b17" stroke-width="0.008" marker-end="url(#arrow)"/><line x1="-2.4000000000000004" y1="-0.49999999999999983" x2="-2.3202035717846714" y2="-0.4942964884434354" stroke="#9a2b17" stroke-width="0.008" marker-end="url(#arrow)"/><line x1="-2.4000000000000004" y1="-0.19999999999999984" x2="-2.3233692774142054" y2="-0.22297242599245692" stroke="#9a2b17" stroke-width="0.008" marker-end="url(#arrow)"/><line x1="-2.4000000000000004" y1="0.10000000000000014" x2="-2.3400068782947625" y2="0.04707717554721292" stroke="#9a2b17" stroke-width="0.008" marker-end="url(#arrow)"/><line x1="-2.4000000000000004" y1="0.40000000000000013" x2="-2.3733180572048145" y2="0.32458067934093804" stroke="#9a2b17" stroke-width="0.008" marker-end="url(#arrow)"/><line x1="-2.4000000000000004" y1="0.7000000000000002" x2="-2.4174442651650527" y2="0.6219250513106073" stroke="#9a2b17" stroke-width="0.008" marker-end="url(#arrow)"/><line x1="-2.4000000000000004" y1="1.0000000000000002" x2="-2.4544814079457264" y2="0.9414186361694155" stroke="#9a2b17" stroke-width="0.008" marker-end="url(#arrow)"/><line x1="-2.4000000000000004" y1="1.3000000000000003" x2="-2.474409208277886" y2="1.2706185479688596" stroke="#9a2b17" stroke-width="0.008" marker-end="url(#arrow)"/><line x1="-2.4000000000000004" y1="1.6000000000000003" x2="-2.479993819217575" y2="1.599005572030783" stroke="#9a2b17" stroke-width="0.008" marker-end="url(#arrow)"/><line x1="-2.4000000000000004" y1="1.9000000000000004" x2="-2.476841694447778" y2="1.9222565494718846" stroke="#9a2b17" stroke-width="0.008" marker-end="url(#arrow)"/><line x1="-2.4000000000000004" y1="2.2" x2="-2.4694570913246174" y2="2.239695244862878" stroke="#9a2b17" stroke-width="0.008" marker-end="url(#arrow)"/><line x1="-2.4000000000000004" y1="2.5" x2="-2.460556101081695" y2="2.552277706737993" stroke="#9a2b17" stroke-width="0.008" marker-end="url(#arrow)"/><line x1="-2.4000000000000004" y1="2.8" x2="-2.451446062720008" y2="2.861264203500976" stroke="#9a2b17" stroke-width="0.008" marker-end="url(#arrow)"/><line x1="-2.1000000000000005" y1="-2" x2="-2.0769979491573936" y2="-1.923378164619776" stroke="#9a2b17" stroke-width="0.008" marker-end="url(#arrow)"/><line x1="-2.1000000000000005" y1="-1.7" x2="-2.067502328241039" y2="-1.6268980073442125" stroke="#9a2b17" stroke-width="0.008" marker-end="url(#arrow)"/><line x1="-2.1000000000000005" y1="-1.4" x2="-2.0568940379427367" y2="-1.3326065579220223" stroke="#9a2b17" stroke-width="0.008" marker-end="url(#arrow)"/><line x1="-2.1000000000000005" y1="-1.0999999999999999" x2="-2.0450644503827076" y2="-1.0418443004663689" stroke="#9a2b17" stroke-width="0.008" marker-end="url(#arrow)"/><line x1="-2.1000000000000005" y1="-0.7999999999999998" x2="-2.03252238755837" y2="-0.7570259168896285" stroke="#9a2b17" stroke-width="0.008" marker-end="url(#arrow)"/><line x1="-2.1000000000000005" y1="-0.49999999999999983" x2="-2.0221865953232867" y2="-0.48142383105648656" stroke="#9a2b17" stroke-width="0.008" marker-end="url(#arrow)"/><line x1="-2.1000000000000005" y1="-0.19999999999999984" x2="-2.021485377551024" y2="-0.21534451242935557" stroke="#9a2b17" stroke-width="0.008" marker-end="url(#arrow)"/><line x1="-2.1000000000000005" y1="0.10000000000000014" x2="-2.038203004534083" y2="0.049195164094493996" stroke="#9a2b17" stroke-width="0.008" marker-end="url(#arrow)"/><line x1="-2.1000000000000005" y1="0.40000000000000013" x2="-2.0741276522829084" y2="0.3242991306284673" stroke="#9a2b17" stroke-width="0.008" marker-end="url(#arrow)"/><line x1="-2.1000000000000005" y1="0.7000000000000002" x2="-2.1215136354979895" y2="0.622947008574231" stroke="#9a2b17" stroke-width="0.008" marker-end="url(#arrow)"/><line x1="-2.1000000000000005" y1="1.0000000000000002" x2="-2.159524423802949" y2="0.946550556869814" stroke="#9a2b17" stroke-width="0.008" marker-end="url(#arrow)"/><line x1="-2.1000000000000005" y1="1.3000000000000003" x2="-2.177614592939312" y2="1.2806099261769075" stroke="#9a2b17" stroke-width="0.008" marker-end="url(#arrow)"/><line x1="-2.1000000000000005" y1="1.6000000000000003" x2="-2.178982836625755" y2="1.6127165843900557" stroke="#9a2b17" stroke-width="0.008" marker-end="url(#arrow)"/><line x1="-2.1000000000000005" y1="1.9000000000000004" x2="-2.1710515657139187" y2="1.9367651330692652" stroke="#9a2b17" stroke-width="0.008" marker-end="url(#arrow)"/><line x1="-2.1000000000000005" y1="2.2" x2="-2.160134386797923" y2="2.252762254732317" stroke="#9a2b17" stroke-width="0.008" marker-end="url(#arrow)"/><line x1="-2.1000000000000005" y1="2.5" x2="-2.1491625748426304" y2="2.563111339986113" stroke="#9a2b17" stroke-width="0.008" marker-end="url(#arrow)"/><line x1="-2.1000000000000005" y1="2.8" x2="-2.138972928590379" y2="2.86986494712722" stroke="#9a2b17" stroke-width="0.008" marker-end="url(#arrow)"/><line x1="-1.8000000000000005" y1="-2" x2="-1.7937363537905138" y2="-1.9202455848484714" stroke="#9a2b17" stroke-width="0.008" marker-end="url(#arrow)"/><line x1="-1.8000000000000005" y1="-1.7" x2="-1.7847411077358015" y2="-1.6214686928233741" stroke="#9a2b17" stroke-width="0.008" marker-end="url(#arrow)"/><line x1="-1.8000000000000005" y1="-1.4" x2="-1.7744361798836095" y2="-1.3241943860848233" stroke="#9a2b17" stroke-width="0.008" marker-end="url(#arrow)"/><line x1="-1.8000000000000005" y1="-1.0999999999999999" x2="-1.7621671707037436" y2="-1.0295111567165391" stroke="#9a2b17" stroke-width="0.008" marker-end="url(#arrow)"/><line x1="-1.8000000000000005" y1="-0.7999999999999998" x2="-1.7468042904917025" y2="-0.7402487113954118" stroke="#9a2b17" stroke-width="0.008" marker-end="url(#arrow)"/><line x1="-1.8000000000000005" y1="-0.49999999999999983" x2="-1.7286520918408008" y2="-0.4638133173486928" stroke="#9a2b17" stroke-width="0.008" marker-end="url(#arrow)"/><line x1="-1.8000000000000005" y1="-0.19999999999999984" x2="-1.7178566291523134" y2="-0.20872822746706765" stroke="#9a2b17" stroke-width="0.008" marker-end="url(#arrow)"/><line x1="-1.8000000000000005" y1="0.10000000000000014" x2="-1.740451323572487" y2="0.04657757834269127" stroke="#9a2b17" stroke-width="0.008" marker-end="url(#arrow)"/><line x1="-1.8000000000000005" y1="0.40000000000000013" x2="-1.7784828495077516" y2="0.3229479900671378" stroke="#9a2b17" stroke-width="0.008" marker-end="url(#arrow)"/><line x1="-1.8000000000000005" y1="0.7000000000000002" x2="-1.8241447008505907" y2="0.6237305210399633" stroke="#9a2b17" stroke-width="0.008" marker-end="url(#arrow)"/><line x1="-1.8000000000000005" y1="1.0000000000000002" x2="-1.8617110785335207" y2="0.9490908378950343" stroke="#9a2b17" stroke-width="0.008" marker-end="url(#arrow)"/><line x1="-1.8000000000000005" y1="1.3000000000000003" x2="-1.8794285089203335" y2="1.2904547409310927" stroke="#9a2b17" stroke-width="0.008" marker-end="url(#arrow)"/><line x1="-1.8000000000000005" y1="1.6000000000000003" x2="-1.874297037916241" y2="1.629663953830748" stroke="#9a2b17" stroke-width="0.008" marker-end="url(#arrow)"/><line x1="-1.8000000000000005" y1="1.9000000000000004" x2="-1.8595368513842068" y2="1.9534355998118762" stroke="#9a2b17" stroke-width="0.008" marker-end="url(#arrow)"/><line x1="-1.8000000000000005" y1="2.2" x2="-1.8453036463514512" y2="2.2659361784399334" stroke="#9a2b17" stroke-width="0.008" marker-end="url(#arrow)"/><line x1="-1.8000000000000005" y1="2.5" x2="-1.8332327688118255" y2="2.5727707570188727" stroke="#9a2b17" stroke-width="0.008" marker-end="url(#arrow)"/><line x1="-1.8000000000000005" y1="2.8" x2="-1.822864123807526" y2="2.8766631061366166" stroke="#9a2b17" stroke-width="0.008" marker-end="url(#arrow)"/><line x1="-1.5000000000000004" y1="-2" x2="-1.5132759818171495" y2="-1.9211092634918983" stroke="#9a2b17" stroke-width="0.008" marker-end="url(#arrow)"/><line x1="-1.5000000000000004" y1="-1.7" x2="-1.505699114526711" y2="-1.6202032576253176" stroke="#9a2b17" stroke-width="0.008" marker-end="url(#arrow)"/><line x1="-1.5000000000000004" y1="-1.4" x2="-1.4972677568592683" y2="-1.3200466708171577" stroke="#9a2b17" stroke-width="0.008" marker-end="url(#arrow)"/><line x1="-1.5000000000000004" y1="-1.0999999999999999" x2="-1.4875815658716123" y2="-1.0209697368484774" stroke="#9a2b17" stroke-width="0.008" marker-end="url(#arrow)"/><line x1="-1.5000000000000004" y1="-0.7999999999999998" x2="-1.4749564881268773" y2="-0.7240209073951211" stroke="#9a2b17" stroke-width="0.008" marker-end="url(#arrow)"/><line x1="-1.5000000000000004" y1="-0.49999999999999983" x2="-1.3981282345157802" y2="-0.36244526774937486" stroke="#9a2b17" stroke-width="0.008" marker-end="url(#arrow)"/><line x1="-1.5000000000000004" y1="-0.19999999999999984" x2="-1.0003978648329392" y2="-0.23513142404874535" stroke="#9a2b17" stroke-width="0.008" marker-end="url(#arrow)"/><line x1="-1.5000000000000004" y1="0.10000000000000014" x2="-1.4148732573777838" y2="-0.04496978937071458" stroke="#9a2b17" stroke-width="0.008" marker-end="url(#arrow)"/><line x1="-1.5000000000000004" y1="0.40000000000000013" x2="-1.4905827091933177" y2="0.32055621714783245" stroke="#9a2b17" stroke-width="0.008" marker-end="url(#arrow)"/><line x1="-1.5000000000000004" y1="0.7000000000000002" x2="-1.5204155783114446" y2="0.6226488257218465" stroke="#9a2b17" stroke-width="0.008" marker-end="url(#arrow)"/><line x1="-1.5000000000000004" y1="1.0000000000000002" x2="-1.584742939518364" y2="0.9063261313716986" stroke="#9a2b17" stroke-width="0.008" marker-end="url(#arrow)"/><line x1="-1.5000000000000004" y1="1.3000000000000003" x2="-1.7178061384794225" y2="1.2955649191584375" stroke="#9a2b17" stroke-width="0.008" marker-end="url(#arrow)"/><line x1="-1.5000000000000004" y1="1.6000000000000003" x2="-1.5814924970098312" y2="1.6744763162250758" stroke="#9a2b17" stroke-width="0.008" marker-end="url(#arrow)"/><line x1="-1.5000000000000004" y1="1.9000000000000004" x2="-1.5369901922378524" y2="1.970934657807075" stroke="#9a2b17" stroke-width="0.008" marker-end="url(#arrow)"/><line x1="-1.5000000000000004" y1="2.2" x2="-1.5228326282920097" y2="2.276672492363813" stroke="#9a2b17" stroke-width="0.008" marker-end="url(#arrow)"/><line x1="-1.5000000000000004" y1="2.5" x2="-1.5120796187114613" y2="2.5790827592575383" stroke="#9a2b17" stroke-width="0.008" marker-end="url(#arrow)"/><line x1="-1.5000000000000004" y1="2.8" x2="-1.5029467046610703" y2="2.879945712403108" stroke="#9a2b17" stroke-width="0.008" marker-end="url(#arrow)"/><line x1="-1.2000000000000004" y1="-2" x2="-1.2347139392690598" y2="-1.9279240510265452" stroke="#9a2b17" stroke-width="0.008" marker-end="url(#arrow)"/><line x1="-1.2000000000000004" y1="-1.7" x2="-1.229262991410926" y2="-1.6255441249216418" stroke="#9a2b17" stroke-width="0.008" marker-end="url(#arrow)"/><line x1="-1.2000000000000004" y1="-1.4" x2="-1.2238127710196756" y2="-1.3236262352874724" stroke="#9a2b17" stroke-width="0.008" marker-end="url(#arrow)"/><line x1="-1.2000000000000004" y1="-1.0999999999999999" x2="-1.2192194485068488" y2="-1.022342979717912" stroke="#9a2b17" stroke-width="0.008" marker-end="url(#arrow)"/><line x1="-1.2000000000000004" y1="-0.7999999999999998" x2="-1.2174122163740575" y2="-0.7219178975632505" stroke="#9a2b17" stroke-width="0.008" marker-end="url(#arrow)"/><line x1="-1.2000000000000004" y1="-0.49999999999999983" x2="-1.276788394751621" y2="-0.2653697116043311" stroke="#9a2b17" stroke-width="0.008" marker-end="url(#arrow)"/><line x1="-1.2000000000000004" y1="0.10000000000000014" x2="-1.2618416269948716" y2="-0.1230313883117197" stroke="#9a2b17" stroke-width="0.008" marker-end="url(#arrow)"/><line x1="-1.2000000000000004" y1="0.40000000000000013" x2="-1.2103236997738198" y2="0.31594677306992597" stroke="#9a2b17" stroke-width="0.008" marker-end="url(#arrow)"/><line x1="-1.2000000000000004" y1="0.7000000000000002" x2="-1.204544578352257" y2="0.6122393267829513" stroke="#9a2b17" stroke-width="0.008" marker-end="url(#arrow)"/><line x1="-1.2000000000000004" y1="1.0000000000000002" x2="-1.218369902024712" y2="0.7273403238968419" stroke="#9a2b17" stroke-width="0.008" marker-end="url(#arrow)"/><line x1="-1.2000000000000004" y1="1.6000000000000003" x2="-1.2143306221354193" y2="1.8383377272192096" stroke="#9a2b17" stroke-width="0.008" marker-end="url(#arrow)"/><line x1="-1.2000000000000004" y1="1.9000000000000004" x2="-1.1988859869434074" y2="1.9799922432171382" stroke="#9a2b17" stroke-width="0.008" marker-end="url(#arrow)"/><line x1="-1.2000000000000004" y1="2.2" x2="-1.1929489119101822" y2="2.279688657641785" stroke="#9a2b17" stroke-width="0.008" marker-end="url(#arrow)"/><line x1="-1.2000000000000004" y1="2.5" x2="-1.1864562643962597" y2="2.578845210545067" stroke="#9a2b17" stroke-width="0.008" marker-end="url(#arrow)"/><line x1="-1.2000000000000004" y1="2.8" x2="-1.1798816345733674" y2="2.8774290085985896" stroke="#9a2b17" stroke-width="0.008" marker-end="url(#arrow)"/><line x1="-0.9000000000000004" y1="-2" x2="-0.955958376667759" y2="-1.942827803254473" stroke="#9a2b17" stroke-width="0.008" marker-end="url(#arrow)"/><line x1="-0.9000000000000004" y1="-1.7" x2="-0.9529059650204029" y2="-1.6399920099881695" stroke="#9a2b17" stroke-width="0.008" marker-end="url(#arrow)"/><line x1="-0.9000000000000004" y1="-1.4" x2="-0.9503017667511316" y2="-1.3377928278916746" stroke="#9a2b17" stroke-width="0.008" marker-end="url(#arrow)"/><line x1="-0.9000000000000004" y1="-1.0999999999999999" x2="-0.9495462312010123" y2="-1.0371894039689489" stroke="#9a2b17" stroke-width="0.008" marker-end="url(#arrow)"/><line x1="-0.9000000000000004" y1="-0.7999999999999998" x2="-0.9537415752220303" y2="-0.7407391942962727" stroke="#9a2b17" stroke-width="0.008" marker-end="url(#arrow)"/><line x1="-0.9000000000000004" y1="-0.49999999999999983" x2="-0.983377419764629" y2="-0.4473143205177535" stroke="#9a2b17" stroke-width="0.008" marker-end="url(#arrow)"/><line x1="-0.9000000000000004" y1="-0.19999999999999984" x2="-1.0558296372153917" y2="-0.21132368472425403" stroke="#9a2b17" stroke-width="0.008" marker-end="url(#arrow)"/><line x1="-0.9000000000000004" y1="0.10000000000000014" x2="-0.9728559331168108" y2="0.0319478967895524" stroke="#9a2b17" stroke-width="0.008" marker-end="url(#arrow)"/><line x1="-0.9000000000000004" y1="0.40000000000000013" x2="-0.923917436775599" y2="0.3236589480155977" stroke="#9a2b17" stroke-width="0.008" marker-end="url(#arrow)"/><line x1="-0.9000000000000004" y1="0.7000000000000002" x2="-0.8826696773741108" y2="0.6218996804252213" stroke="#9a2b17" stroke-width="0.008" marker-end="url(#arrow)"/><line x1="-0.9000000000000004" y1="1.0000000000000002" x2="-0.8058179444117963" y2="0.8904445213516533" stroke="#9a2b17" stroke-width="0.008" marker-end="url(#arrow)"/><line x1="-0.9000000000000004" y1="1.3000000000000003" x2="-0.6029890738352148" y2="1.299531946438466" stroke="#9a2b17" stroke-width="0.008" marker-end="url(#arrow)"/><line x1="-0.9000000000000004" y1="1.6000000000000003" x2="-0.8058656803108073" y2="1.6940466380661447" stroke="#9a2b17" stroke-width="0.008" marker-end="url(#arrow)"/><line x1="-0.9000000000000004" y1="1.9000000000000004" x2="-0.858567189959099" y2="1.9684348029303411" stroke="#9a2b17" stroke-width="0.008" marker-end="url(#arrow)"/><line x1="-0.9000000000000004" y1="2.2" x2="-0.861345365144926" y2="2.2700415534109637" stroke="#9a2b17" stroke-width="0.008" marker-end="url(#arrow)"/><line x1="-0.9000000000000004" y1="2.5" x2="-0.8592694430266798" y2="2.5688550777259245" stroke="#9a2b17" stroke-width="0.008" marker-end="url(#arrow)"/><line x1="-0.9000000000000004" y1="2.8" x2="-0.8555767888050083" y2="2.866532535703407" stroke="#9a2b17" stroke-width="0.008" marker-end="url(#arrow)"/><line x1="-0.6000000000000003" y1="-2" x2="-0.67296553246729" y2="-1.9671970874499702" stroke="#9a2b17" stroke-width="0.008" marker-end="url(#arrow)"/><line x1="-0.6000000000000003" y1="-1.7" x2="-0.672059521763373" y2="-1.6652519738224743" stroke="#9a2b17" stroke-width="0.008" marker-end="url(#arrow)"/><line x1="-0.6000000000000003" y1="-1.4" x2="-0.671403057890268" y2="-1.363922259994297" stroke="#9a2b17" stroke-width="0.008" marker-end="url(#arrow)"/><line x1="-0.6000000000000003" y1="-1.0999999999999999" x2="-0.6716192571458045" y2="-1.0643533731485968" stroke="#9a2b17" stroke-width="0.008" marker-end="url(#arrow)"/><line x1="-0.6000000000000003" y1="-0.7999999999999998" x2="-0.6737758140200555" y2="-0.7690624941910592" stroke="#9a2b17" stroke-width="0.008" marker-end="url(#arrow)"/><line x1="-0.6000000000000003" y1="-0.49999999999999983" x2="-0.6780764146039434" y2="-0.4825622970952828" stroke="#9a2b17" stroke-width="0.008" marker-end="url(#arrow)"/><line x1="-0.6000000000000003" y1="-0.19999999999999984" x2="-0.6796356238003227" y2="-0.20762675697354532" stroke="#9a2b17" stroke-width="0.008" marker-end="url(#arrow)"/><line x1="-0.6000000000000003" y1="0.10000000000000014" x2="-0.6702830631443337" y2="0.06178624547300242" stroke="#9a2b17" stroke-width="0.008" marker-end="url(#arrow)"/><line x1="-0.6000000000000003" y1="0.40000000000000013" x2="-0.6354092519187837" y2="0.3282630856632925" stroke="#9a2b17" stroke-width="0.008" marker-end="url(#arrow)"/><line x1="-0.6000000000000003" y1="0.7000000000000002" x2="-0.5642427009172711" y2="0.6284359338612721" stroke="#9a2b17" stroke-width="0.008" marker-end="url(#arrow)"/><line x1="-0.6000000000000003" y1="1.0000000000000002" x2="-0.5303287037003298" y2="0.9606819319914686" stroke="#9a2b17" stroke-width="0.008" marker-end="url(#arrow)"/><line x1="-0.6000000000000003" y1="1.3000000000000003" x2="-0.5200442448861313" y2="1.297339694722215" stroke="#9a2b17" stroke-width="0.008" marker-end="url(#arrow)"/><line x1="-0.6000000000000003" y1="1.6000000000000003" x2="-0.5252885541674309" y2="1.6286041930773631" stroke="#9a2b17" stroke-width="0.008" marker-end="url(#arrow)"/><line x1="-0.6000000000000003" y1="1.9000000000000004" x2="-0.5326495865742186" y2="1.9431731607758376" stroke="#9a2b17" stroke-width="0.008" marker-end="url(#arrow)"/><line x1="-0.6000000000000003" y1="2.2" x2="-0.5354372669635781" y2="2.2472403800034217" stroke="#9a2b17" stroke-width="0.008" marker-end="url(#arrow)"/><line x1="-0.6000000000000003" y1="2.5" x2="-0.5351961074248881" y2="2.546909013069061" stroke="#9a2b17" stroke-width="0.008" marker-end="url(#arrow)"/><line x1="-0.6000000000000003" y1="2.8" x2="-0.533800103454709" y2="2.844917409736011" stroke="#9a2b17" stroke-width="0.008" marker-end="url(#arrow)"/><line x1="-0.3000000000000003" y1="-2" x2="-0.3799938719055427" y2="-1.9990098194307702" stroke="#9a2b17" stroke-width="0.008" marker-end="url(#arrow)"/><line x1="-0.3000000000000003" y1="-1.7" x2="-0.3799967857460467" y2="-1.6992828735807664" stroke="#9a2b17" stroke-width="0.008" marker-end="url(#arrow)"/><line x1="-0.3000000000000003" y1="-1.4" x2="-0.3799994514436827" y2="-1.3997037421563778" stroke="#9a2b17" stroke-width="0.008" marker-end="url(#arrow)"/><line x1="-0.3000000000000003" y1="-1.0999999999999999" x2="-0.3799992159575347" y2="-1.1003541838220028" stroke="#9a2b17" stroke-width="0.008" marker-end="url(#arrow)"/><line x1="-0.3000000000000003" y1="-0.7999999999999998" x2="-0.37998925169661174" y2="-0.8013113401603508" stroke="#9a2b17" stroke-width="0.008" marker-end="url(#arrow)"/><line x1="-0.3000000000000003" y1="-0.49999999999999983" x2="-0.3799592392974528" y2="-0.502553439048172" stroke="#9a2b17" stroke-width="0.008" marker-end="url(#arrow)"/><line x1="-0.3000000000000003" y1="-0.19999999999999984" x2="-0.37990029820556087" y2="-0.20399278682908242" stroke="#9a2b17" stroke-width="0.008" marker-end="url(#arrow)"/><line x1="-0.3000000000000003" y1="0.10000000000000014" x2="-0.3797236262962336" y2="0.0933559492643008" stroke="#9a2b17" stroke-width="0.008" marker-end="url(#arrow)"/><line x1="-0.3000000000000003" y1="0.40000000000000013" x2="-0.37682556783756455" y2="0.3776878480097546" stroke="#9a2b17" stroke-width="0.008" marker-end="url(#arrow)"/><line x1="-0.3000000000000003" y1="0.7000000000000002" x2="-0.22441688117430575" y2="0.6737856499492945" stroke="#9a2b17" stroke-width="0.008" marker-end="url(#arrow)"/><line x1="-0.3000000000000003" y1="1.0000000000000002" x2="-0.22042375015363652" y2="0.9917768339194031" stroke="#9a2b17" stroke-width="0.008" marker-end="url(#arrow)"/><line x1="-0.3000000000000003" y1="1.3000000000000003" x2="-0.2200036505102927" y2="1.3007642436264428" stroke="#9a2b17" stroke-width="0.008" marker-end="url(#arrow)"/><line x1="-0.3000000000000003" y1="1.6000000000000003" x2="-0.2203979308830209" y2="1.6079693533172796" stroke="#9a2b17" stroke-width="0.008" marker-end="url(#arrow)"/><line x1="-0.3000000000000003" y1="1.9000000000000004" x2="-0.2209011301429234" y2="1.9119736705873018" stroke="#9a2b17" stroke-width="0.008" marker-end="url(#arrow)"/><line x1="-0.3000000000000003" y1="2.2" x2="-0.22111303345322186" y2="2.213298364901275" stroke="#9a2b17" stroke-width="0.008" marker-end="url(#arrow)"/><line x1="-0.3000000000000003" y1="2.5" x2="-0.22110797935172144" y2="2.513268348730401" stroke="#9a2b17" stroke-width="0.008" marker-end="url(#arrow)"/><line x1="-0.3000000000000003" y1="2.8" x2="-0.22102115220379898" y2="2.8127413343408163" stroke="#9a2b17" stroke-width="0.008" marker-end="url(#arrow)"/><line x1="-3.3306690738754696e-16" y1="-2" x2="-0.07368918506451166" y2="-2.031143281852242" stroke="#9a2b17" stroke-width="0.008" marker-end="url(#arrow)"/><line x1="-3.3306690738754696e-16" y1="-1.7" x2="-0.07260960151694795" y2="-1.7335834150668163" stroke="#9a2b17" stroke-width="0.008" marker-end="url(#arrow)"/><line x1="-3.3306690738754696e-16" y1="-1.4" x2="-0.07163151971357085" y2="-1.4356219789389129" stroke="#9a2b17" stroke-width="0.008" marker-end="url(#arrow)"/><line x1="-3.3306690738754696e-16" y1="-1.0999999999999999" x2="-0.07131714469290322" y2="-1.1362472740058" stroke="#9a2b17" stroke-width="0.008" marker-end="url(#arrow)"/><line x1="-3.3306690738754696e-16" y1="-0.7999999999999998" x2="-0.07279479582373637" y2="-0.8331800798820703" stroke="#9a2b17" stroke-width="0.008" marker-end="url(#arrow)"/><line x1="-3.3306690738754696e-16" y1="-0.49999999999999983" x2="-0.07687518090036768" y2="-0.5221406088790662" stroke="#9a2b17" stroke-width="0.008" marker-end="url(#arrow)"/><line x1="-3.3306690738754696e-16" y1="-0.19999999999999984" x2="-0.07999883436108968" y2="-0.19956814253857152" stroke="#9a2b17" stroke-width="0.008" marker-end="url(#arrow)"/><line x1="-3.3306690738754696e-16" y1="0.10000000000000014" x2="-0.07422353927655533" y2="0.12984738208388985" stroke="#9a2b17" stroke-width="0.008" marker-end="url(#arrow)"/><line x1="-3.3306690738754696e-16" y1="0.40000000000000013" x2="-0.04487279486901659" y2="0.46623014631301374" stroke="#9a2b17" stroke-width="0.008" marker-end="url(#arrow)"/><line x1="-3.3306690738754696e-16" y1="0.7000000000000002" x2="0.04327629060452135" y2="0.7672841933258697" stroke="#9a2b17" stroke-width="0.008" marker-end="url(#arrow)"/><line x1="-3.3306690738754696e-16" y1="1.0000000000000002" x2="0.07396543537668028" y2="1.0304813774219292" stroke="#9a2b17" stroke-width="0.008" marker-end="url(#arrow)"/><line x1="-3.3306690738754696e-16" y1="1.3000000000000003" x2="0.07976216223787048" y2="1.3061642092063441" stroke="#9a2b17" stroke-width="0.008" marker-end="url(#arrow)"/><line x1="-3.3306690738754696e-16" y1="1.6000000000000003" x2="0.07910595097935937" y2="1.5880732016177377" stroke="#9a2b17" stroke-width="0.008" marker-end="url(#arrow)"/><line x1="-3.3306690738754696e-16" y1="1.9000000000000004" x2="0.07702778665413915" y2="1.878396294689004" stroke="#9a2b17" stroke-width="0.008" marker-end="url(#arrow)"/><line x1="-3.3306690738754696e-16" y1="2.2" x2="0.07606868223111495" y2="2.1752299458292557" stroke="#9a2b17" stroke-width="0.008" marker-end="url(#arrow)"/><line x1="-3.3306690738754696e-16" y1="2.5" x2="0.07610528905999771" y2="2.475342648619648" stroke="#9a2b17" stroke-width="0.008" marker-end="url(#arrow)"/><line x1="-3.3306690738754696e-16" y1="2.8" x2="0.07655624751549622" y2="2.776780590740804" stroke="#9a2b17" stroke-width="0.008" marker-end="url(#arrow)"/><line x1="0.29999999999999966" y1="-2" x2="0.24301410491958073" y2="-2.0561480877847456" stroke="#9a2b17" stroke-width="0.008" marker-end="url(#arrow)"/><line x1="0.29999999999999966" y1="-1.7" x2="0.2463294106574955" y2="-1.7593251029466301" stroke="#9a2b17" stroke-width="0.008" marker-end="url(#arrow)"/><line x1="0.29999999999999966" y1="-1.4" x2="0.24934744045820148" y2="-1.4619218718375389" stroke="#9a2b17" stroke-width="0.008" marker-end="url(#arrow)"/><line x1="0.29999999999999966" y1="-1.0999999999999999" x2="0.25074815964508346" y2="-1.163041702242673" stroke="#9a2b17" stroke-width="0.008" marker-end="url(#arrow)"/><line x1="0.29999999999999966" y1="-0.7999999999999998" x2="0.24756958236251042" y2="-0.8604239299148809" stroke="#9a2b17" stroke-width="0.008" marker-end="url(#arrow)"/><line x1="0.29999999999999966" y1="-0.49999999999999983" x2="0.22819316559784508" y2="-0.5513485896773981" stroke="#9a2b17" stroke-width="0.008" marker-end="url(#arrow)"/><line x1="0.29999999999999966" y1="-0.19999999999999984" x2="0.15009170299217295" y2="-0.20468659658330587" stroke="#9a2b17" stroke-width="0.008" marker-end="url(#arrow)"/><line x1="0.29999999999999966" y1="0.10000000000000014" x2="0.21954317645366478" y2="0.16414709385905416" stroke="#9a2b17" stroke-width="0.008" marker-end="url(#arrow)"/><line x1="0.29999999999999966" y1="0.40000000000000013" x2="0.2745099932734621" y2="0.4758304658899119" stroke="#9a2b17" stroke-width="0.008" marker-end="url(#arrow)"/><line x1="0.29999999999999966" y1="0.7000000000000002" x2="0.3259244028426765" y2="0.7756830584559757" stroke="#9a2b17" stroke-width="0.008" marker-end="url(#arrow)"/><line x1="0.29999999999999966" y1="1.0000000000000002" x2="0.36275550223741204" y2="1.049615994789283" stroke="#9a2b17" stroke-width="0.008" marker-end="url(#arrow)"/><line x1="0.29999999999999966" y1="1.3000000000000003" x2="0.4104643400631043" y2="1.3074359894416414" stroke="#9a2b17" stroke-width="0.008" marker-end="url(#arrow)"/><line x1="0.29999999999999966" y1="1.6000000000000003" x2="0.3715888281113052" y2="1.5642923020953474" stroke="#9a2b17" stroke-width="0.008" marker-end="url(#arrow)"/><line x1="0.29999999999999966" y1="1.9000000000000004" x2="0.36068538071724354" y2="1.8478724202825114" stroke="#9a2b17" stroke-width="0.008" marker-end="url(#arrow)"/><line x1="0.29999999999999966" y1="2.2" x2="0.3571623299683803" y2="2.1440315443076554" stroke="#9a2b17" stroke-width="0.008" marker-end="url(#arrow)"/><line x1="0.29999999999999966" y1="2.5" x2="0.35790185205783404" y2="2.4447969608782936" stroke="#9a2b17" stroke-width="0.008" marker-end="url(#arrow)"/><line x1="0.29999999999999966" y1="2.8" x2="0.3602191767934339" y2="2.747334539341983" stroke="#9a2b17" stroke-width="0.008" marker-end="url(#arrow)"/><line x1="0.5999999999999996" y1="-2" x2="0.5642846405227029" y2="-2.0715850060935073" stroke="#9a2b17" stroke-width="0.008" marker-end="url(#arrow)"/><line x1="0.5999999999999996" y1="-1.7" x2="0.5699423851819775" y2="-1.7741386524793337" stroke="#9a2b17" stroke-width="0.008" marker-end="url(#arrow)"/><line x1="0.5999999999999996" y1="-1.4" x2="0.5756235721131089" y2="-1.4761957332366793" stroke="#9a2b17" stroke-width="0.008" marker-end="url(#arrow)"/><line x1="0.5999999999999996" y1="-1.0999999999999999" x2="0.5804587726069401" y2="-1.1775766745354086" stroke="#9a2b17" stroke-width="0.008" marker-end="url(#arrow)"/><line x1="0.5999999999999996" y1="-0.7999999999999998" x2="0.5825708197818675" y2="-0.8780783175851263" stroke="#9a2b17" stroke-width="0.008" marker-end="url(#arrow)"/><line x1="0.5999999999999996" y1="-0.49999999999999983" x2="0.5425233087120975" y2="-0.6860053534126969" stroke="#9a2b17" stroke-width="0.008" marker-end="url(#arrow)"/><line x1="0.5999999999999996" y1="0.10000000000000014" x2="0.5124935256189396" y2="0.3702126361961579" stroke="#9a2b17" stroke-width="0.008" marker-end="url(#arrow)"/><line x1="0.5999999999999996" y1="0.40000000000000013" x2="0.593667527658118" y2="0.4889171296194628" stroke="#9a2b17" stroke-width="0.008" marker-end="url(#arrow)"/><line x1="0.5999999999999996" y1="0.7000000000000002" x2="0.6135817301475626" y2="0.7811731463499079" stroke="#9a2b17" stroke-width="0.008" marker-end="url(#arrow)"/><line x1="0.5999999999999996" y1="1.0000000000000002" x2="0.6919739820956198" y2="1.180290191113195" stroke="#9a2b17" stroke-width="0.008" marker-end="url(#arrow)"/><line x1="0.5999999999999996" y1="1.6000000000000003" x2="0.701819580406067" y2="1.4308499694254335" stroke="#9a2b17" stroke-width="0.008" marker-end="url(#arrow)"/><line x1="0.5999999999999996" y1="1.9000000000000004" x2="0.6284074992680512" y2="1.8252135441049946" stroke="#9a2b17" stroke-width="0.008" marker-end="url(#arrow)"/><line x1="0.5999999999999996" y1="2.2" x2="0.6281822570256004" y2="2.1251283739395026" stroke="#9a2b17" stroke-width="0.008" marker-end="url(#arrow)"/><line x1="0.5999999999999996" y1="2.5" x2="0.6319721081387075" y2="2.426666622189028" stroke="#9a2b17" stroke-width="0.008" marker-end="url(#arrow)"/><line x1="0.5999999999999996" y1="2.8" x2="0.6370162755880194" y2="2.7290789499401495" stroke="#9a2b17" stroke-width="0.008" marker-end="url(#arrow)"/><line x1="0.8999999999999997" y1="-2" x2="0.8858767316383548" y2="-2.078743465067172" stroke="#9a2b17" stroke-width="0.008" marker-end="url(#arrow)"/><line x1="0.8999999999999997" y1="-1.7" x2="0.893532549289092" y2="-1.7797381469643105" stroke="#9a2b17" stroke-width="0.008" marker-end="url(#arrow)"/><line x1="0.8999999999999997" y1="-1.4" x2="0.9019365190470385" y2="-1.4799765584029498" stroke="#9a2b17" stroke-width="0.008" marker-end="url(#arrow)"/><line x1="0.8999999999999997" y1="-1.0999999999999999" x2="0.911356858974423" y2="-1.1791897831429978" stroke="#9a2b17" stroke-width="0.008" marker-end="url(#arrow)"/><line x1="0.8999999999999997" y1="-0.7999999999999998" x2="0.9231325246499168" y2="-0.87658254568321" stroke="#9a2b17" stroke-width="0.008" marker-end="url(#arrow)"/><line x1="0.8999999999999997" y1="-0.49999999999999983" x2="0.979273754328703" y2="-0.6236402334765199" stroke="#9a2b17" stroke-width="0.008" marker-end="url(#arrow)"/><line x1="0.8999999999999997" y1="-0.19999999999999984" x2="1.4168332175920448" y2="-0.2573011796864063" stroke="#9a2b17" stroke-width="0.008" marker-end="url(#arrow)"/><line x1="0.8999999999999997" y1="0.10000000000000014" x2="1.0138815381176105" y2="0.2672139858639556" stroke="#9a2b17" stroke-width="0.008" marker-end="url(#arrow)"/><line x1="0.8999999999999997" y1="0.40000000000000013" x2="0.9166292083068749" y2="0.4817323717572543" stroke="#9a2b17" stroke-width="0.008" marker-end="url(#arrow)"/><line x1="0.8999999999999997" y1="0.7000000000000002" x2="0.8944844128885197" y2="0.7826155010368524" stroke="#9a2b17" stroke-width="0.008" marker-end="url(#arrow)"/><line x1="0.8999999999999997" y1="1.0000000000000002" x2="0.8215230934092914" y2="1.200509274672667" stroke="#9a2b17" stroke-width="0.008" marker-end="url(#arrow)"/><line x1="0.8999999999999997" y1="1.6000000000000003" x2="0.8130379301707877" y2="1.4089323733017522" stroke="#9a2b17" stroke-width="0.008" marker-end="url(#arrow)"/><line x1="0.8999999999999997" y1="1.9000000000000004" x2="0.8853671886559248" y2="1.8213496291669984" stroke="#9a2b17" stroke-width="0.008" marker-end="url(#arrow)"/><line x1="0.8999999999999997" y1="2.2" x2="0.8958877426648324" y2="2.1201057615368333" stroke="#9a2b17" stroke-width="0.008" marker-end="url(#arrow)"/><line x1="0.8999999999999997" y1="2.5" x2="0.9046864661526205" y2="2.4201373865003135" stroke="#9a2b17" stroke-width="0.008" marker-end="url(#arrow)"/><line x1="0.8999999999999997" y1="2.8" x2="0.9127443882465306" y2="2.7210216449384914" stroke="#9a2b17" stroke-width="0.008" marker-end="url(#arrow)"/><line x1="1.1999999999999997" y1="-2" x2="1.205629432926056" y2="-2.0798016884842108" stroke="#9a2b17" stroke-width="0.008" marker-end="url(#arrow)"/><line x1="1.1999999999999997" y1="-1.7" x2="1.214610558872718" y2="-1.7786545076230653" stroke="#9a2b17" stroke-width="0.008" marker-end="url(#arrow)"/><line x1="1.1999999999999997" y1="-1.4" x2="1.2247640240725834" y2="-1.4760706455325079" stroke="#9a2b17" stroke-width="0.008" marker-end="url(#arrow)"/><line x1="1.1999999999999997" y1="-1.0999999999999999" x2="1.2366643711538694" y2="-1.1711036137470612" stroke="#9a2b17" stroke-width="0.008" marker-end="url(#arrow)"/><line x1="1.1999999999999997" y1="-0.7999999999999998" x2="1.2514090520134382" y2="-0.8612952638552079" stroke="#9a2b17" stroke-width="0.008" marker-end="url(#arrow)"/><line x1="1.1999999999999997" y1="-0.49999999999999983" x2="1.2693153993824569" y2="-0.5399421507739686" stroke="#9a2b17" stroke-width="0.008" marker-end="url(#arrow)"/><line x1="1.1999999999999997" y1="-0.19999999999999984" x2="1.284635338821803" y2="-0.19715346947831458" stroke="#9a2b17" stroke-width="0.008" marker-end="url(#arrow)"/><line x1="1.1999999999999997" y1="0.10000000000000014" x2="1.2625627772724777" y2="0.14985878959576077" stroke="#9a2b17" stroke-width="0.008" marker-end="url(#arrow)"/><line x1="1.1999999999999997" y1="0.40000000000000013" x2="1.225389441572952" y2="0.4758641961442528" stroke="#9a2b17" stroke-width="0.008" marker-end="url(#arrow)"/><line x1="1.1999999999999997" y1="0.7000000000000002" x2="1.1813513424916116" y2="0.7777960639951332" stroke="#9a2b17" stroke-width="0.008" marker-end="url(#arrow)"/><line x1="1.1999999999999997" y1="1.0000000000000002" x2="1.1406633178501955" y2="1.057365329326098" stroke="#9a2b17" stroke-width="0.008" marker-end="url(#arrow)"/><line x1="1.1999999999999997" y1="1.3000000000000003" x2="1.0844296773207633" y2="1.3089411381062663" stroke="#9a2b17" stroke-width="0.008" marker-end="url(#arrow)"/><line x1="1.1999999999999997" y1="1.6000000000000003" x2="1.132343757446903" y2="1.5573076957333465" stroke="#9a2b17" stroke-width="0.008" marker-end="url(#arrow)"/><line x1="1.1999999999999997" y1="1.9000000000000004" x2="1.1527214439993576" y2="1.8354652175761466" stroke="#9a2b17" stroke-width="0.008" marker-end="url(#arrow)"/><line x1="1.1999999999999997" y1="2.2" x2="1.1682533760345692" y2="2.126568726915588" stroke="#9a2b17" stroke-width="0.008" marker-end="url(#arrow)"/><line x1="1.1999999999999997" y1="2.5" x2="1.1803755932465692" y2="2.42244432541989" stroke="#9a2b17" stroke-width="0.008" marker-end="url(#arrow)"/><line x1="1.1999999999999997" y1="2.8" x2="1.190601892670347" y2="2.720553945481098" stroke="#9a2b17" stroke-width="0.008" marker-end="url(#arrow)"/><line x1="1.4999999999999998" y1="-2" x2="1.5226335733700649" y2="-2.0767314886894677" stroke="#9a2b17" stroke-width="0.008" marker-end="url(#arrow)"/><line x1="1.4999999999999998" y1="-1.7" x2="1.5320920508075395" y2="-1.773280968026946" stroke="#9a2b17" stroke-width="0.008" marker-end="url(#arrow)"/><line x1="1.4999999999999998" y1="-1.4" x2="1.5425707932424277" y2="-1.4677327657984705" stroke="#9a2b17" stroke-width="0.008" marker-end="url(#arrow)"/><line x1="1.4999999999999998" y1="-1.0999999999999999" x2="1.5541917115000543" y2="-1.158849455432441" stroke="#9a2b17" stroke-width="0.008" marker-end="url(#arrow)"/><line x1="1.4999999999999998" y1="-0.7999999999999998" x2="1.5665844427485511" y2="-0.8443453716171696" stroke="#9a2b17" stroke-width="0.008" marker-end="url(#arrow)"/><line x1="1.4999999999999998" y1="-0.49999999999999983" x2="1.577235770555606" y2="-0.5208479194808918" stroke="#9a2b17" stroke-width="0.008" marker-end="url(#arrow)"/><line x1="1.4999999999999998" y1="-0.19999999999999984" x2="1.578957921313048" y2="-0.1871296207545197" stroke="#9a2b17" stroke-width="0.008" marker-end="url(#arrow)"/><line x1="1.4999999999999998" y1="0.10000000000000014" x2="1.5627183477055466" y2="0.1496629526013723" stroke="#9a2b17" stroke-width="0.008" marker-end="url(#arrow)"/><line x1="1.4999999999999998" y1="0.40000000000000013" x2="1.525369495587155" y2="0.47587086854421357" stroke="#9a2b17" stroke-width="0.008" marker-end="url(#arrow)"/><line x1="1.4999999999999998" y1="0.7000000000000002" x2="1.4766324358579257" y2="0.7765111556968399" stroke="#9a2b17" stroke-width="0.008" marker-end="url(#arrow)"/><line x1="1.4999999999999998" y1="1.0000000000000002" x2="1.4386050671073898" y2="1.0512899816251862" stroke="#9a2b17" stroke-width="0.008" marker-end="url(#arrow)"/><line x1="1.4999999999999998" y1="1.3000000000000003" x2="1.4211328513639558" y2="1.3134153966031634" stroke="#9a2b17" stroke-width="0.008" marker-end="url(#arrow)"/><line x1="1.4999999999999998" y1="1.6000000000000003" x2="1.4232761819696713" y2="1.5773404380702312" stroke="#9a2b17" stroke-width="0.008" marker-end="url(#arrow)"/><line x1="1.4999999999999998" y1="1.9000000000000004" x2="1.4354064972532101" y2="1.8528017012711215" stroke="#9a2b17" stroke-width="0.008" marker-end="url(#arrow)"/><line x1="1.4999999999999998" y1="2.2" x2="1.4489323423164706" y2="2.1384200167366223" stroke="#9a2b17" stroke-width="0.008" marker-end="url(#arrow)"/><line x1="1.4999999999999998" y1="2.5" x2="1.4612097755662918" y2="2.430033447359595" stroke="#9a2b17" stroke-width="0.008" marker-end="url(#arrow)"/><line x1="1.4999999999999998" y1="2.8" x2="1.4720653423424028" y2="2.72503564245888" stroke="#9a2b17" stroke-width="0.008" marker-end="url(#arrow)"/><line x1="1.7999999999999998" y1="-2" x2="1.8366857913649612" y2="-2.071092564392674" stroke="#9a2b17" stroke-width="0.008" marker-end="url(#arrow)"/><line x1="1.7999999999999998" y1="-1.7" x2="1.845872206136301" y2="-1.7655419003705926" stroke="#9a2b17" stroke-width="0.008" marker-end="url(#arrow)"/><line x1="1.7999999999999998" y1="-1.4" x2="1.8555891492315473" y2="-1.4575312653060293" stroke="#9a2b17" stroke-width="0.008" marker-end="url(#arrow)"/><line x1="1.7999999999999998" y1="-1.0999999999999999" x2="1.8654755405988297" y2="-1.145966874847992" stroke="#9a2b17" stroke-width="0.008" marker-end="url(#arrow)"/><line x1="1.7999999999999998" y1="-0.7999999999999998" x2="1.8744252279712894" y2="-0.8293408493643514" stroke="#9a2b17" stroke-width="0.008" marker-end="url(#arrow)"/><line x1="1.7999999999999998" y1="-0.49999999999999983" x2="1.8797566803949508" y2="-0.5062347359509168" stroke="#9a2b17" stroke-width="0.008" marker-end="url(#arrow)"/><line x1="1.7999999999999998" y1="-0.19999999999999984" x2="1.8766045850383575" y2="-0.17694056481391962" stroke="#9a2b17" stroke-width="0.008" marker-end="url(#arrow)"/><line x1="1.7999999999999998" y1="0.10000000000000014" x2="1.8587757991599816" y2="0.15427158955757153" stroke="#9a2b17" stroke-width="0.008" marker-end="url(#arrow)"/><line x1="1.7999999999999998" y1="0.40000000000000013" x2="1.8223351564586117" y2="0.4768188830039161" stroke="#9a2b17" stroke-width="0.008" marker-end="url(#arrow)"/><line x1="1.7999999999999998" y1="0.7000000000000002" x2="1.7761258265477884" y2="0.7763545928020951" stroke="#9a2b17" stroke-width="0.008" marker-end="url(#arrow)"/><line x1="1.7999999999999998" y1="1.0000000000000002" x2="1.7404267406997453" y2="1.0533950070357208" stroke="#9a2b17" stroke-width="0.008" marker-end="url(#arrow)"/><line x1="1.7999999999999998" y1="1.3000000000000003" x2="1.723009279862179" y2="1.3217354321939951" stroke="#9a2b17" stroke-width="0.008" marker-end="url(#arrow)"/><line x1="1.7999999999999998" y1="1.6000000000000003" x2="1.7204427995722011" y2="1.5915945339158928" stroke="#9a2b17" stroke-width="0.008" marker-end="url(#arrow)"/><line x1="1.7999999999999998" y1="1.9000000000000004" x2="1.7267212377018792" y2="1.867902912966197" stroke="#9a2b17" stroke-width="0.008" marker-end="url(#arrow)"/><line x1="1.7999999999999998" y1="2.2" x2="1.7366039446269304" y2="2.1512051215481103" stroke="#9a2b17" stroke-width="0.008" marker-end="url(#arrow)"/><line x1="1.7999999999999998" y1="2.5" x2="1.7472029327577152" y2="2.4398961757405266" stroke="#9a2b17" stroke-width="0.008" marker-end="url(#arrow)"/><line x1="1.7999999999999998" y1="2.8" x2="1.7574180120516976" y2="2.7322742714888153" stroke="#9a2b17" stroke-width="0.008" marker-end="url(#arrow)"/><line x1="2.0999999999999996" y1="-2" x2="2.147974951734789" y2="-2.0640187785422732" stroke="#9a2b17" stroke-width="0.008" marker-end="url(#arrow)"/><line x1="2.0999999999999996" y1="-1.7" x2="2.156385370481801" y2="-1.756751123298398" stroke="#9a2b17" stroke-width="0.008" marker-end="url(#arrow)"/><line x1="2.0999999999999996" y1="-1.4" x2="2.164779045494658" y2="-1.4469433197036699" stroke="#9a2b17" stroke-width="0.008" marker-end="url(#arrow)"/><line x1="2.0999999999999996" y1="-1.0999999999999999" x2="2.172521918037363" y2="-1.1337723467378553" stroke="#9a2b17" stroke-width="0.008" marker-end="url(#arrow)"/><line x1="2.0999999999999996" y1="-0.7999999999999998" x2="2.178314732256708" y2="-0.8163340965945499" stroke="#9a2b17" stroke-width="0.008" marker-end="url(#arrow)"/><line x1="2.0999999999999996" y1="-0.49999999999999983" x2="2.179779460308917" y2="-0.4940638638140742" stroke="#9a2b17" stroke-width="0.008" marker-end="url(#arrow)"/><line x1="2.0999999999999996" y1="-0.19999999999999984" x2="2.173168995065287" y2="-0.16765346755622895" stroke="#9a2b17" stroke-width="0.008" marker-end="url(#arrow)"/><line x1="2.0999999999999996" y1="0.10000000000000014" x2="2.1537323054673614" y2="0.15926921080259265" stroke="#9a2b17" stroke-width="0.008" marker-end="url(#arrow)"/><line x1="2.0999999999999996" y1="0.40000000000000013" x2="2.1189912188992843" y2="0.4777131494968482" stroke="#9a2b17" stroke-width="0.008" marker-end="url(#arrow)"/><line x1="2.0999999999999996" y1="0.7000000000000002" x2="2.077056600258826" y2="0.7766394181105046" stroke="#9a2b17" stroke-width="0.008" marker-end="url(#arrow)"/><line x1="2.0999999999999996" y1="1.0000000000000002" x2="2.0438040781554765" y2="1.0569387246787654" stroke="#9a2b17" stroke-width="0.008" marker-end="url(#arrow)"/><line x1="2.0999999999999996" y1="1.3000000000000003" x2="2.0257114806234604" y2="1.329685280676483" stroke="#9a2b17" stroke-width="0.008" marker-end="url(#arrow)"/><line x1="2.0999999999999996" y1="1.6000000000000003" x2="2.020059219560776" y2="1.6030776001637415" stroke="#9a2b17" stroke-width="0.008" marker-end="url(#arrow)"/><line x1="2.0999999999999996" y1="1.9000000000000004" x2="2.022373428692764" y2="1.8806579363282347" stroke="#9a2b17" stroke-width="0.008" marker-end="url(#arrow)"/><line x1="2.0999999999999996" y1="2.2" x2="2.028946153735583" y2="2.163239274612263" stroke="#9a2b17" stroke-width="0.008" marker-end="url(#arrow)"/><line x1="2.0999999999999996" y1="2.5" x2="2.037343555118852" y2="2.450258971513893" stroke="#9a2b17" stroke-width="0.008" marker-end="url(#arrow)"/><line x1="2.0999999999999996" y1="2.8" x2="2.046248676409344" y2="2.7407480362160657" stroke="#9a2b17" stroke-width="0.008" marker-end="url(#arrow)"/><line x1="2.3999999999999995" y1="-2" x2="2.4568629618919404" y2="-2.0562725827101946" stroke="#9a2b17" stroke-width="0.008" marker-end="url(#arrow)"/><line x1="2.3999999999999995" y1="-1.7" x2="2.4642273943935855" y2="-1.747695301754059" stroke="#9a2b17" stroke-width="0.008" marker-end="url(#arrow)"/><line x1="2.3999999999999995" y1="-1.4" x2="2.471101855075965" y2="-1.4366677815630609" stroke="#9a2b17" stroke-width="0.008" marker-end="url(#arrow)"/><line x1="2.3999999999999995" y1="-1.0999999999999999" x2="2.476738417413215" y2="-1.1226100706083613" stroke="#9a2b17" stroke-width="0.008" marker-end="url(#arrow)"/><line x1="2.3999999999999995" y1="-0.7999999999999998" x2="2.479843420539817" y2="-0.805002818855588" stroke="#9a2b17" stroke-width="0.008" marker-end="url(#arrow)"/><line x1="2.3999999999999995" y1="-0.49999999999999983" x2="2.4783253633005007" y2="-0.48371695778287965" stroke="#9a2b17" stroke-width="0.008" marker-end="url(#arrow)"/><line x1="2.3999999999999995" y1="-0.19999999999999984" x2="2.4691222409908113" y2="-0.1597245012394864" stroke="#9a2b17" stroke-width="0.008" marker-end="url(#arrow)"/><line x1="2.3999999999999995" y1="0.10000000000000014" x2="2.4486909449717533" y2="0.16347591572996534" stroke="#9a2b17" stroke-width="0.008" marker-end="url(#arrow)"/><line x1="2.3999999999999995" y1="0.40000000000000013" x2="2.4160750072370925" y2="0.4783683235901306" stroke="#9a2b17" stroke-width="0.008" marker-end="url(#arrow)"/><line x1="2.3999999999999995" y1="0.7000000000000002" x2="2.378365132972648" y2="0.777019040040167" stroke="#9a2b17" stroke-width="0.008" marker-end="url(#arrow)"/><line x1="2.3999999999999995" y1="1.0000000000000002" x2="2.347494043648192" y2="1.0603583013974227" stroke="#9a2b17" stroke-width="0.008" marker-end="url(#arrow)"/><line x1="2.3999999999999995" y1="1.3000000000000003" x2="2.32890977853608" y2="1.3366903313178131" stroke="#9a2b17" stroke-width="0.008" marker-end="url(#arrow)"/><line x1="2.3999999999999995" y1="1.6000000000000003" x2="2.3210201244032507" y2="1.6127349617479632" stroke="#9a2b17" stroke-width="0.008" marker-end="url(#arrow)"/><line x1="2.3999999999999995" y1="1.9000000000000004" x2="2.320444713337432" y2="1.8915764399428323" stroke="#9a2b17" stroke-width="0.008" marker-end="url(#arrow)"/><line x1="2.3999999999999995" y1="2.2" x2="2.324295837801189" y2="2.17413728889354" stroke="#9a2b17" stroke-width="0.008" marker-end="url(#arrow)"/><line x1="2.3999999999999995" y1="2.5" x2="2.3305432670531236" y2="2.4603041280692017" stroke="#9a2b17" stroke-width="0.008" marker-end="url(#arrow)"/><line x1="2.3999999999999995" y1="2.8" x2="2.337912015550673" y2="2.7495511924123055" stroke="#9a2b17" stroke-width="0.008" marker-end="url(#arrow)"/><line x1="2.6999999999999993" y1="-2" x2="2.763746559474168" y2="-2.048336075091036" stroke="#9a2b17" stroke-width="0.008" marker-end="url(#arrow)"/><line x1="2.6999999999999993" y1="-1.7" x2="2.76995694591056" y2="-1.7388075471895204" stroke="#9a2b17" stroke-width="0.008" marker-end="url(#arrow)"/><line x1="2.6999999999999993" y1="-1.4" x2="2.7753057708729116" y2="-1.4270007569011764" stroke="#9a2b17" stroke-width="0.008" marker-end="url(#arrow)"/><line x1="2.6999999999999993" y1="-1.0999999999999999" x2="2.7790134636569412" y2="-1.112524877681363" stroke="#9a2b17" stroke-width="0.008" marker-end="url(#arrow)"/><line x1="2.6999999999999993" y1="-0.7999999999999998" x2="2.7798508990838164" y2="-0.7951180008699286" stroke="#9a2b17" stroke-width="0.008" marker-end="url(#arrow)"/><line x1="2.6999999999999993" y1="-0.49999999999999983" x2="2.7759733861252056" y2="-0.474939181963266" stroke="#9a2b17" stroke-width="0.008" marker-end="url(#arrow)"/><line x1="2.6999999999999993" y1="-0.19999999999999984" x2="2.764877883672388" y2="-0.15319337429175184" stroke="#9a2b17" stroke-width="0.008" marker-end="url(#arrow)"/><line x1="2.6999999999999993" y1="0.10000000000000014" x2="2.744075871747413" y2="0.1667631449956155" stroke="#9a2b17" stroke-width="0.008" marker-end="url(#arrow)"/><line x1="2.6999999999999993" y1="0.40000000000000013" x2="2.7136863591200413" y2="0.47882057836654884" stroke="#9a2b17" stroke-width="0.008" marker-end="url(#arrow)"/><line x1="2.6999999999999993" y1="0.7000000000000002" x2="2.6796929350603813" y2="0.7773797332221957" stroke="#9a2b17" stroke-width="0.008" marker-end="url(#arrow)"/><line x1="2.6999999999999993" y1="1.0000000000000002" x2="2.651047091079316" y2="1.063274107723486" stroke="#9a2b17" stroke-width="0.008" marker-end="url(#arrow)"/><line x1="2.6999999999999993" y1="1.3000000000000003" x2="2.6323075771960696" y2="1.3426349140369025" stroke="#9a2b17" stroke-width="0.008" marker-end="url(#arrow)"/><line x1="2.6999999999999993" y1="1.6000000000000003" x2="2.6227895065144695" y2="1.6209413393965377" stroke="#9a2b17" stroke-width="0.008" marker-end="url(#arrow)"/><line x1="2.6999999999999993" y1="1.9000000000000004" x2="2.6200065247142237" y2="1.9010217199733965" stroke="#9a2b17" stroke-width="0.008" marker-end="url(#arrow)"/><line x1="2.6999999999999993" y1="2.2" x2="2.621636422728737" y2="2.183901871001546" stroke="#9a2b17" stroke-width="0.008" marker-end="url(#arrow)"/><line x1="2.6999999999999993" y1="2.5" x2="2.625954189878655" y2="2.4697143927999807" stroke="#9a2b17" stroke-width="0.008" marker-end="url(#arrow)"/><line x1="2.6999999999999993" y1="2.8" x2="2.63178856978151" y2="2.758200469051098" stroke="#9a2b17" stroke-width="0.008" marker-end="url(#arrow)"/><line x1="2.999999999999999" y1="-2" x2="3.0689902834629206" y2="-2.040501120820364" stroke="#9a2b17" stroke-width="0.008" marker-end="url(#arrow)"/><line x1="2.999999999999999" y1="-1.7" x2="3.0740343545876487" y2="-1.7303135999312214" stroke="#9a2b17" stroke-width="0.008" marker-end="url(#arrow)"/><line x1="2.999999999999999" y1="-1.4" x2="3.0779362812742663" y2="-1.4180536993754276" stroke="#9a2b17" stroke-width="0.008" marker-end="url(#arrow)"/><line x1="2.999999999999999" y1="-1.0999999999999999" x2="3.079924374295609" y2="-1.1034776994486672" stroke="#9a2b17" stroke-width="0.008" marker-end="url(#arrow)"/><line x1="2.999999999999999" y1="-0.7999999999999998" x2="3.0788550695141037" y2="-0.7865137843734518" stroke="#9a2b17" stroke-width="0.008" marker-end="url(#arrow)"/><line x1="2.999999999999999" y1="-0.49999999999999983" x2="3.0731169121841764" y2="-0.4675359097978814" stroke="#9a2b17" stroke-width="0.008" marker-end="url(#arrow)"/><line x1="2.999999999999999" y1="-0.19999999999999984" x2="3.0607111554030295" y2="-0.1479024414235261" stroke="#9a2b17" stroke-width="0.008" marker-end="url(#arrow)"/><line x1="2.999999999999999" y1="0.10000000000000014" x2="3.040006963019963" y2="0.1692780117347435" stroke="#9a2b17" stroke-width="0.008" marker-end="url(#arrow)"/><line x1="2.999999999999999" y1="0.40000000000000013" x2="3.011760195790956" y2="0.47913089027022493" stroke="#9a2b17" stroke-width="0.008" marker-end="url(#arrow)"/><line x1="2.999999999999999" y1="0.7000000000000002" x2="2.9809299316017275" y2="0.7776938381809347" stroke="#9a2b17" stroke-width="0.008" marker-end="url(#arrow)"/><line x1="2.999999999999999" y1="1.0000000000000002" x2="2.954310541625509" y2="1.0656694251036642" stroke="#9a2b17" stroke-width="0.008" marker-end="url(#arrow)"/><line x1="2.999999999999999" y1="1.3000000000000003" x2="2.9357025212396795" y2="1.3476007796686804" stroke="#9a2b17" stroke-width="0.008" marker-end="url(#arrow)"/><line x1="2.999999999999999" y1="1.6000000000000003" x2="2.9250328424998906" y2="1.6279271426457118" stroke="#9a2b17" stroke-width="0.008" marker-end="url(#arrow)"/><line x1="2.999999999999999" y1="1.9000000000000004" x2="2.9205347311809944" y2="1.9092342325898444" stroke="#9a2b17" stroke-width="0.008" marker-end="url(#arrow)"/><line x1="2.999999999999999" y1="2.2" x2="2.920340754809259" y2="2.1926240488314033" stroke="#9a2b17" stroke-width="0.008" marker-end="url(#arrow)"/><line x1="2.999999999999999" y1="2.5" x2="2.922973086296318" y2="2.478393182435035" stroke="#9a2b17" stroke-width="0.008" marker-end="url(#arrow)"/><line x1="2.999999999999999" y1="2.8" x2="2.927371034036114" y2="2.7664584838891146" stroke="#9a2b17" stroke-width="0.008" marker-end="url(#arrow)"/></g><g><circle cx="-1.2874916791915894" cy="-0.21148598194122314" r="0.08" fill="#9a2b17" cursor="grab"/><circle cx="-1.178425669670105" cy="1.2949897050857544" r="0.08" fill="#9a2b17" cursor="grab"/><circle cx="0.764314591884613" cy="1.3052146434783936" r="0.08" fill="#9a2b17" cursor="grab"/><circle cx="0.6927399635314941" cy="-0.17399455606937408" r="0.08" fill="#9a2b17" cursor="grab"/></g><g id="textGroup"/></svg>